<?xml version="1.0" encoding="utf-8"?>
<!-- Generator: Adobe Illustrator 19.0.0, SVG Export Plug-In . SVG Version: 6.00 Build 0)  -->
<svg version="1.1" id="Layer_1" xmlns="http://www.w3.org/2000/svg" xmlns:xlink="http://www.w3.org/1999/xlink" x="0px" y="0px"
	 viewBox="0 0 100 100" style="enable-background:new 0 0 100 100;" xml:space="preserve">
<style type="text/css">
	.st0{fill:#33454C;}
	.st1{fill:#00A199;}
	.st2{fill:#00336A;}
	.st3{opacity:0.43;fill:#E8E8E8;}
	.st4{fill:#FFFFFF;}
	.st5{fill:#969696;}
	.st6{fill:#404040;}
</style>
<circle id="XMLID_1179_" class="st0" cx="50" cy="50" r="44.7"/>
<circle id="XMLID_1178_" class="st1" cx="49.8" cy="50.1" r="35.2"/>
<circle id="XMLID_1176_" class="st2" cx="50" cy="50" r="44.7"/>
<circle id="XMLID_1175_" class="st3" cx="49.8" cy="50.1" r="35.2"/>
<path id="XMLID_1139_" class="st4" d="M55.6,54.4c-0.4,1,0.3,2.2,1.3,2.4c3.7,0.8,6.9,0.2,7.6-1.7c0.6-1.9-1.5-4.3-4.9-6
	c-1-0.5-2.2,0.1-2.5,1.1l-0.6,1.6l-2-0.6c0-0.1,0-0.2-0.1-0.3c0,0-2.6-4.8-2.6-4.9l-1.4-6l0,0l0,0c-0.7-0.9-1.4-1.6-2.2-2.2
	c1.4-0.4,2.7-1.7,3.2-3.5c0.8-2.6-0.4-4.5-2.5-5.1c-2.1-0.6-4.2,0.3-5,2.9c-0.5,1.7-0.2,3.3,0.6,4.4c-1-0.1-2,0-3,0.2L35,38.5
	c-0.1,0-0.2,0.1-0.3,0.2L32,44.2l-3.1-1.1l-0.3,1l3,1l0,0c-0.3,0.6,0,1.3,0.6,1.5l0,0c0.5,0.2,1.1,0,1.3-0.5l0.2-0.4l3.9,1.2
	l-1.6,4.2l-1.1,6c0,0.3-0.2,0.5-0.4,0.7c0,0-4.8,5.6-6.5,7.6c-0.4,0.5-0.6,1.1-0.6,1.7c0,0,0,0,0,0c0,0.6,0.5,1,1,1h0.9
	c0.6,0,1.2-0.2,1.7-0.7l7.3-7c0.2-0.1,0.3-0.3,0.4-0.5l2.7-6.2l3.4,4.5c0.1,0.1,0.1,0.2,0.2,0.3l2.9,8.5c0.2,0.6,0.8,1.1,1.5,1.1
	h1.3c0.5,0,0.9-0.5,0.8-0.9c-0.5-2.6-2.1-9.7-2.1-9.7c0-0.1,0-0.1-0.1-0.2l-2.9-6.2c-0.1-0.1-0.1-0.2,0-0.3l0.3-0.9l5.3,1.7
	c0.3,0.4,0.4,0.6,0.4,0.6c0.3,0.4,0.9,0.5,1.3,0.1l0.1-0.1l2.1,0.7L55.6,54.4z M38,46.1l-3.8-1.2l1.9-3.3c0.1-0.1,0.2-0.2,0.3-0.2
	l3.7-0.9L38,46.1z M47.2,48.9l1.3-3.5l0.5,1.9c0,0.1,1.1,1.5,2.1,2.8L47.2,48.9z"/>
<path id="XMLID_1138_" class="st5" d="M53.9,33.1l-1.7-0.4c0.5-2.3-1-4.5-3.2-5c-2.3-0.5-4.5,0.9-5.1,3.1l0,0.1l-0.3,1.4
	c0,0.2,0.1,0.4,0.3,0.5l7.6,1.7l2.1,0.5c0.5,0.1,1-0.2,1.1-0.7S54.5,33.3,53.9,33.1z"/>
<path id="XMLID_1137_" class="st6" d="M72.3,67.4c-0.9-1.6-2.4-2.8-3.1-4.6c-0.3-0.8-0.5-1.8-1-2.5c-0.2-0.3-0.5-0.6-0.9-0.8
	c-0.9-0.7-2.2-1.3-3.3-0.9c-0.5,0.2-0.6,0.3-1.3,0.9s-0.8,1.5-1.4,2.7c-0.6,1.1-1.4,1.8-3,1.8c-1.6,0-3.8,2-3.6,4
	c0,0.1,0,0.2,0.1,0.3h17.7C72.6,68,72.4,67.7,72.3,67.4C71.4,65.8,72.4,67.7,72.3,67.4z"/>
</svg>
