<?xml version="1.0" encoding="utf-8"?>
<!-- Generator: Adobe Illustrator 19.0.0, SVG Export Plug-In . SVG Version: 6.00 Build 0)  -->
<svg version="1.1" id="Layer_1" xmlns="http://www.w3.org/2000/svg" xmlns:xlink="http://www.w3.org/1999/xlink" x="0px" y="0px"
	 viewBox="0 0 100 100" style="enable-background:new 0 0 100 100;" xml:space="preserve">
<style type="text/css">
	.st0{fill:#33454C;}
	.st1{fill:#00A199;}
	.st2{fill:#00336A;}
	.st3{opacity:0.43;fill:#E8E8E8;}
	.st4{fill:#F2F2F2;}
	.st5{fill:#FFFFFF;}
	.st6{fill:#969696;}
	.st7{fill:#404040;}
</style>
<circle id="XMLID_482_" class="st0" cx="50" cy="48.3" r="44.7"/>
<circle id="XMLID_481_" class="st1" cx="49.8" cy="48.5" r="35.2"/>
<polygon id="XMLID_480_" points="87.7,94 14.4,94 18.8,88 14.4,82 87.7,82 83.3,88 "/>
<circle id="XMLID_479_" class="st2" cx="50" cy="48.3" r="44.7"/>
<circle id="XMLID_478_" class="st3" cx="49.8" cy="48.5" r="35.2"/>
<polygon id="XMLID_477_" points="87.7,94 14.4,94 18.8,88 14.4,82 87.7,82 83.3,88 "/>
<g id="XMLID_59_">
	<path id="XMLID_2_" class="st4" d="M30.3,91h-0.6v-4.9h0.6V91z"/>
	<path id="XMLID_4_" class="st4" d="M32,87.3l0,0.5c0.3-0.4,0.6-0.5,1.1-0.5c0.8,0,1.2,0.4,1.2,1.3V91h-0.6v-2.4
		c0-0.3-0.1-0.5-0.2-0.6c-0.1-0.1-0.3-0.2-0.6-0.2c-0.2,0-0.4,0.1-0.5,0.2c-0.2,0.1-0.3,0.3-0.4,0.4V91h-0.6v-3.7H32z"/>
	<path id="XMLID_6_" class="st4" d="M35.6,91v-3.2H35v-0.5h0.6v-0.4c0-0.4,0.1-0.7,0.3-0.9c0.2-0.2,0.5-0.3,0.9-0.3
		c0.1,0,0.3,0,0.4,0.1l0,0.5c-0.1,0-0.2,0-0.3,0c-0.2,0-0.4,0.1-0.5,0.2c-0.1,0.1-0.2,0.3-0.2,0.5v0.4H37v0.5h-0.8V91H35.6z"/>
	<path id="XMLID_8_" class="st4" d="M39.4,87.9c-0.1,0-0.2,0-0.3,0c-0.4,0-0.7,0.2-0.8,0.5V91h-0.6v-3.7h0.6l0,0.4
		c0.2-0.3,0.5-0.5,0.9-0.5c0.1,0,0.2,0,0.3,0V87.9z"/>
	<path id="XMLID_10_" class="st4" d="M42.1,91c0-0.1-0.1-0.2-0.1-0.4c-0.3,0.3-0.6,0.5-1,0.5c-0.4,0-0.7-0.1-0.9-0.3
		c-0.2-0.2-0.3-0.5-0.3-0.8c0-0.4,0.1-0.7,0.4-0.9s0.7-0.3,1.2-0.3H42v-0.3c0-0.2-0.1-0.4-0.2-0.5s-0.3-0.2-0.6-0.2
		c-0.2,0-0.4,0.1-0.6,0.2c-0.2,0.1-0.2,0.2-0.2,0.4h-0.6c0-0.2,0.1-0.4,0.2-0.5c0.1-0.2,0.3-0.3,0.5-0.4c0.2-0.1,0.5-0.1,0.7-0.1
		c0.4,0,0.8,0.1,1,0.3s0.4,0.5,0.4,0.9v1.7c0,0.3,0,0.6,0.1,0.8V91H42.1z M41.1,90.5c0.2,0,0.4-0.1,0.6-0.2c0.2-0.1,0.3-0.2,0.4-0.4
		v-0.8h-0.5c-0.8,0-1.2,0.2-1.2,0.7c0,0.2,0.1,0.3,0.2,0.5C40.7,90.4,40.9,90.5,41.1,90.5z"/>
	<path id="XMLID_13_" class="st4" d="M45.8,90c0-0.2-0.1-0.3-0.2-0.4s-0.4-0.2-0.7-0.2c-0.3-0.1-0.6-0.1-0.8-0.2s-0.3-0.2-0.4-0.3
		s-0.1-0.3-0.1-0.5c0-0.3,0.1-0.6,0.4-0.8c0.3-0.2,0.6-0.3,1-0.3c0.4,0,0.8,0.1,1,0.3c0.3,0.2,0.4,0.5,0.4,0.8h-0.6
		c0-0.2-0.1-0.3-0.2-0.4s-0.3-0.2-0.6-0.2c-0.2,0-0.4,0-0.5,0.1c-0.1,0.1-0.2,0.2-0.2,0.4c0,0.2,0.1,0.3,0.2,0.3s0.3,0.2,0.6,0.2
		c0.3,0.1,0.6,0.2,0.8,0.3c0.2,0.1,0.3,0.2,0.4,0.4c0.1,0.1,0.1,0.3,0.1,0.5c0,0.3-0.1,0.6-0.4,0.8S45.4,91,45,91
		c-0.3,0-0.6-0.1-0.8-0.2c-0.2-0.1-0.4-0.2-0.5-0.4c-0.1-0.2-0.2-0.4-0.2-0.6h0.6c0,0.2,0.1,0.4,0.3,0.5s0.4,0.2,0.6,0.2
		c0.2,0,0.4,0,0.6-0.1C45.7,90.3,45.8,90.2,45.8,90z"/>
	<path id="XMLID_15_" class="st4" d="M48.1,86.4v0.9h0.7v0.5h-0.7v2.3c0,0.1,0,0.3,0.1,0.3s0.2,0.1,0.3,0.1c0.1,0,0.2,0,0.3,0V91
		c-0.2,0-0.3,0.1-0.5,0.1c-0.3,0-0.5-0.1-0.6-0.3c-0.1-0.2-0.2-0.4-0.2-0.7v-2.3h-0.7v-0.5h0.7v-0.9H48.1z"/>
	<path id="XMLID_17_" class="st4" d="M51.3,87.9c-0.1,0-0.2,0-0.3,0c-0.4,0-0.7,0.2-0.8,0.5V91h-0.6v-3.7h0.6l0,0.4
		c0.2-0.3,0.5-0.5,0.9-0.5c0.1,0,0.2,0,0.3,0V87.9z"/>
	<path id="XMLID_19_" class="st4" d="M54.1,90.6C53.9,90.9,53.5,91,53,91c-0.4,0-0.7-0.1-0.9-0.3c-0.2-0.2-0.3-0.6-0.3-1v-2.4h0.6
		v2.4c0,0.6,0.2,0.8,0.7,0.8c0.5,0,0.8-0.2,1-0.5v-2.7h0.6V91h-0.6L54.1,90.6z"/>
	<path id="XMLID_22_" class="st4" d="M57.1,90.5c0.2,0,0.4-0.1,0.6-0.2S58,90,58,89.8h0.6c0,0.2-0.1,0.4-0.2,0.6
		c-0.1,0.2-0.3,0.3-0.5,0.5C57.6,91,57.4,91,57.1,91c-0.5,0-0.9-0.2-1.2-0.5c-0.3-0.3-0.4-0.8-0.4-1.4v-0.1c0-0.4,0.1-0.7,0.2-1
		c0.1-0.3,0.3-0.5,0.6-0.6c0.2-0.2,0.5-0.2,0.9-0.2c0.4,0,0.8,0.1,1,0.4s0.4,0.6,0.4,1H58c0-0.2-0.1-0.4-0.3-0.6s-0.4-0.2-0.6-0.2
		c-0.3,0-0.6,0.1-0.7,0.3c-0.2,0.2-0.3,0.6-0.3,1v0.1c0,0.4,0.1,0.7,0.3,1C56.6,90.4,56.8,90.5,57.1,90.5z"/>
	<path id="XMLID_24_" class="st4" d="M60.1,86.4v0.9h0.7v0.5h-0.7v2.3c0,0.1,0,0.3,0.1,0.3s0.2,0.1,0.3,0.1c0.1,0,0.2,0,0.3,0V91
		c-0.2,0-0.3,0.1-0.5,0.1c-0.3,0-0.5-0.1-0.6-0.3c-0.1-0.2-0.2-0.4-0.2-0.7v-2.3h-0.7v-0.5h0.7v-0.9H60.1z"/>
	<path id="XMLID_26_" class="st4" d="M63.8,90.6c-0.2,0.3-0.6,0.4-1.1,0.4c-0.4,0-0.7-0.1-0.9-0.3c-0.2-0.2-0.3-0.6-0.3-1v-2.4h0.6
		v2.4c0,0.6,0.2,0.8,0.7,0.8c0.5,0,0.8-0.2,1-0.5v-2.7h0.6V91h-0.6L63.8,90.6z"/>
	<path id="XMLID_28_" class="st4" d="M67.1,87.9c-0.1,0-0.2,0-0.3,0c-0.4,0-0.7,0.2-0.8,0.5V91h-0.6v-3.7H66l0,0.4
		c0.2-0.3,0.5-0.5,0.9-0.5c0.1,0,0.2,0,0.3,0V87.9z"/>
	<path id="XMLID_30_" class="st4" d="M69.2,91c-0.5,0-0.9-0.2-1.2-0.5s-0.5-0.8-0.5-1.3v-0.1c0-0.4,0.1-0.7,0.2-1
		c0.1-0.3,0.3-0.5,0.6-0.7c0.2-0.2,0.5-0.2,0.8-0.2c0.5,0,0.8,0.2,1.1,0.5c0.3,0.3,0.4,0.8,0.4,1.3v0.3h-2.5c0,0.4,0.1,0.7,0.3,0.9
		c0.2,0.2,0.5,0.3,0.8,0.3c0.2,0,0.4,0,0.6-0.1c0.2-0.1,0.3-0.2,0.4-0.4l0.4,0.3C70.3,90.8,69.9,91,69.2,91z M69.2,87.8
		c-0.3,0-0.5,0.1-0.6,0.3c-0.2,0.2-0.3,0.4-0.3,0.8H70v0c0-0.3-0.1-0.6-0.3-0.7S69.4,87.8,69.2,87.8z"/>
</g>
<path id="XMLID_62_" class="st5" d="M55.6,52.7c-0.4,1,0.3,2.2,1.3,2.4c3.7,0.8,6.9,0.2,7.6-1.7c0.6-1.9-1.5-4.3-4.9-6
	c-1-0.5-2.2,0.1-2.5,1.1l-0.6,1.6l-2-0.6c0-0.1,0-0.2-0.1-0.3c0,0-2.6-4.8-2.6-4.9l-1.4-6l0,0l0,0c-0.7-0.9-1.4-1.6-2.2-2.2
	c1.4-0.4,2.7-1.7,3.2-3.5c0.8-2.6-0.4-4.5-2.5-5.1c-2.1-0.6-4.2,0.3-5,2.9c-0.5,1.7-0.2,3.3,0.6,4.4c-1-0.1-2,0-3,0.2L35,36.9
	c-0.1,0-0.2,0.1-0.3,0.2L32,42.5l-3.1-1.1l-0.3,1l3,1l0,0c-0.3,0.6,0,1.3,0.6,1.5l0,0c0.5,0.2,1.1,0,1.3-0.5l0.2-0.4l3.9,1.2
	l-1.6,4.2l-1.1,6c0,0.3-0.2,0.5-0.4,0.7c0,0-4.8,5.6-6.5,7.6c-0.4,0.5-0.6,1.1-0.6,1.7c0,0,0,0,0,0c0,0.6,0.5,1,1,1h0.9
	c0.6,0,1.2-0.2,1.7-0.7l7.3-7c0.2-0.1,0.3-0.3,0.4-0.5l2.7-6.2l3.4,4.5c0.1,0.1,0.1,0.2,0.2,0.3l2.9,8.5c0.2,0.6,0.8,1.1,1.5,1.1
	h1.3c0.5,0,0.9-0.5,0.8-0.9c-0.5-2.6-2.1-9.7-2.1-9.7c0-0.1,0-0.1-0.1-0.2l-2.9-6.2c-0.1-0.1-0.1-0.2,0-0.3l0.3-0.9l5.3,1.7
	c0.3,0.4,0.4,0.6,0.4,0.6c0.3,0.4,0.9,0.5,1.3,0.1l0.1-0.1l2.1,0.7L55.6,52.7z M38,44.4l-3.8-1.2l1.9-3.3c0.1-0.1,0.2-0.2,0.3-0.2
	l3.7-0.9L38,44.4z M47.2,47.3l1.3-3.5l0.5,1.9c0,0.1,1.1,1.5,2.1,2.8L47.2,47.3z"/>
<path id="XMLID_67_" class="st6" d="M53.9,31.5l-1.7-0.4c0.5-2.3-1-4.5-3.2-5c-2.3-0.5-4.5,0.9-5.1,3.1l0,0.1l-0.3,1.4
	c0,0.2,0.1,0.4,0.3,0.5l7.6,1.7l2.1,0.5c0.5,0.1,1-0.2,1.1-0.7S54.5,31.6,53.9,31.5z"/>
<path id="XMLID_61_" class="st7" d="M72.3,65.8c-0.9-1.6-2.4-2.8-3.1-4.6c-0.3-0.8-0.5-1.8-1-2.5c-0.2-0.3-0.5-0.6-0.9-0.8
	c-0.9-0.7-2.2-1.3-3.3-0.9c-0.5,0.2-0.6,0.3-1.3,0.9s-0.8,1.5-1.4,2.7c-0.6,1.1-1.4,1.8-3,1.8c-1.6,0-3.8,2-3.6,4
	c0,0.1,0,0.2,0.1,0.3h17.7C72.6,66.3,72.4,66,72.3,65.8C71.4,64.2,72.4,66,72.3,65.8z"/>
</svg>
