<?xml version="1.0" encoding="utf-8"?>
<!-- Generator: Adobe Illustrator 19.0.0, SVG Export Plug-In . SVG Version: 6.00 Build 0)  -->
<svg version="1.1" id="Layer_1" xmlns="http://www.w3.org/2000/svg" xmlns:xlink="http://www.w3.org/1999/xlink" x="0px" y="0px"
	 viewBox="0 0 100 100" style="enable-background:new 0 0 100 100;" xml:space="preserve">
<style type="text/css">
	.st0{fill:#FF4D00;}
	.st1{opacity:0.43;fill:#E8E8E8;}
	.st2{fill:#FFFFFF;}
	.st3{fill:#BDBDBD;}
	.st4{fill:#636363;}
	.st5{fill:#CCCCCC;}
</style>
<circle id="XMLID_894_" class="st0" cx="50" cy="50" r="44.7"/>
<circle id="XMLID_893_" class="st1" cx="49.8" cy="50.1" r="35.2"/>
<rect id="XMLID_891_" x="24" y="33.7" transform="matrix(0.9848 -0.1736 0.1736 0.9848 -7.8433 8.7352)" class="st2" width="44" height="31"/>
<rect id="XMLID_890_" x="26.7" y="35.9" transform="matrix(0.9856 -0.169 0.169 0.9856 -8.0531 8.7325)" class="st3" width="41.1" height="31.5"/>
<rect id="XMLID_889_" x="28.6" y="37.6" transform="matrix(0.9861 -0.1663 0.1663 0.9861 -8.1221 8.9873)" class="st2" width="42.1" height="30.9"/>
<g id="XMLID_871_">
	<g id="XMLID_880_">
		<path id="XMLID_887_" class="st4" d="M31.6,50.5l-1-5.7l0.8-0.1l2.3,2.6c0.5,0.6,1,1.1,1.3,1.7l0,0c-0.2-0.8-0.3-1.4-0.5-2.3
			l-0.4-2.4l0.7-0.1l1,5.7l-0.7,0.1l-2.3-2.6c-0.5-0.6-1-1.2-1.4-1.7l0,0c0.2,0.7,0.3,1.4,0.5,2.3l0.4,2.4L31.6,50.5z"/>
		<path id="XMLID_885_" class="st4" d="M39.7,46.3l-2.2,0.4l0.3,2.1l2.5-0.4l0.1,0.6l-3.2,0.5l-1-5.7l3.1-0.5l0.1,0.6l-2.4,0.4
			l0.3,1.8l2.2-0.4L39.7,46.3z"/>
		<path id="XMLID_883_" class="st4" d="M42.4,48.6L40,43.2l0.8-0.1l1.2,2.8c0.3,0.7,0.6,1.4,0.8,1.9l0,0c0-0.6,0.1-1.3,0.1-2.1
			l0.3-3l0.8-0.1l1.2,2.8c0.3,0.7,0.5,1.3,0.7,1.9l0,0c0-0.6,0.1-1.3,0.1-2.1l0.3-3L47,42l-0.7,6l-0.8,0.1l-1.2-2.9
			c-0.3-0.7-0.5-1.2-0.7-1.8l0,0c0,0.6,0,1.2-0.1,1.9l-0.3,3.1L42.4,48.6z"/>
		<path id="XMLID_881_" class="st4" d="M48.4,46.7c0.4,0.1,0.9,0.2,1.4,0.2c0.8-0.1,1.1-0.6,1-1.2c-0.1-0.5-0.4-0.8-1.3-1
			c-1-0.2-1.6-0.6-1.8-1.4c-0.2-0.9,0.5-1.7,1.6-1.9c0.6-0.1,1,0,1.3,0.1l-0.1,0.6c-0.2-0.1-0.6-0.2-1.1-0.1c-0.8,0.1-1,0.6-0.9,1
			c0.1,0.5,0.5,0.7,1.3,0.9c1,0.2,1.6,0.6,1.7,1.4c0.1,0.9-0.4,1.8-1.7,2c-0.6,0.1-1.2,0-1.5-0.1L48.4,46.7z"/>
	</g>
	
		<rect id="XMLID_879_" x="32" y="53.1" transform="matrix(0.9861 -0.1663 0.1663 0.9861 -8.4391 7.402)" class="st4" width="15.9" height="2"/>
	
		<rect id="XMLID_878_" x="50.8" y="49.9" transform="matrix(0.9861 -0.1662 0.1662 0.9861 -7.6508 10.4697)" class="st4" width="15.9" height="2"/>
	
		<rect id="XMLID_877_" x="32.6" y="56.4" transform="matrix(0.9861 -0.1662 0.1662 0.9861 -8.9843 7.5394)" class="st4" width="15.9" height="2"/>
	
		<rect id="XMLID_876_" x="51.3" y="53.3" transform="matrix(0.9861 -0.1662 0.1662 0.9861 -8.1991 10.6099)" class="st4" width="15.9" height="2"/>
	
		<rect id="XMLID_875_" x="33.3" y="60.4" transform="matrix(0.9861 -0.1663 0.1663 0.9861 -9.6489 7.7141)" class="st4" width="15.9" height="2"/>
	
		<rect id="XMLID_874_" x="52" y="57.3" transform="matrix(0.9861 -0.1663 0.1663 0.9861 -8.862 10.7858)" class="st4" width="15.9" height="2"/>
	
		<rect id="XMLID_873_" x="33.8" y="63.8" transform="matrix(0.9861 -0.1663 0.1663 0.9861 -10.1945 7.8517)" class="st4" width="15.9" height="2"/>
	
		<rect id="XMLID_872_" x="52.6" y="60.6" transform="matrix(0.9861 -0.1663 0.1663 0.9861 -9.4106 10.9262)" class="st4" width="15.9" height="2"/>
</g>
<path id="XMLID_870_" class="st5" d="M62.9,25.4c-5.6,0-10.2,3.5-10.2,7.9c0,3.3,2.6,6,6.2,7.2c-0.1,1.5-0.5,3.1-1.6,3.6
	c0,0,3.4-1.2,5.3-3c0.1,0,0.2,0,0.2,0c5.6,0,10.2-3.5,10.2-7.9C73.1,28.9,68.5,25.4,62.9,25.4z"/>
</svg>
