<?xml version="1.0" encoding="utf-8"?>
<!-- Generator: Adobe Illustrator 19.0.0, SVG Export Plug-In . SVG Version: 6.00 Build 0)  -->
<svg version="1.1" id="Layer_1" xmlns="http://www.w3.org/2000/svg" xmlns:xlink="http://www.w3.org/1999/xlink" x="0px" y="0px"
	 viewBox="0 0 100 100" style="enable-background:new 0 0 100 100;" xml:space="preserve">
<style type="text/css">
	.st0{fill:#FF4D00;}
	.st1{opacity:0.43;fill:#E8E8E8;}
	.st2{fill:#FFFFFF;}
	.st3{fill:#BDBDBD;}
	.st4{fill:#636363;}
	.st5{fill:#CCCCCC;}
	.st6{fill:#F2F2F2;}
</style>
<circle id="XMLID_422_" class="st0" cx="50" cy="48.3" r="44.7"/>
<circle id="XMLID_421_" class="st1" cx="49.8" cy="48.5" r="35.2"/>
<polygon id="XMLID_420_" points="87.7,94 14.4,94 18.8,88 14.4,82 87.7,82 83.3,88 "/>
<rect id="XMLID_766_" x="24" y="32" transform="matrix(0.9848 -0.1736 0.1736 0.9848 -7.5568 8.7101)" class="st2" width="44" height="31"/>
<rect id="XMLID_765_" x="26.7" y="34.3" transform="matrix(0.9856 -0.169 0.169 0.9856 -7.7742 8.7088)" class="st3" width="41.1" height="31.5"/>
<rect id="XMLID_764_" x="28.6" y="35.9" transform="matrix(0.9861 -0.1663 0.1663 0.9861 -7.8478 8.9643)" class="st2" width="42.1" height="30.9"/>
<g id="XMLID_730_">
	<g id="XMLID_739_">
		<path id="XMLID_762_" class="st4" d="M31.6,48.8l-1-5.7l0.8-0.1l2.3,2.6c0.5,0.6,1,1.1,1.3,1.7l0,0c-0.2-0.8-0.3-1.4-0.5-2.3
			l-0.4-2.4l0.7-0.1l1,5.7l-0.7,0.1l-2.3-2.6c-0.5-0.6-1-1.2-1.4-1.7l0,0c0.2,0.7,0.3,1.4,0.5,2.3l0.4,2.4L31.6,48.8z"/>
		<path id="XMLID_760_" class="st4" d="M39.7,44.7l-2.2,0.4l0.3,2.1l2.5-0.4l0.1,0.6l-3.2,0.5l-1-5.7l3.1-0.5l0.1,0.6l-2.4,0.4
			l0.3,1.8l2.2-0.4L39.7,44.7z"/>
		<path id="XMLID_742_" class="st4" d="M42.4,47L40,41.5l0.8-0.1l1.2,2.8c0.3,0.7,0.6,1.4,0.8,1.9l0,0c0-0.6,0.1-1.3,0.1-2.1l0.3-3
			l0.8-0.1l1.2,2.8c0.3,0.7,0.5,1.3,0.7,1.9l0,0c0-0.6,0.1-1.3,0.1-2.1l0.3-3l0.8-0.1l-0.7,6l-0.8,0.1l-1.2-2.9
			c-0.3-0.7-0.5-1.2-0.7-1.8l0,0c0,0.6,0,1.2-0.1,1.9l-0.3,3.1L42.4,47z"/>
		<path id="XMLID_740_" class="st4" d="M48.4,45.1c0.4,0.1,0.9,0.2,1.4,0.2c0.8-0.1,1.1-0.6,1-1.2c-0.1-0.5-0.4-0.8-1.3-1
			c-1-0.2-1.6-0.6-1.8-1.4c-0.2-0.9,0.5-1.7,1.6-1.9c0.6-0.1,1,0,1.3,0.1l-0.1,0.6c-0.2-0.1-0.6-0.2-1.1-0.1c-0.8,0.1-1,0.6-0.9,1
			c0.1,0.5,0.5,0.7,1.3,0.9c1,0.2,1.6,0.6,1.7,1.4c0.1,0.9-0.4,1.8-1.7,2c-0.6,0.1-1.2,0-1.5-0.1L48.4,45.1z"/>
	</g>
	
		<rect id="XMLID_738_" x="32" y="51.4" transform="matrix(0.9861 -0.1663 0.1663 0.9861 -8.1648 7.379)" class="st4" width="15.9" height="2"/>
	
		<rect id="XMLID_737_" x="50.8" y="48.3" transform="matrix(0.9861 -0.1662 0.1662 0.9861 -7.3766 10.4468)" class="st4" width="15.9" height="2"/>
	
		<rect id="XMLID_736_" x="32.6" y="54.8" transform="matrix(0.9861 -0.1662 0.1662 0.9861 -8.7101 7.5164)" class="st4" width="15.9" height="2"/>
	
		<rect id="XMLID_735_" x="51.3" y="51.6" transform="matrix(0.9861 -0.1662 0.1662 0.9861 -7.9248 10.587)" class="st4" width="15.9" height="2"/>
	
		<rect id="XMLID_734_" x="33.3" y="58.8" transform="matrix(0.9861 -0.1663 0.1663 0.9861 -9.3745 7.6911)" class="st4" width="15.9" height="2"/>
	
		<rect id="XMLID_733_" x="52" y="55.6" transform="matrix(0.9861 -0.1663 0.1663 0.9861 -8.5876 10.7628)" class="st4" width="15.9" height="2"/>
	
		<rect id="XMLID_732_" x="33.8" y="62.1" transform="matrix(0.9861 -0.1663 0.1663 0.9861 -9.9202 7.8287)" class="st4" width="15.9" height="2"/>
	
		<rect id="XMLID_731_" x="52.6" y="59" transform="matrix(0.9861 -0.1663 0.1663 0.9861 -9.1362 10.9033)" class="st4" width="15.9" height="2"/>
</g>
<path id="XMLID_964_" class="st5" d="M62.9,23.7c-5.6,0-10.2,3.5-10.2,7.9c0,3.3,2.6,6,6.2,7.2c-0.1,1.5-0.5,3.1-1.6,3.6
	c0,0,3.4-1.2,5.3-3c0.1,0,0.2,0,0.2,0c5.6,0,10.2-3.5,10.2-7.9C73.1,27.3,68.5,23.7,62.9,23.7z"/>
<g id="XMLID_1002_">
	<path id="XMLID_2_" class="st6" d="M37,91h-0.7l-2.5-3.8V91h-0.7v-4.9h0.7l2.5,3.8v-3.8H37V91z"/>
	<path id="XMLID_4_" class="st6" d="M39.6,91c-0.5,0-0.9-0.2-1.2-0.5c-0.3-0.3-0.5-0.8-0.5-1.3v-0.1c0-0.4,0.1-0.7,0.2-1
		s0.3-0.5,0.6-0.7c0.2-0.2,0.5-0.2,0.8-0.2c0.5,0,0.8,0.2,1.1,0.5c0.3,0.3,0.4,0.8,0.4,1.3v0.3h-2.5c0,0.4,0.1,0.7,0.3,0.9
		c0.2,0.2,0.5,0.3,0.8,0.3c0.2,0,0.4,0,0.6-0.1c0.2-0.1,0.3-0.2,0.4-0.4l0.4,0.3C40.7,90.8,40.2,91,39.6,91z M39.5,87.8
		c-0.3,0-0.5,0.1-0.6,0.3c-0.2,0.2-0.3,0.4-0.3,0.8h1.8v0c0-0.3-0.1-0.6-0.3-0.7S39.8,87.8,39.5,87.8z"/>
	<path id="XMLID_7_" class="st6" d="M45,90.1l0.7-2.8h0.6L45.3,91h-0.5l-0.9-2.8L43,91h-0.5l-1.1-3.7h0.6l0.7,2.7l0.9-2.7h0.5
		L45,90.1z"/>
	<path id="XMLID_9_" class="st6" d="M49.6,86.1l1.6,4l1.6-4h0.8V91h-0.7v-1.9l0.1-2.1l-1.6,4H51l-1.6-4l0.1,2.1V91h-0.6v-4.9H49.6z"
		/>
	<path id="XMLID_11_" class="st6" d="M56.3,91c-0.5,0-0.9-0.2-1.2-0.5s-0.5-0.8-0.5-1.3v-0.1c0-0.4,0.1-0.7,0.2-1
		c0.1-0.3,0.3-0.5,0.6-0.7c0.2-0.2,0.5-0.2,0.8-0.2c0.5,0,0.8,0.2,1.1,0.5c0.3,0.3,0.4,0.8,0.4,1.3v0.3h-2.5c0,0.4,0.1,0.7,0.3,0.9
		c0.2,0.2,0.5,0.3,0.8,0.3c0.2,0,0.4,0,0.6-0.1c0.2-0.1,0.3-0.2,0.4-0.4l0.4,0.3C57.3,90.8,56.9,91,56.3,91z M56.2,87.8
		c-0.3,0-0.5,0.1-0.6,0.3c-0.2,0.2-0.3,0.4-0.3,0.8h1.8v0c0-0.3-0.1-0.6-0.3-0.7S56.5,87.8,56.2,87.8z"/>
	<path id="XMLID_14_" class="st6" d="M58.3,89.1c0-0.6,0.1-1,0.4-1.4c0.3-0.3,0.6-0.5,1-0.5c0.4,0,0.8,0.1,1,0.4v-1.9h0.6V91h-0.6
		l0-0.4c-0.3,0.3-0.6,0.5-1,0.5c-0.4,0-0.8-0.2-1-0.5C58.4,90.2,58.3,89.7,58.3,89.1L58.3,89.1z M58.9,89.2c0,0.4,0.1,0.7,0.3,1
		c0.2,0.2,0.4,0.4,0.7,0.4c0.4,0,0.7-0.2,0.9-0.5v-1.7c-0.2-0.3-0.5-0.5-0.9-0.5c-0.3,0-0.5,0.1-0.7,0.4S58.9,88.7,58.9,89.2z"/>
	<path id="XMLID_18_" class="st6" d="M62.3,86.3c0-0.1,0-0.2,0.1-0.3c0.1-0.1,0.2-0.1,0.3-0.1c0.1,0,0.2,0,0.3,0.1
		c0.1,0.1,0.1,0.2,0.1,0.3s0,0.2-0.1,0.3c-0.1,0.1-0.2,0.1-0.3,0.1c-0.1,0-0.2,0-0.3-0.1C62.4,86.5,62.3,86.4,62.3,86.3z M63,91
		h-0.6v-3.7H63V91z"/>
	<path id="XMLID_21_" class="st6" d="M66.3,91c0-0.1-0.1-0.2-0.1-0.4c-0.3,0.3-0.6,0.5-1,0.5c-0.4,0-0.7-0.1-0.9-0.3
		c-0.2-0.2-0.3-0.5-0.3-0.8c0-0.4,0.1-0.7,0.4-0.9s0.7-0.3,1.2-0.3h0.6v-0.3c0-0.2-0.1-0.4-0.2-0.5s-0.3-0.2-0.6-0.2
		c-0.2,0-0.4,0.1-0.6,0.2c-0.2,0.1-0.2,0.2-0.2,0.4H64c0-0.2,0.1-0.4,0.2-0.5c0.1-0.2,0.3-0.3,0.5-0.4c0.2-0.1,0.5-0.1,0.7-0.1
		c0.4,0,0.8,0.1,1,0.3c0.2,0.2,0.4,0.5,0.4,0.9v1.7c0,0.3,0,0.6,0.1,0.8V91H66.3z M65.2,90.5c0.2,0,0.4-0.1,0.6-0.2s0.3-0.2,0.4-0.4
		v-0.8h-0.5c-0.8,0-1.2,0.2-1.2,0.7c0,0.2,0.1,0.3,0.2,0.5C64.9,90.4,65,90.5,65.2,90.5z"/>
</g>
</svg>
