<?xml version="1.0" encoding="utf-8"?>
<!-- Generator: Adobe Illustrator 19.0.0, SVG Export Plug-In . SVG Version: 6.00 Build 0)  -->
<svg version="1.1" id="Layer_1" xmlns="http://www.w3.org/2000/svg" xmlns:xlink="http://www.w3.org/1999/xlink" x="0px" y="0px"
	 viewBox="0 0 100 100" style="enable-background:new 0 0 100 100;" xml:space="preserve">
<style type="text/css">
	.st0{fill:#33454C;}
	.st1{fill:#00A199;}
	.st2{fill:#B91C22;}
	.st3{opacity:0.43;fill:#E8E8E8;}
	.st4{fill:#CBD4D8;}
	.st5{fill:#FFFFFF;}
	.st6{fill:#A9B8BE;}
	.st7{fill:#EAECEE;}
	.st8{fill:#404040;}
</style>
<circle id="XMLID_659_" class="st0" cx="50" cy="50" r="44.7"/>
<circle id="XMLID_658_" class="st1" cx="49.8" cy="50.1" r="35.2"/>
<circle id="XMLID_656_" class="st2" cx="50" cy="50" r="44.7"/>
<circle id="XMLID_655_" class="st3" cx="49.8" cy="50.1" r="35.2"/>
<rect id="XMLID_653_" x="28.3" y="37.6" class="st4" width="43.4" height="3"/>
<polygon id="XMLID_652_" class="st5" points="25.4,37.6 74.6,37.6 50,23.5 "/>
<rect id="XMLID_651_" x="32.3" y="40.5" class="st5" width="6.5" height="20.6"/>
<rect id="XMLID_650_" x="30.5" y="61.2" class="st6" width="9.7" height="2"/>
<rect id="XMLID_649_" x="47.1" y="40.5" class="st5" width="6.5" height="20.6"/>
<rect id="XMLID_648_" x="45.3" y="61.2" class="st6" width="9.6" height="2"/>
<rect id="XMLID_647_" x="62.3" y="40.5" class="st5" width="6.5" height="20.6"/>
<rect id="XMLID_646_" x="60.5" y="61.2" class="st6" width="9.7" height="2"/>
<rect id="XMLID_645_" x="27.3" y="63.2" class="st7" width="45.5" height="2.5"/>
<rect id="XMLID_644_" x="23.2" y="65.7" class="st8" width="53.6" height="4.2"/>
<path id="XMLID_643_" class="st8" d="M52.9,32.2c0,1.6-1.3,2.9-2.9,2.9c-1.6,0-2.9-1.3-2.9-2.9c0-1.6,1.3-2.9,2.9-2.9
	C51.6,29.3,52.9,30.6,52.9,32.2"/>
</svg>
