<?xml version="1.0" encoding="utf-8"?>
<!-- Generator: Adobe Illustrator 19.0.0, SVG Export Plug-In . SVG Version: 6.00 Build 0)  -->
<svg version="1.1" id="Layer_1" xmlns="http://www.w3.org/2000/svg" xmlns:xlink="http://www.w3.org/1999/xlink" x="0px" y="0px"
	 viewBox="0 0 100 100" style="enable-background:new 0 0 100 100;" xml:space="preserve">
<style type="text/css">
	.st0{fill:#33454C;}
	.st1{fill:#00A199;}
	.st2{fill:#B91C22;}
	.st3{opacity:0.43;fill:#E8E8E8;}
	.st4{fill:#CBD4D8;}
	.st5{fill:#FFFFFF;}
	.st6{fill:#A9B8BE;}
	.st7{fill:#EAECEE;}
	.st8{fill:#404040;}
	.st9{fill:#F2F2F2;}
</style>
<circle id="XMLID_259_" class="st0" cx="50" cy="48.8" r="44.7"/>
<circle id="XMLID_211_" class="st1" cx="49.8" cy="49" r="35.2"/>
<polygon id="XMLID_158_" points="87.7,94.5 14.4,94.5 18.8,88.5 14.4,82.5 87.7,82.5 83.3,88.5 "/>
<circle id="XMLID_418_" class="st2" cx="50" cy="48.8" r="44.7"/>
<circle id="XMLID_417_" class="st3" cx="49.8" cy="49" r="35.2"/>
<polygon id="XMLID_416_" points="87.7,94.5 14.4,94.5 18.8,88.5 14.4,82.5 87.7,82.5 83.3,88.5 "/>
<rect id="XMLID_711_" x="28.3" y="36.4" class="st4" width="43.4" height="3"/>
<polygon id="XMLID_710_" class="st5" points="25.4,36.4 74.6,36.4 50,22.3 "/>
<rect id="XMLID_708_" x="32.3" y="39.4" class="st5" width="6.5" height="20.6"/>
<rect id="XMLID_707_" x="30.5" y="60" class="st6" width="9.7" height="2"/>
<rect id="XMLID_705_" x="47.1" y="39.4" class="st5" width="6.5" height="20.6"/>
<rect id="XMLID_704_" x="45.3" y="60" class="st6" width="9.6" height="2"/>
<rect id="XMLID_702_" x="62.3" y="39.4" class="st5" width="6.5" height="20.6"/>
<rect id="XMLID_701_" x="60.5" y="60" class="st6" width="9.7" height="2"/>
<rect id="XMLID_700_" x="27.3" y="62.1" class="st7" width="45.5" height="2.5"/>
<rect id="XMLID_699_" x="23.2" y="64.6" class="st8" width="53.6" height="4.2"/>
<path id="XMLID_697_" class="st8" d="M52.9,31.1c0,1.6-1.3,2.9-2.9,2.9c-1.6,0-2.9-1.3-2.9-2.9c0-1.6,1.3-2.9,2.9-2.9
	C51.6,28.2,52.9,29.5,52.9,31.1"/>
<g id="XMLID_988_">
	<path id="XMLID_2_" class="st9" d="M26.6,88.2c0,0.5-0.1,0.9-0.2,1.3s-0.4,0.6-0.7,0.8c-0.3,0.2-0.6,0.3-1,0.3
		c-0.4,0-0.7-0.1-1-0.3c-0.3-0.2-0.5-0.5-0.7-0.8c-0.2-0.4-0.3-0.8-0.3-1.2v-0.4c0-0.5,0.1-0.9,0.2-1.3c0.2-0.4,0.4-0.6,0.7-0.8
		c0.3-0.2,0.6-0.3,1-0.3c0.4,0,0.7,0.1,1,0.3c0.3,0.2,0.5,0.5,0.7,0.8c0.2,0.4,0.2,0.8,0.2,1.3V88.2z M25.9,87.9
		c0-0.6-0.1-1-0.4-1.3c-0.2-0.3-0.6-0.5-1-0.5c-0.4,0-0.7,0.2-1,0.5c-0.2,0.3-0.4,0.7-0.4,1.3v0.4c0,0.6,0.1,1,0.4,1.3
		c0.2,0.3,0.6,0.5,1,0.5c0.4,0,0.7-0.2,1-0.5c0.2-0.3,0.3-0.7,0.4-1.3V87.9z"/>
	<path id="XMLID_5_" class="st9" d="M30.6,88.7c0,0.6-0.1,1-0.4,1.3s-0.6,0.5-1,0.5c-0.4,0-0.8-0.1-1-0.4v1.8h-0.6v-5.1H28l0,0.4
		c0.3-0.3,0.6-0.5,1.1-0.5c0.4,0,0.8,0.2,1,0.5C30.4,87.6,30.6,88,30.6,88.7L30.6,88.7z M29.9,88.6c0-0.4-0.1-0.7-0.3-1
		c-0.2-0.2-0.4-0.4-0.7-0.4c-0.4,0-0.7,0.2-0.9,0.5v1.8c0.2,0.3,0.5,0.5,0.9,0.5c0.3,0,0.5-0.1,0.7-0.4S29.9,89.1,29.9,88.6z"/>
	<path id="XMLID_8_" class="st9" d="M32.9,90.5c-0.5,0-0.9-0.2-1.2-0.5c-0.3-0.3-0.5-0.8-0.5-1.3v-0.1c0-0.4,0.1-0.7,0.2-1
		s0.3-0.5,0.6-0.7c0.2-0.2,0.5-0.2,0.8-0.2c0.5,0,0.8,0.2,1.1,0.5c0.3,0.3,0.4,0.8,0.4,1.3v0.3h-2.5c0,0.4,0.1,0.7,0.3,0.9
		c0.2,0.2,0.5,0.3,0.8,0.3c0.2,0,0.4,0,0.6-0.1c0.2-0.1,0.3-0.2,0.4-0.4l0.4,0.3C34,90.3,33.5,90.5,32.9,90.5z M32.8,87.3
		c-0.3,0-0.5,0.1-0.6,0.3c-0.2,0.2-0.3,0.4-0.3,0.8h1.8v0c0-0.3-0.1-0.6-0.3-0.7S33.1,87.3,32.8,87.3z"/>
	<path id="XMLID_11_" class="st9" d="M35.6,86.8l0,0.5c0.3-0.4,0.6-0.5,1.1-0.5c0.8,0,1.2,0.4,1.2,1.3v2.4h-0.6v-2.4
		c0-0.3-0.1-0.5-0.2-0.6c-0.1-0.1-0.3-0.2-0.6-0.2c-0.2,0-0.4,0.1-0.5,0.2c-0.2,0.1-0.3,0.3-0.4,0.4v2.6H35v-3.7H35.6z"/>
	<path id="XMLID_13_" class="st9" d="M44.3,89.8c-0.2,0.2-0.4,0.4-0.7,0.5c-0.3,0.1-0.6,0.2-1,0.2c-0.4,0-0.8-0.1-1.1-0.3
		c-0.3-0.2-0.6-0.5-0.7-0.8c-0.2-0.3-0.3-0.8-0.3-1.2v-0.4c0-0.7,0.2-1.3,0.5-1.7c0.3-0.4,0.8-0.6,1.5-0.6c0.5,0,0.9,0.1,1.2,0.4
		c0.3,0.3,0.5,0.6,0.6,1.1h-0.6c-0.1-0.7-0.5-1-1.2-1c-0.4,0-0.8,0.2-1,0.5c-0.2,0.3-0.3,0.7-0.3,1.3v0.4c0,0.6,0.1,1,0.4,1.3
		c0.3,0.3,0.6,0.5,1,0.5c0.2,0,0.5,0,0.6-0.1c0.2-0.1,0.3-0.1,0.5-0.3v-1.1h-1.1V88h1.8V89.8z"/>
	<path id="XMLID_16_" class="st9" d="M45.1,88.6c0-0.4,0.1-0.7,0.2-1c0.1-0.3,0.3-0.5,0.6-0.7c0.3-0.2,0.5-0.2,0.9-0.2
		c0.5,0,0.9,0.2,1.2,0.5c0.3,0.3,0.5,0.8,0.5,1.4v0c0,0.4-0.1,0.7-0.2,1c-0.1,0.3-0.3,0.5-0.6,0.7c-0.3,0.2-0.5,0.2-0.9,0.2
		c-0.5,0-0.9-0.2-1.2-0.5S45.1,89.2,45.1,88.6L45.1,88.6z M45.8,88.7c0,0.4,0.1,0.7,0.3,1s0.4,0.4,0.8,0.4c0.3,0,0.6-0.1,0.8-0.4
		c0.2-0.2,0.3-0.6,0.3-1c0-0.4-0.1-0.7-0.3-1c-0.2-0.2-0.4-0.4-0.8-0.4c-0.3,0-0.6,0.1-0.7,0.4C45.9,87.9,45.8,88.2,45.8,88.7z"/>
	<path id="XMLID_19_" class="st9" d="M50.4,89.6l0.9-2.8H52l-1.3,3.7h-0.5l-1.3-3.7h0.6L50.4,89.6z"/>
	<path id="XMLID_21_" class="st9" d="M54.1,90.5c-0.5,0-0.9-0.2-1.2-0.5s-0.5-0.8-0.5-1.3v-0.1c0-0.4,0.1-0.7,0.2-1
		c0.1-0.3,0.3-0.5,0.6-0.7c0.2-0.2,0.5-0.2,0.8-0.2c0.5,0,0.8,0.2,1.1,0.5c0.3,0.3,0.4,0.8,0.4,1.3v0.3H53c0,0.4,0.1,0.7,0.3,0.9
		c0.2,0.2,0.5,0.3,0.8,0.3c0.2,0,0.4,0,0.6-0.1c0.2-0.1,0.3-0.2,0.4-0.4l0.4,0.3C55.2,90.3,54.7,90.5,54.1,90.5z M54,87.3
		c-0.3,0-0.5,0.1-0.6,0.3c-0.2,0.2-0.3,0.4-0.3,0.8h1.8v0c0-0.3-0.1-0.6-0.3-0.7S54.3,87.3,54,87.3z"/>
	<path id="XMLID_24_" class="st9" d="M58,87.4c-0.1,0-0.2,0-0.3,0c-0.4,0-0.7,0.2-0.8,0.5v2.6h-0.6v-3.7h0.6l0,0.4
		c0.2-0.3,0.5-0.5,0.9-0.5c0.1,0,0.2,0,0.3,0V87.4z"/>
	<path id="XMLID_26_" class="st9" d="M59.2,86.8l0,0.5c0.3-0.4,0.6-0.5,1.1-0.5c0.8,0,1.2,0.4,1.2,1.3v2.4h-0.6v-2.4
		c0-0.3-0.1-0.5-0.2-0.6c-0.1-0.1-0.3-0.2-0.6-0.2c-0.2,0-0.4,0.1-0.5,0.2c-0.2,0.1-0.3,0.3-0.4,0.4v2.6h-0.6v-3.7H59.2z"/>
	<path id="XMLID_28_" class="st9" d="M63,86.8l0,0.4c0.3-0.3,0.6-0.5,1.1-0.5c0.5,0,0.9,0.2,1,0.6c0.1-0.2,0.3-0.3,0.5-0.4
		s0.4-0.2,0.7-0.2c0.8,0,1.2,0.4,1.2,1.3v2.5h-0.6v-2.4c0-0.3-0.1-0.5-0.2-0.6c-0.1-0.1-0.3-0.2-0.6-0.2c-0.2,0-0.4,0.1-0.6,0.2
		s-0.2,0.3-0.3,0.6v2.4h-0.6v-2.4c0-0.5-0.3-0.8-0.8-0.8c-0.4,0-0.7,0.2-0.8,0.5v2.7h-0.6v-3.7H63z"/>
	<path id="XMLID_30_" class="st9" d="M70,90.5c-0.5,0-0.9-0.2-1.2-0.5s-0.5-0.8-0.5-1.3v-0.1c0-0.4,0.1-0.7,0.2-1
		c0.1-0.3,0.3-0.5,0.6-0.7c0.2-0.2,0.5-0.2,0.8-0.2c0.5,0,0.8,0.2,1.1,0.5c0.3,0.3,0.4,0.8,0.4,1.3v0.3h-2.5c0,0.4,0.1,0.7,0.3,0.9
		c0.2,0.2,0.5,0.3,0.8,0.3c0.2,0,0.4,0,0.6-0.1c0.2-0.1,0.3-0.2,0.4-0.4l0.4,0.3C71.1,90.3,70.6,90.5,70,90.5z M69.9,87.3
		c-0.3,0-0.5,0.1-0.6,0.3C69.1,87.7,69,88,69,88.3h1.8v0c0-0.3-0.1-0.6-0.3-0.7S70.2,87.3,69.9,87.3z"/>
	<path id="XMLID_33_" class="st9" d="M72.7,86.8l0,0.5c0.3-0.4,0.6-0.5,1.1-0.5c0.8,0,1.2,0.4,1.2,1.3v2.4h-0.6v-2.4
		c0-0.3-0.1-0.5-0.2-0.6c-0.1-0.1-0.3-0.2-0.6-0.2c-0.2,0-0.4,0.1-0.5,0.2c-0.2,0.1-0.3,0.3-0.4,0.4v2.6h-0.6v-3.7H72.7z"/>
	<path id="XMLID_35_" class="st9" d="M76.8,85.9v0.9h0.7v0.5h-0.7v2.3c0,0.1,0,0.3,0.1,0.3s0.2,0.1,0.3,0.1c0.1,0,0.2,0,0.3,0v0.5
		c-0.2,0-0.3,0.1-0.5,0.1c-0.3,0-0.5-0.1-0.6-0.3c-0.1-0.2-0.2-0.4-0.2-0.7v-2.3h-0.7v-0.5h0.7v-0.9H76.8z"/>
</g>
</svg>
