<?xml version="1.0" encoding="utf-8"?>
<!-- Generator: Adobe Illustrator 19.0.0, SVG Export Plug-In . SVG Version: 6.00 Build 0)  -->
<svg version="1.1" id="Layer_1" xmlns="http://www.w3.org/2000/svg" xmlns:xlink="http://www.w3.org/1999/xlink" x="0px" y="0px"
	 viewBox="0 0 100 100" style="enable-background:new 0 0 100 100;" xml:space="preserve">
<style type="text/css">
	.st0{fill:#33454C;}
	.st1{fill:#00A199;}
	.st2{fill:#15A9A4;}
	.st3{opacity:0.43;fill:#E8E8E8;}
	.st4{fill:#ADADAD;}
	.st5{fill:#F2F2F2;}
	.st6{fill:none;stroke:#8A8A8A;stroke-width:2;stroke-linecap:round;stroke-miterlimit:10;}
	.st7{fill:#FFFFFF;}
	.st8{fill:#545454;}
</style>
<circle id="XMLID_795_" class="st0" cx="50" cy="50" r="44.7"/>
<circle id="XMLID_794_" class="st1" cx="49.8" cy="50.1" r="35.2"/>
<circle id="XMLID_792_" class="st2" cx="50" cy="50" r="44.7"/>
<circle id="XMLID_791_" class="st3" cx="49.8" cy="50.1" r="35.2"/>
<path id="XMLID_758_" class="st4" d="M63.8,71H32c-1.1,0-2-0.9-2-2V28.2c0-1.1,0.9-2,2-2h31.7c1.1,0,2,0.9,2,2V69
	C65.8,70.1,64.9,71,63.8,71z"/>
<path id="XMLID_757_" class="st5" d="M66,73.2H34.2c-1.1,0-2-0.9-2-2V30.4c0-1.1,0.9-2,2-2H66c1.1,0,2,0.9,2,2v40.8
	C68,72.3,67.1,73.2,66,73.2z"/>
<g id="XMLID_744_">
	<line id="XMLID_2_" class="st6" x1="37.9" y1="35.1" x2="62.2" y2="35.1"/>
	<line id="XMLID_8_" class="st6" x1="37.9" y1="39.7" x2="62.2" y2="39.7"/>
	<line id="XMLID_7_" class="st6" x1="37.9" y1="44.3" x2="62.2" y2="44.3"/>
	<line id="XMLID_6_" class="st6" x1="37.9" y1="48.9" x2="62.2" y2="48.9"/>
	<line id="XMLID_5_" class="st6" x1="37.9" y1="53.4" x2="62.2" y2="53.4"/>
	<line id="XMLID_4_" class="st6" x1="37.9" y1="58" x2="62.2" y2="58"/>
	<line id="XMLID_3_" class="st6" x1="37.9" y1="62.6" x2="62.2" y2="62.6"/>
	<line id="XMLID_1_" class="st6" x1="37.9" y1="67.2" x2="62.2" y2="67.2"/>
</g>
<path id="XMLID_728_" class="st7" d="M50.1,43.3c-5.9,0-11.2,3.4-13.6,8.7c2.5,5.2,7.9,8.7,13.6,8.7s11.1-3.5,13.6-8.7
	C61.3,46.7,56,43.3,50.1,43.3z M50.1,58.3c-3.5,0-6.3-2.8-6.3-6.3c0-3.5,2.8-6.3,6.3-6.3c3.5,0,6.3,2.8,6.3,6.3
	C56.4,55.5,53.6,58.3,50.1,58.3z"/>
<g id="XMLID_716_">
	<path id="XMLID_45_" class="st8" d="M50.1,62.8c-6.6,0-12.9-4.1-15.7-10.3l-0.3-0.5l0.3-0.6c0.1-0.2,0.2-0.5,0.3-0.7l-1.2-0.7
		c-0.5-0.3-0.7-0.9-0.4-1.4l0.1-0.2c0.2-0.3,0.5-0.5,0.9-0.5c0.2,0,0.4,0,0.5,0.1l1.2,0.7c0.4-0.7,0.9-1.2,1.3-1.8l-0.9-0.9
		c-0.2-0.2-0.3-0.5-0.3-0.7s0.1-0.5,0.3-0.7l0.2-0.2c0.1-0.2,0.4-0.3,0.7-0.3s0.5,0.1,0.7,0.3l1,1c0.6-0.5,1.2-0.9,1.8-1.4l-0.7-1.2
		c-0.3-0.5-0.1-1.1,0.4-1.4l0.1-0.1c0.2-0.1,0.4-0.2,0.6-0.2c0.4,0,0.7,0.2,0.9,0.5l0.7,1.1c0.7-0.3,1.3-0.6,2-0.9l-0.4-1.3
		c-0.1-0.6,0.2-1.1,0.7-1.3l0.2,0c0,0,0.1,0,0.2,0c0.5,0,0.9,0.3,1,0.8l0.3,1.3c0.8-0.2,1.4-0.2,2.1-0.3v-1.4c0-0.5,0.5-0.9,1.1-0.9
		h0.2c0.6,0,1.1,0.4,1.1,0.9v1.4c0.7,0,1.4,0.1,2.1,0.3l0.3-1.3c0.1-0.5,0.5-0.8,1-0.8c0.1,0,0.2,0,0.3,0l0.2,0
		c0.6,0.2,0.9,0.7,0.8,1.3L55.6,42c0.7,0.2,1.3,0.5,2,0.8l0.7-1.2c0.2-0.3,0.5-0.5,0.9-0.5c0.2,0,0.4,0,0.5,0.1l0.2,0.1
		c0.5,0.3,0.6,0.9,0.4,1.4L59.6,44c0.6,0.4,1.2,0.8,1.8,1.4l1-1c0.2-0.2,0.5-0.3,0.7-0.3c0.3,0,0.5,0.1,0.7,0.3l0.1,0.1
		c0.4,0.4,0.4,1.1,0,1.5l-1,1c0.5,0.6,0.9,1.2,1.4,1.8l1.2-0.7c0.2-0.1,0.3-0.1,0.5-0.1c0.4,0,0.7,0.2,0.9,0.5l0.1,0.2
		c0.3,0.5,0.1,1.1-0.4,1.4l-1.2,0.7c0.1,0.2,0.2,0.5,0.3,0.7L66,52l-0.2,0.5C63,58.7,56.7,62.8,50.1,62.8z M37.1,52
		c2.5,4.9,7.7,8.2,13.1,8.2c5.4,0,10.6-3.3,13.1-8.2c-2.3-5-7.4-8.2-13.1-8.2C44.5,43.8,39.4,47,37.1,52z"/>
	<path id="XMLID_40_" class="st7" d="M50.2,39.3c0.3,0,0.6,0.1,0.6,0.4v1.8c1.1,0,2,0.2,3,0.4l0.4-1.8c0.1-0.2,0.3-0.4,0.5-0.4
		c0,0,0.1,0,0.1,0l0.2,0c0.3,0.1,0.4,0.4,0.4,0.7L55,42.3c1,0.3,1.9,0.7,2.8,1.2l0.9-1.6c0.1-0.2,0.3-0.3,0.5-0.3
		c0.1,0,0.2,0,0.3,0.1l0.2,0.1c0.3,0.1,0.3,0.5,0.2,0.7l-0.9,1.6c0.9,0.6,1.7,1.2,2.5,1.9l1.3-1.3c0.1-0.1,0.2-0.2,0.4-0.2
		s0.3,0.1,0.4,0.2l0.1,0.1c0.2,0.2,0.2,0.6,0,0.8L62.3,47c0.7,0.8,1.3,1.6,1.9,2.5l1.6-0.9c0.1-0.1,0.2-0.1,0.3-0.1
		c0.2,0,0.4,0.1,0.5,0.3l0.1,0.2c0.1,0.3,0.1,0.6-0.2,0.7l-1.6,0.9c0.2,0.4,0.4,0.7,0.5,1.1l0.1,0.3l-0.1,0.3c-2.7,6-8.8,10-15.2,10
		c-6.4,0-12.5-4-15.2-10L34.7,52l0.1-0.3c0.1-0.4,0.3-0.7,0.5-1.1l-1.6-0.9c-0.3-0.1-0.3-0.5-0.2-0.7l0.1-0.2
		c0.1-0.2,0.3-0.3,0.5-0.3c0.1,0,0.2,0,0.3,0.1l1.6,0.9c0.6-0.9,1.2-1.7,1.9-2.5l-1.3-1.3c-0.2-0.2-0.2-0.6,0-0.8l0.1-0.1
		c0.1-0.1,0.2-0.2,0.4-0.2s0.3,0.1,0.4,0.2l1.3,1.3c0.8-0.7,1.6-1.3,2.5-1.9l-0.9-1.6c-0.1-0.3-0.1-0.6,0.2-0.7l0.1-0.1
		c0.1-0.1,0.2-0.1,0.3-0.1c0.2,0,0.4,0.1,0.5,0.3l0.9,1.5c0.9-0.5,1.8-0.9,2.8-1.2l-0.5-1.8c-0.1-0.3,0.1-0.6,0.4-0.7l0.2,0
		c0,0,0.1,0,0.1,0c0.2,0,0.4,0.1,0.5,0.4l0.4,1.8c1-0.2,1.9-0.4,3-0.4v-1.8c0-0.3,0.3-0.4,0.6-0.4H50.2 M50.1,60.7
		c5.7,0,11.1-3.5,13.6-8.7c-2.4-5.3-7.7-8.7-13.6-8.7c-5.9,0-11.2,3.4-13.6,8.7C39,57.2,44.5,60.7,50.1,60.7 M50.2,38.3H50
		c-0.9,0-1.6,0.6-1.6,1.4v0.9c-0.4,0-0.8,0.1-1.3,0.2L46.9,40c-0.2-0.7-0.8-1.1-1.5-1.1c-0.1,0-0.2,0-0.4,0l-0.2,0
		c-0.5,0.1-0.8,0.4-1,0.8c-0.2,0.3-0.2,0.7-0.1,1.1l0.2,0.9c-0.4,0.2-0.8,0.3-1.2,0.5l-0.4-0.7C42,41,41.5,40.7,41,40.7
		c-0.3,0-0.5,0.1-0.8,0.2l-0.1,0l0,0L40,41.1c-0.7,0.4-0.9,1.3-0.5,2.1l0.5,0.8c-0.4,0.3-0.7,0.5-1.1,0.8l-0.6-0.6
		c-0.3-0.3-0.7-0.5-1.1-0.5c-0.4,0-0.7,0.1-1,0.4L36,44.1l-0.1,0l-0.1,0.1c-0.6,0.6-0.6,1.6,0,2.2l0.6,0.6c-0.3,0.3-0.6,0.7-0.8,1.1
		L35,47.7c-0.2-0.1-0.5-0.2-0.8-0.2c-0.5,0-1.1,0.3-1.3,0.8l-0.1,0.2c-0.4,0.8-0.2,1.7,0.5,2.1l0.8,0.5c0,0.1-0.1,0.2-0.1,0.3
		l-0.1,0.3l-0.2,0.5l0.3,0.5l0.1,0.2c2.9,6.3,9.4,10.5,16.1,10.5c6.8,0,13.3-4.2,16.1-10.6l0.2-0.3l0.2-0.4l-0.2-0.4l-0.1-0.3
		c0-0.1-0.1-0.2-0.1-0.3l0.8-0.5c0.7-0.4,1-1.4,0.5-2.1l-0.1-0.2c-0.3-0.5-0.8-0.7-1.3-0.7c-0.3,0-0.5,0.1-0.8,0.2l-0.8,0.5
		c-0.3-0.4-0.5-0.7-0.8-1.1l0.6-0.6c0.6-0.6,0.6-1.6,0-2.2l-0.1-0.1c-0.3-0.3-0.7-0.5-1.1-0.5c-0.4,0-0.8,0.2-1.1,0.5l-0.6,0.6
		c-0.4-0.3-0.7-0.6-1.1-0.8l0.4-0.8c0.2-0.4,0.3-0.8,0.2-1.1c-0.1-0.4-0.4-0.8-0.7-1L60,40.9c-0.3-0.1-0.5-0.2-0.8-0.2
		c-0.5,0-1.1,0.3-1.3,0.8l-0.4,0.8c-0.4-0.2-0.8-0.4-1.2-0.5l0.2-0.9c0.2-0.8-0.3-1.7-1.1-1.9l0,0l0,0l-0.2,0c-0.1,0-0.2,0-0.3,0
		c-0.7,0-1.3,0.5-1.5,1.1l-0.2,0.9c-0.4-0.1-0.9-0.1-1.3-0.2v-0.9C51.8,38.9,51.1,38.3,50.2,38.3L50.2,38.3z M37.6,52
		c2.3-4.7,7.2-7.7,12.5-7.7c5.3,0,10.2,3,12.5,7.7c-2.4,4.6-7.4,7.7-12.5,7.7C45,59.7,40,56.6,37.6,52L37.6,52z"/>
</g>
<g id="XMLID_706_">
	<path id="XMLID_24_" class="st8" d="M50.1,58.8c-3.8,0-6.8-3.1-6.8-6.8c0-3.8,3.1-6.8,6.8-6.8c3.8,0,6.8,3.1,6.8,6.8
		C56.9,55.7,53.9,58.8,50.1,58.8z"/>
	<path id="XMLID_21_" class="st7" d="M50.1,45.6c3.5,0,6.3,2.8,6.3,6.3c0,3.5-2.8,6.3-6.3,6.3c-3.5,0-6.3-2.8-6.3-6.3
		C43.8,48.5,46.6,45.6,50.1,45.6 M50.1,44.6c-4,0-7.3,3.3-7.3,7.3c0,4,3.3,7.3,7.3,7.3c4,0,7.3-3.3,7.3-7.3
		C57.4,47.9,54.2,44.6,50.1,44.6L50.1,44.6z"/>
</g>
</svg>
