<?xml version="1.0" encoding="utf-8"?>
<!-- Generator: Adobe Illustrator 19.0.0, SVG Export Plug-In . SVG Version: 6.00 Build 0)  -->
<svg version="1.1" id="Layer_1" xmlns="http://www.w3.org/2000/svg" xmlns:xlink="http://www.w3.org/1999/xlink" x="0px" y="0px"
	 viewBox="0 0 100 100" style="enable-background:new 0 0 100 100;" xml:space="preserve">
<style type="text/css">
	.st0{fill:#33454C;}
	.st1{fill:#00A199;}
	.st2{fill:#15A9A4;}
	.st3{opacity:0.43;fill:#E8E8E8;}
	.st4{fill:#F2F2F2;}
	.st5{fill:#ADADAD;}
	.st6{fill:none;stroke:#8A8A8A;stroke-width:2;stroke-linecap:round;stroke-miterlimit:10;}
	.st7{fill:#FFFFFF;}
	.st8{fill:#545454;}
</style>
<circle id="XMLID_456_" class="st0" cx="50" cy="48.3" r="44.7"/>
<circle id="XMLID_455_" class="st1" cx="49.8" cy="48.5" r="35.2"/>
<polygon id="XMLID_454_" points="87.7,94 14.4,94 18.8,88 14.4,82 87.7,82 83.3,88 "/>
<circle id="XMLID_453_" class="st2" cx="50" cy="48.3" r="44.7"/>
<circle id="XMLID_452_" class="st3" cx="49.8" cy="48.5" r="35.2"/>
<polygon id="XMLID_451_" points="87.7,94 14.4,94 18.8,88 14.4,82 87.7,82 83.3,88 "/>
<g id="XMLID_16_">
	<path id="XMLID_10_" class="st4" d="M38.3,88.7c0,0.5-0.1,0.9-0.2,1.3s-0.4,0.6-0.7,0.8C37,91,36.7,91,36.3,91
		c-0.4,0-0.7-0.1-1-0.3c-0.3-0.2-0.5-0.5-0.7-0.8c-0.2-0.4-0.3-0.8-0.3-1.2v-0.4c0-0.5,0.1-0.9,0.2-1.3c0.2-0.4,0.4-0.6,0.7-0.8
		c0.3-0.2,0.6-0.3,1-0.3c0.4,0,0.7,0.1,1,0.3c0.3,0.2,0.5,0.5,0.7,0.8c0.2,0.4,0.2,0.8,0.2,1.3V88.7z M37.6,88.4
		c0-0.6-0.1-1-0.4-1.3c-0.2-0.3-0.6-0.5-1-0.5c-0.4,0-0.7,0.2-1,0.5c-0.2,0.3-0.4,0.7-0.4,1.3v0.4c0,0.6,0.1,1,0.4,1.3
		c0.2,0.3,0.6,0.5,1,0.5c0.4,0,0.7-0.2,1-0.5c0.2-0.3,0.3-0.7,0.4-1.3V88.4z"/>
	<path id="XMLID_13_" class="st4" d="M42.2,89.2c0,0.6-0.1,1-0.4,1.3s-0.6,0.5-1,0.5c-0.4,0-0.8-0.1-1-0.4v1.8h-0.6v-5.1h0.6l0,0.4
		c0.3-0.3,0.6-0.5,1.1-0.5c0.4,0,0.8,0.2,1,0.5C42.1,88.1,42.2,88.5,42.2,89.2L42.2,89.2z M41.6,89.1c0-0.4-0.1-0.7-0.3-1
		c-0.2-0.2-0.4-0.4-0.7-0.4c-0.4,0-0.7,0.2-0.9,0.5V90c0.2,0.3,0.5,0.5,0.9,0.5c0.3,0,0.5-0.1,0.7-0.4S41.6,89.6,41.6,89.1z"/>
	<path id="XMLID_17_" class="st4" d="M44.5,91c-0.5,0-0.9-0.2-1.2-0.5c-0.3-0.3-0.5-0.8-0.5-1.3v-0.1c0-0.4,0.1-0.7,0.2-1
		s0.3-0.5,0.6-0.7c0.2-0.2,0.5-0.2,0.8-0.2c0.5,0,0.8,0.2,1.1,0.5c0.3,0.3,0.4,0.8,0.4,1.3v0.3h-2.5c0,0.4,0.1,0.7,0.3,0.9
		c0.2,0.2,0.5,0.3,0.8,0.3c0.2,0,0.4,0,0.6-0.1c0.2-0.1,0.3-0.2,0.4-0.4l0.4,0.3C45.6,90.8,45.2,91,44.5,91z M44.5,87.8
		c-0.3,0-0.5,0.1-0.6,0.3c-0.2,0.2-0.3,0.4-0.3,0.8h1.8v0c0-0.3-0.1-0.6-0.3-0.7S44.7,87.8,44.5,87.8z"/>
	<path id="XMLID_21_" class="st4" d="M47.3,87.3l0,0.5c0.3-0.4,0.6-0.5,1.1-0.5c0.8,0,1.2,0.4,1.2,1.3V91h-0.6v-2.4
		c0-0.3-0.1-0.5-0.2-0.6c-0.1-0.1-0.3-0.2-0.6-0.2c-0.2,0-0.4,0.1-0.5,0.2c-0.2,0.1-0.3,0.3-0.4,0.4V91h-0.6v-3.7H47.3z"/>
	<path id="XMLID_27_" class="st4" d="M52.3,91v-4.9h1.4c0.4,0,0.8,0.1,1.1,0.3c0.3,0.2,0.6,0.5,0.8,0.8c0.2,0.4,0.3,0.8,0.3,1.2v0.3
		c0,0.5-0.1,0.9-0.3,1.2c-0.2,0.4-0.4,0.6-0.8,0.8c-0.3,0.2-0.7,0.3-1.2,0.3H52.3z M53,86.6v3.9h0.7c0.5,0,0.9-0.2,1.2-0.5
		c0.3-0.3,0.4-0.8,0.4-1.3v-0.3c0-0.6-0.1-1-0.4-1.3c-0.3-0.3-0.6-0.5-1.1-0.5H53z"/>
	<path id="XMLID_30_" class="st4" d="M59,91c0-0.1-0.1-0.2-0.1-0.4c-0.3,0.3-0.6,0.5-1,0.5c-0.4,0-0.7-0.1-0.9-0.3
		c-0.2-0.2-0.3-0.5-0.3-0.8c0-0.4,0.1-0.7,0.4-0.9s0.7-0.3,1.2-0.3h0.6v-0.3c0-0.2-0.1-0.4-0.2-0.5s-0.3-0.2-0.6-0.2
		c-0.2,0-0.4,0.1-0.6,0.2c-0.2,0.1-0.2,0.2-0.2,0.4h-0.6c0-0.2,0.1-0.4,0.2-0.5c0.1-0.2,0.3-0.3,0.5-0.4c0.2-0.1,0.5-0.1,0.7-0.1
		c0.4,0,0.8,0.1,1,0.3c0.2,0.2,0.4,0.5,0.4,0.9v1.7c0,0.3,0,0.6,0.1,0.8V91H59z M58,90.5c0.2,0,0.4-0.1,0.6-0.2s0.3-0.2,0.4-0.4
		v-0.8h-0.5c-0.8,0-1.2,0.2-1.2,0.7c0,0.2,0.1,0.3,0.2,0.5C57.6,90.4,57.8,90.5,58,90.5z"/>
	<path id="XMLID_33_" class="st4" d="M61.4,86.4v0.9h0.7v0.5h-0.7v2.3c0,0.1,0,0.3,0.1,0.3s0.2,0.1,0.3,0.1c0.1,0,0.2,0,0.3,0V91
		c-0.2,0-0.3,0.1-0.5,0.1c-0.3,0-0.5-0.1-0.6-0.3c-0.1-0.2-0.2-0.4-0.2-0.7v-2.3h-0.7v-0.5h0.7v-0.9H61.4z"/>
	<path id="XMLID_36_" class="st4" d="M65.1,91c0-0.1-0.1-0.2-0.1-0.4c-0.3,0.3-0.6,0.5-1,0.5c-0.4,0-0.7-0.1-0.9-0.3
		c-0.2-0.2-0.3-0.5-0.3-0.8c0-0.4,0.1-0.7,0.4-0.9s0.7-0.3,1.2-0.3H65v-0.3c0-0.2-0.1-0.4-0.2-0.5s-0.3-0.2-0.6-0.2
		c-0.2,0-0.4,0.1-0.6,0.2c-0.2,0.1-0.2,0.2-0.2,0.4h-0.6c0-0.2,0.1-0.4,0.2-0.5c0.1-0.2,0.3-0.3,0.5-0.4c0.2-0.1,0.5-0.1,0.7-0.1
		c0.4,0,0.8,0.1,1,0.3c0.2,0.2,0.4,0.5,0.4,0.9v1.7c0,0.3,0,0.6,0.1,0.8V91H65.1z M64,90.5c0.2,0,0.4-0.1,0.6-0.2s0.3-0.2,0.4-0.4
		v-0.8h-0.5c-0.8,0-1.2,0.2-1.2,0.7c0,0.2,0.1,0.3,0.2,0.5C63.7,90.4,63.8,90.5,64,90.5z"/>
</g>
<path id="XMLID_153_" class="st5" d="M63.8,69.4H32c-1.1,0-2-0.9-2-2V26.5c0-1.1,0.9-2,2-2h31.7c1.1,0,2,0.9,2,2v40.8
	C65.8,68.5,64.9,69.4,63.8,69.4z"/>
<path id="XMLID_113_" class="st4" d="M66,71.6H34.2c-1.1,0-2-0.9-2-2V28.7c0-1.1,0.9-2,2-2H66c1.1,0,2,0.9,2,2v40.8
	C68,70.7,67.1,71.6,66,71.6z"/>
<g id="XMLID_142_">
	<line id="XMLID_2_" class="st6" x1="37.9" y1="33.5" x2="62.2" y2="33.5"/>
	<line id="XMLID_8_" class="st6" x1="37.9" y1="38.1" x2="62.2" y2="38.1"/>
	<line id="XMLID_7_" class="st6" x1="37.9" y1="42.6" x2="62.2" y2="42.6"/>
	<line id="XMLID_6_" class="st6" x1="37.9" y1="47.2" x2="62.2" y2="47.2"/>
	<line id="XMLID_5_" class="st6" x1="37.9" y1="51.8" x2="62.2" y2="51.8"/>
	<line id="XMLID_4_" class="st6" x1="37.9" y1="56.4" x2="62.2" y2="56.4"/>
	<line id="XMLID_3_" class="st6" x1="37.9" y1="60.9" x2="62.2" y2="60.9"/>
	<line id="XMLID_1_" class="st6" x1="37.9" y1="65.5" x2="62.2" y2="65.5"/>
</g>
<path id="XMLID_306_" class="st7" d="M50.1,41.6c-5.9,0-11.2,3.4-13.6,8.7C39,55.5,44.5,59,50.1,59s11.1-3.5,13.6-8.7
	C61.3,45,56,41.6,50.1,41.6z M50.1,56.7c-3.5,0-6.3-2.8-6.3-6.3c0-3.5,2.8-6.3,6.3-6.3c3.5,0,6.3,2.8,6.3,6.3
	C56.4,53.8,53.6,56.7,50.1,56.7z"/>
<g id="XMLID_312_">
	<path id="XMLID_46_" class="st8" d="M50.1,61.1c-6.6,0-12.9-4.1-15.7-10.3l-0.3-0.5l0.3-0.6c0.1-0.2,0.2-0.5,0.3-0.7l-1.2-0.7
		c-0.5-0.3-0.7-0.9-0.4-1.4l0.1-0.2c0.2-0.3,0.5-0.5,0.9-0.5c0.2,0,0.4,0,0.5,0.1l1.2,0.7c0.4-0.7,0.9-1.2,1.3-1.8l-0.9-0.9
		c-0.4-0.4-0.4-1.1,0-1.5l0.2-0.2c0.1-0.2,0.4-0.3,0.7-0.3s0.5,0.1,0.7,0.3l1,1c0.6-0.5,1.2-0.9,1.8-1.4l-0.7-1.2
		c-0.1-0.2-0.2-0.5-0.1-0.8c0.1-0.3,0.2-0.5,0.5-0.6l0.1-0.1c0.2-0.1,0.4-0.2,0.6-0.2c0.4,0,0.7,0.2,0.9,0.5l0.7,1.1
		c0.7-0.3,1.3-0.6,2-0.9l-0.4-1.3c-0.1-0.3,0-0.5,0.1-0.8c0.1-0.3,0.4-0.4,0.6-0.5l0.2,0c0,0,0.1,0,0.2,0c0.5,0,0.9,0.3,1,0.8
		l0.3,1.3c0.8-0.2,1.4-0.2,2.1-0.3v-1.4c0-0.5,0.5-0.9,1.1-0.9h0.2c0.6,0,1.1,0.4,1.1,0.9v1.4c0.7,0,1.4,0.1,2.1,0.3l0.3-1.3
		c0.1-0.5,0.5-0.8,1-0.8c0.1,0,0.2,0,0.3,0l0.2,0c0.6,0.2,0.9,0.7,0.8,1.3l-0.4,1.3c0.7,0.2,1.3,0.5,2,0.8l0.7-1.2
		c0.2-0.3,0.5-0.5,0.9-0.5c0.2,0,0.4,0,0.5,0.1l0.2,0.1c0.5,0.3,0.6,0.9,0.4,1.4l-0.7,1.2c0.6,0.4,1.2,0.8,1.8,1.4l1-1
		c0.2-0.2,0.5-0.3,0.7-0.3c0.3,0,0.5,0.1,0.7,0.3l0.1,0.1c0.4,0.4,0.4,1.1,0,1.5l-1,1c0.5,0.6,0.9,1.2,1.4,1.8l1.2-0.7
		c0.2-0.1,0.3-0.1,0.5-0.1c0.4,0,0.7,0.2,0.9,0.5L67,47c0.1,0.2,0.2,0.5,0.1,0.8c-0.1,0.3-0.2,0.5-0.5,0.6l-1.2,0.7
		c0.1,0.2,0.2,0.5,0.3,0.7l0.2,0.5l-0.2,0.5C63,57,56.7,61.1,50.1,61.1z M37.1,50.3c2.5,4.9,7.7,8.2,13.1,8.2
		c5.4,0,10.6-3.3,13.1-8.2c-2.3-5-7.4-8.2-13.1-8.2C44.5,42.1,39.4,45.3,37.1,50.3z"/>
	<path id="XMLID_41_" class="st7" d="M50.2,37.7c0.3,0,0.6,0.1,0.6,0.4V40c1.1,0,2,0.2,3,0.4l0.4-1.8c0.1-0.2,0.3-0.4,0.5-0.4
		c0,0,0.1,0,0.1,0l0.2,0c0.3,0.1,0.4,0.4,0.4,0.7L55,40.7c1,0.3,1.9,0.7,2.8,1.2l0.9-1.6c0.1-0.2,0.3-0.3,0.5-0.3
		c0.1,0,0.2,0,0.3,0.1l0.2,0.1c0.3,0.1,0.3,0.5,0.2,0.7l-0.9,1.6c0.9,0.6,1.7,1.2,2.5,1.9l1.3-1.3c0.1-0.1,0.2-0.2,0.4-0.2
		s0.3,0.1,0.4,0.2l0.1,0.1c0.2,0.2,0.2,0.6,0,0.8l-1.3,1.3c0.7,0.8,1.3,1.6,1.9,2.5l1.6-0.9c0.1-0.1,0.2-0.1,0.3-0.1
		c0.2,0,0.4,0.1,0.5,0.3l0.1,0.2c0.1,0.3,0.1,0.6-0.2,0.7l-1.6,0.9c0.2,0.4,0.4,0.7,0.5,1.1l0.1,0.3l-0.1,0.3c-2.7,6-8.8,10-15.2,10
		c-6.4,0-12.5-4-15.2-10l-0.2-0.3l0.1-0.3c0.1-0.4,0.3-0.7,0.5-1.1L33.8,48c-0.3-0.1-0.3-0.5-0.2-0.7l0.1-0.2
		c0.1-0.2,0.3-0.3,0.5-0.3c0.1,0,0.2,0,0.3,0.1l1.6,0.9c0.6-0.9,1.2-1.7,1.9-2.5l-1.3-1.3c-0.2-0.2-0.2-0.6,0-0.8l0.1-0.1
		c0.1-0.1,0.2-0.2,0.4-0.2s0.3,0.1,0.4,0.2l1.3,1.3c0.8-0.7,1.6-1.3,2.5-1.9L40.4,41c-0.1-0.3-0.1-0.6,0.2-0.7l0.1-0.1
		c0.1-0.1,0.2-0.1,0.3-0.1c0.2,0,0.4,0.1,0.5,0.3l0.9,1.5c0.9-0.5,1.8-0.9,2.8-1.2l-0.5-1.8c-0.1-0.3,0.1-0.6,0.4-0.7l0.2,0
		c0,0,0.1,0,0.1,0c0.2,0,0.4,0.1,0.5,0.4l0.4,1.8c1-0.2,1.9-0.4,3-0.4v-1.8c0-0.3,0.3-0.4,0.6-0.4H50.2 M50.1,59
		c5.7,0,11.1-3.5,13.6-8.7c-2.4-5.3-7.7-8.7-13.6-8.7c-5.9,0-11.2,3.4-13.6,8.7C39,55.5,44.5,59,50.1,59 M50.2,36.7H50
		c-0.9,0-1.6,0.6-1.6,1.4V39c-0.4,0-0.8,0.1-1.3,0.2l-0.2-0.8c-0.2-0.7-0.8-1.1-1.5-1.1c-0.1,0-0.2,0-0.4,0l-0.2,0
		c-0.5,0.1-0.8,0.4-1,0.8c-0.2,0.3-0.2,0.7-0.1,1.1L44,40c-0.4,0.2-0.8,0.3-1.2,0.5l-0.4-0.7c-0.3-0.4-0.8-0.7-1.3-0.7
		c-0.3,0-0.5,0.1-0.8,0.2l-0.1,0l0,0L40,39.5c-0.7,0.4-0.9,1.3-0.5,2.1l0.5,0.8c-0.4,0.3-0.7,0.5-1.1,0.8l-0.6-0.6
		C38,42.2,37.6,42,37.2,42c-0.4,0-0.7,0.1-1,0.4L36,42.5l-0.1,0l-0.1,0.1c-0.6,0.6-0.6,1.6,0,2.2l0.6,0.6c-0.3,0.3-0.6,0.7-0.8,1.1
		L35,46c-0.2-0.1-0.5-0.2-0.8-0.2c-0.5,0-1.1,0.3-1.3,0.8l-0.1,0.2c-0.4,0.8-0.2,1.7,0.5,2.1l0.8,0.5c0,0.1-0.1,0.2-0.1,0.3L33.8,50
		l-0.2,0.5l0.3,0.5l0.1,0.2c2.9,6.3,9.4,10.5,16.1,10.5c6.8,0,13.3-4.2,16.1-10.6l0.2-0.3l0.2-0.4l-0.2-0.4l-0.1-0.3
		c0-0.1-0.1-0.2-0.1-0.3l0.8-0.5c0.7-0.4,1-1.4,0.5-2.1l-0.1-0.2c-0.3-0.5-0.8-0.7-1.3-0.7c-0.3,0-0.5,0.1-0.8,0.2l-0.8,0.5
		c-0.3-0.4-0.5-0.7-0.8-1.1l0.6-0.6c0.6-0.6,0.6-1.6,0-2.2l-0.1-0.1c-0.3-0.3-0.7-0.5-1.1-0.5c-0.4,0-0.8,0.2-1.1,0.5L61.3,43
		c-0.4-0.3-0.7-0.6-1.1-0.8l0.4-0.8c0.2-0.4,0.3-0.8,0.2-1.1c-0.1-0.4-0.4-0.8-0.7-1L60,39.2c-0.3-0.1-0.5-0.2-0.8-0.2
		c-0.5,0-1.1,0.3-1.3,0.8l-0.4,0.8c-0.4-0.2-0.8-0.4-1.2-0.5l0.2-0.9c0.2-0.8-0.3-1.7-1.1-1.9l0,0l0,0l-0.2,0c-0.1,0-0.2,0-0.3,0
		c-0.7,0-1.3,0.5-1.5,1.1l-0.2,0.9c-0.4-0.1-0.9-0.1-1.3-0.2v-0.9C51.8,37.3,51.1,36.7,50.2,36.7L50.2,36.7z M37.6,50.3
		c2.3-4.7,7.2-7.7,12.5-7.7c5.3,0,10.2,3,12.5,7.7C60.2,55,55.2,58,50.1,58C45,58,40,55,37.6,50.3L37.6,50.3z"/>
</g>
<g id="XMLID_313_">
	<path id="XMLID_25_" class="st8" d="M50.1,57.2c-3.8,0-6.8-3.1-6.8-6.8s3.1-6.8,6.8-6.8c3.8,0,6.8,3.1,6.8,6.8S53.9,57.2,50.1,57.2
		z"/>
	<path id="XMLID_22_" class="st7" d="M50.1,44c3.5,0,6.3,2.8,6.3,6.3c0,3.5-2.8,6.3-6.3,6.3c-3.5,0-6.3-2.8-6.3-6.3
		C43.8,46.8,46.6,44,50.1,44 M50.1,43c-4,0-7.3,3.3-7.3,7.3c0,4,3.3,7.3,7.3,7.3c4,0,7.3-3.3,7.3-7.3C57.4,46.3,54.2,43,50.1,43
		L50.1,43z"/>
</g>
</svg>
