<?xml version="1.0" encoding="utf-8"?>
<!-- Generator: Adobe Illustrator 19.0.0, SVG Export Plug-In . SVG Version: 6.00 Build 0)  -->
<svg version="1.1" id="Layer_1" xmlns="http://www.w3.org/2000/svg" xmlns:xlink="http://www.w3.org/1999/xlink" x="0px" y="0px"
	 viewBox="0 0 100 100" style="enable-background:new 0 0 100 100;" xml:space="preserve">
<style type="text/css">
	.st0{fill:#F7B52C;}
	.st1{opacity:0.43;fill:#E8E8E8;}
	.st2{fill:#F2F2F2;}
	.st3{fill:#404040;}
	.st4{fill:#FFFFFF;}
	.st5{fill:#969696;}
</style>
<circle id="XMLID_425_" class="st0" cx="50" cy="48.3" r="44.7"/>
<circle id="XMLID_424_" class="st1" cx="49.8" cy="48.5" r="35.2"/>
<polygon id="XMLID_423_" points="87.7,94 14.4,94 18.8,88 14.4,82 87.7,82 83.3,88 "/>
<g id="XMLID_1_">
	<path id="XMLID_3_" class="st2" d="M29.6,89.1V91h-0.6v-4.9h1.8c0.5,0,1,0.1,1.3,0.4c0.3,0.3,0.5,0.6,0.5,1.1
		c0,0.5-0.1,0.8-0.4,1.1c-0.3,0.3-0.7,0.4-1.3,0.4H29.6z M29.6,88.5h1.2c0.3,0,0.6-0.1,0.8-0.2s0.3-0.4,0.3-0.7
		c0-0.3-0.1-0.5-0.3-0.7c-0.2-0.2-0.4-0.3-0.8-0.3h-1.2V88.5z"/>
	<path id="XMLID_6_" class="st2" d="M35.4,90.6c-0.2,0.3-0.6,0.4-1.1,0.4c-0.4,0-0.7-0.1-0.9-0.3c-0.2-0.2-0.3-0.6-0.3-1v-2.4h0.6
		v2.4c0,0.6,0.2,0.8,0.7,0.8c0.5,0,0.8-0.2,1-0.5v-2.7h0.6V91h-0.6L35.4,90.6z"/>
	<path id="XMLID_8_" class="st2" d="M40.1,89.2c0,0.6-0.1,1-0.4,1.3c-0.3,0.3-0.6,0.5-1,0.5c-0.5,0-0.8-0.2-1.1-0.5l0,0.4H37v-5.2
		h0.6v1.9c0.3-0.3,0.6-0.5,1-0.5c0.4,0,0.8,0.2,1,0.5C40,88.1,40.1,88.6,40.1,89.2L40.1,89.2z M39.5,89.1c0-0.4-0.1-0.8-0.2-1
		c-0.2-0.2-0.4-0.3-0.7-0.3c-0.4,0-0.7,0.2-0.9,0.6v1.6c0.2,0.4,0.5,0.6,0.9,0.6c0.3,0,0.5-0.1,0.7-0.3S39.5,89.6,39.5,89.1z"/>
	<path id="XMLID_11_" class="st2" d="M41.6,91h-0.6v-5.2h0.6V91z"/>
	<path id="XMLID_13_" class="st2" d="M42.6,86.3c0-0.1,0-0.2,0.1-0.3c0.1-0.1,0.2-0.1,0.3-0.1c0.1,0,0.2,0,0.3,0.1
		c0.1,0.1,0.1,0.2,0.1,0.3s0,0.2-0.1,0.3c-0.1,0.1-0.2,0.1-0.3,0.1c-0.1,0-0.2,0-0.3-0.1C42.6,86.5,42.6,86.4,42.6,86.3z M43.3,91
		h-0.6v-3.7h0.6V91z"/>
	<path id="XMLID_16_" class="st2" d="M45.7,90.5c0.2,0,0.4-0.1,0.6-0.2s0.3-0.3,0.3-0.5h0.6c0,0.2-0.1,0.4-0.2,0.6
		c-0.1,0.2-0.3,0.3-0.5,0.5S46,91,45.7,91c-0.5,0-0.9-0.2-1.2-0.5c-0.3-0.3-0.4-0.8-0.4-1.4v-0.1c0-0.4,0.1-0.7,0.2-1
		c0.1-0.3,0.3-0.5,0.6-0.6c0.2-0.2,0.5-0.2,0.9-0.2c0.4,0,0.8,0.1,1,0.4s0.4,0.6,0.4,1h-0.6c0-0.2-0.1-0.4-0.3-0.6
		c-0.2-0.2-0.4-0.2-0.6-0.2c-0.3,0-0.6,0.1-0.7,0.3c-0.2,0.2-0.3,0.6-0.3,1v0.1c0,0.4,0.1,0.7,0.3,1C45.2,90.4,45.4,90.5,45.7,90.5z
		"/>
	<path id="XMLID_18_" class="st2" d="M51.2,88.8c-0.6-0.2-1-0.4-1.2-0.6s-0.4-0.5-0.4-0.9c0-0.4,0.2-0.7,0.5-1
		c0.3-0.3,0.7-0.4,1.2-0.4c0.3,0,0.6,0.1,0.9,0.2c0.3,0.1,0.5,0.3,0.6,0.5s0.2,0.5,0.2,0.8h-0.7c0-0.3-0.1-0.5-0.3-0.7
		s-0.5-0.3-0.8-0.3c-0.3,0-0.6,0.1-0.8,0.2c-0.2,0.1-0.3,0.3-0.3,0.6c0,0.2,0.1,0.4,0.3,0.5c0.2,0.1,0.5,0.3,0.9,0.4
		c0.4,0.1,0.7,0.2,1,0.4c0.2,0.1,0.4,0.3,0.5,0.5c0.1,0.2,0.2,0.4,0.2,0.7c0,0.4-0.2,0.7-0.5,1S51.8,91,51.3,91
		c-0.3,0-0.7-0.1-0.9-0.2c-0.3-0.1-0.5-0.3-0.7-0.5c-0.2-0.2-0.2-0.5-0.2-0.8h0.7c0,0.3,0.1,0.5,0.3,0.7c0.2,0.2,0.5,0.3,0.9,0.3
		c0.3,0,0.6-0.1,0.8-0.2s0.3-0.3,0.3-0.6c0-0.2-0.1-0.4-0.3-0.6C51.9,89,51.6,88.9,51.2,88.8z"/>
	<path id="XMLID_21_" class="st2" d="M55.2,91c-0.5,0-0.9-0.2-1.2-0.5s-0.5-0.8-0.5-1.3v-0.1c0-0.4,0.1-0.7,0.2-1
		c0.1-0.3,0.3-0.5,0.6-0.7c0.2-0.2,0.5-0.2,0.8-0.2c0.5,0,0.8,0.2,1.1,0.5c0.3,0.3,0.4,0.8,0.4,1.3v0.3h-2.5c0,0.4,0.1,0.7,0.3,0.9
		c0.2,0.2,0.5,0.3,0.8,0.3c0.2,0,0.4,0,0.6-0.1c0.2-0.1,0.3-0.2,0.4-0.4l0.4,0.3C56.3,90.8,55.9,91,55.2,91z M55.2,87.8
		c-0.3,0-0.5,0.1-0.6,0.3c-0.2,0.2-0.3,0.4-0.3,0.8H56v0c0-0.3-0.1-0.6-0.3-0.7S55.4,87.8,55.2,87.8z"/>
	<path id="XMLID_24_" class="st2" d="M59.2,87.9c-0.1,0-0.2,0-0.3,0c-0.4,0-0.7,0.2-0.8,0.5V91h-0.6v-3.7H58l0,0.4
		c0.2-0.3,0.5-0.5,0.9-0.5c0.1,0,0.2,0,0.3,0V87.9z"/>
	<path id="XMLID_26_" class="st2" d="M61,90.1l0.9-2.8h0.6L61.2,91h-0.5l-1.3-3.7h0.6L61,90.1z"/>
	<path id="XMLID_28_" class="st2" d="M63.2,86.3c0-0.1,0-0.2,0.1-0.3c0.1-0.1,0.2-0.1,0.3-0.1c0.1,0,0.2,0,0.3,0.1
		c0.1,0.1,0.1,0.2,0.1,0.3s0,0.2-0.1,0.3c-0.1,0.1-0.2,0.1-0.3,0.1c-0.1,0-0.2,0-0.3-0.1C63.2,86.5,63.2,86.4,63.2,86.3z M63.8,91
		h-0.6v-3.7h0.6V91z"/>
	<path id="XMLID_31_" class="st2" d="M66.3,90.5c0.2,0,0.4-0.1,0.6-0.2s0.3-0.3,0.3-0.5h0.6c0,0.2-0.1,0.4-0.2,0.6
		c-0.1,0.2-0.3,0.3-0.5,0.5C66.8,91,66.6,91,66.3,91c-0.5,0-0.9-0.2-1.2-0.5c-0.3-0.3-0.4-0.8-0.4-1.4v-0.1c0-0.4,0.1-0.7,0.2-1
		c0.1-0.3,0.3-0.5,0.6-0.6c0.2-0.2,0.5-0.2,0.9-0.2c0.4,0,0.8,0.1,1,0.4s0.4,0.6,0.4,1h-0.6c0-0.2-0.1-0.4-0.3-0.6s-0.4-0.2-0.6-0.2
		c-0.3,0-0.6,0.1-0.7,0.3c-0.2,0.2-0.3,0.6-0.3,1v0.1c0,0.4,0.1,0.7,0.3,1C65.7,90.4,66,90.5,66.3,90.5z"/>
	<path id="XMLID_33_" class="st2" d="M70,91c-0.5,0-0.9-0.2-1.2-0.5s-0.5-0.8-0.5-1.3v-0.1c0-0.4,0.1-0.7,0.2-1
		c0.1-0.3,0.3-0.5,0.6-0.7c0.2-0.2,0.5-0.2,0.8-0.2c0.5,0,0.8,0.2,1.1,0.5c0.3,0.3,0.4,0.8,0.4,1.3v0.3h-2.5c0,0.4,0.1,0.7,0.3,0.9
		c0.2,0.2,0.5,0.3,0.8,0.3c0.2,0,0.4,0,0.6-0.1c0.2-0.1,0.3-0.2,0.4-0.4l0.4,0.3C71.1,90.8,70.6,91,70,91z M69.9,87.8
		c-0.3,0-0.5,0.1-0.6,0.3c-0.2,0.2-0.3,0.4-0.3,0.8h1.8v0c0-0.3-0.1-0.6-0.3-0.7S70.2,87.8,69.9,87.8z"/>
</g>
<path id="XMLID_103_" class="st3" d="M69.8,37c1.6,0.7,2.7,2.3,2.7,4.2v2.5H72c0-2.2-1.9-4-4.1-4c-1.5,0-2.9,0.9-3.6,2.1
	c-1.5-2.8-5.6-2.8-7.2,0c-1.5-2.8-5.6-2.8-7.2,0c-1.5-2.8-5.6-2.8-7.2,0c-1.5-2.8-5.6-2.8-7.2,0c-0.7-1.3-2-2.1-3.6-2.1
	c-2.2,0-4.1,1.8-4.1,4h-0.5v-2.5c0-1.9,1.1-3.5,2.7-4.2c-0.7-0.6-1.2-1.4-1.2-2.4c0-1.7,1.4-3.1,3.1-3.1c1.7,0,3.1,1.4,3.1,3.1
	c0,1-0.5,1.9-1.2,2.4c0.7,0.3,1.3,0.8,1.7,1.3c0.5-0.6,1-1,1.7-1.3c-0.7-0.6-1.2-1.4-1.2-2.4c0-1.7,1.4-3.1,3.1-3.1
	c1.7,0,3.1,1.4,3.1,3.1c0,1-0.5,1.9-1.2,2.4c0.7,0.3,1.3,0.8,1.7,1.3c0.5-0.6,1-1,1.7-1.3c-0.7-0.6-1.2-1.4-1.2-2.4
	c0-1.7,1.4-3.1,3.1-3.1c1.7,0,3.1,1.4,3.1,3.1c0,1-0.5,1.9-1.2,2.4c0.7,0.3,1.3,0.8,1.7,1.3c0.5-0.6,1-1,1.7-1.3
	c-0.7-0.6-1.2-1.4-1.2-2.4c0-1.7,1.4-3.1,3.1-3.1c1.7,0,3.1,1.4,3.1,3.1c0,1-0.5,1.9-1.2,2.4c0.7,0.3,1.3,0.8,1.7,1.3
	c0.5-0.6,1-1,1.7-1.3c-0.7-0.6-1.2-1.4-1.2-2.4c0-1.7,1.4-3.1,3.1-3.1c1.7,0,3.1,1.4,3.1,3.1c0,1-0.5,1.9-1.2,2.4
	c0.7,0.3,1.3,0.8,1.7,1.3c0.5-0.6,1-1,1.7-1.3c-0.7-0.6-1.2-1.4-1.2-2.4c0-1.7,1.4-3.1,3.1-3.1c1.7,0,3.1,1.4,3.1,3.1
	C71,35.6,70.5,36.5,69.8,37z"/>
<path id="XMLID_134_" class="st4" d="M70.4,54.1c0-0.5-0.1-1-0.3-1.4C69.6,51.1,68,50,66.3,50c-1.7,0-3.3,1.1-3.9,2.8
	c-0.2,0.4-0.3,0.9-0.3,1.4c0,1.4,0.6,2.6,1.7,3.3c-1.2,0.5-2.2,1.5-2.9,2.6c-0.7-1.2-1.7-2.1-2.9-2.6c1-0.8,1.7-2,1.7-3.3
	c0-0.5-0.1-1-0.3-1.4c-0.6-1.6-2.2-2.8-3.9-2.8h0l0,0c-1.7,0-3.3,1.1-3.9,2.8c-0.2,0.4-0.3,0.9-0.3,1.4c0,1.4,0.6,2.6,1.7,3.3
	c-1.2,0.5-2.2,1.5-2.9,2.6c-0.7-1.2-1.7-2.1-2.9-2.6c1-0.8,1.7-2,1.7-3.3c0-0.5-0.1-1-0.3-1.4c-0.6-1.6-2.2-2.8-3.9-2.8
	c-1.7,0-3.3,1.1-3.9,2.8c-0.2,0.4-0.3,0.9-0.3,1.4c0,1.4,0.6,2.6,1.7,3.3c-1.2,0.5-2.2,1.5-2.9,2.6c-0.7-1.2-1.7-2.1-2.9-2.6
	c1-0.8,1.7-2,1.7-3.3c0-0.5-0.1-1-0.3-1.4c-0.6-1.6-2.2-2.8-3.9-2.8h0l0,0c-1.7,0-3.3,1.1-3.9,2.8c-0.2,0.4-0.3,0.9-0.3,1.4
	c0,1.4,0.6,2.6,1.7,3.3c-2.2,1-3.7,3.2-3.7,5.7v3.4h1h9.8H39h0.4H40h9.2h0.6h0.4h0.6H60h0.6H61h0.6h9.8h1v-3.4
	c0-2.5-1.5-4.7-3.7-5.7C69.8,56.7,70.4,55.5,70.4,54.1z"/>
<path id="XMLID_102_" class="st5" d="M71,43.8c0-0.8-0.3-1.4-0.7-2c-1.3-1.4-3.4-1.5-4.7,0c-0.4,0.5-0.7,1.2-0.7,2
	c0,1,0.5,1.9,1.2,2.4c-0.7,0.3-1.3,0.8-1.7,1.3c-0.5-0.6-1-1-1.7-1.3c0.7-0.6,1.2-1.4,1.2-2.4c0-0.8-0.3-1.4-0.7-2
	c-1.3-1.4-3.4-1.5-4.7,0c-0.4,0.5-0.7,1.2-0.7,2c0,1,0.5,1.9,1.2,2.4c-0.7,0.3-1.3,0.8-1.7,1.3c-0.5-0.6-1-1-1.7-1.3
	c0.7-0.6,1.2-1.4,1.2-2.4c0-0.8-0.3-1.4-0.7-2c-1.3-1.4-3.4-1.5-4.7,0c-0.4,0.5-0.7,1.2-0.7,2c0,1,0.5,1.9,1.2,2.4
	C51,46.5,50.5,47,50,47.6c-0.5-0.6-1-1-1.7-1.3c0.7-0.6,1.2-1.4,1.2-2.4c0-0.8-0.3-1.4-0.7-2c-1.3-1.4-3.4-1.5-4.7,0
	c-0.4,0.5-0.7,1.2-0.7,2c0,1,0.5,1.9,1.2,2.4c-0.7,0.3-1.3,0.8-1.7,1.3c-0.5-0.6-1-1-1.7-1.3c0.7-0.6,1.2-1.4,1.2-2.4
	c0-0.8-0.3-1.4-0.7-2c-1.3-1.4-3.4-1.5-4.7,0c-0.4,0.5-0.7,1.2-0.7,2c0,1,0.5,1.9,1.2,2.4c-0.7,0.3-1.3,0.8-1.7,1.3
	c-0.5-0.6-1-1-1.7-1.3c0.7-0.6,1.2-1.4,1.2-2.4c0-0.8-0.3-1.4-0.7-2c-1.3-1.4-3.4-1.5-4.7,0c-0.4,0.5-0.7,1.2-0.7,2
	c0,1,0.5,1.9,1.2,2.4c-1.6,0.7-2.7,2.3-2.7,4.2v2.5h0.8h0.4c0.5-2.3,2.6-4,5.1-4c2.5,0,4.5,1.7,5.1,4h0.7c0.5-2.3,2.6-4,5.1-4
	s4.5,1.7,5.1,4h0.1h0.5h0.1c0.5-2.3,2.6-4,5.1-4c2.5,0,4.5,1.7,5.1,4h0.7c0.5-2.3,2.6-4,5.1-4c2.5,0,4.5,1.7,5.1,4h0.4h0.8v-2.5
	c0-1.9-1.1-3.5-2.7-4.2C70.5,45.7,71,44.8,71,43.8z"/>
</svg>
