<?xml version="1.0" encoding="utf-8"?>
<!-- Generator: Adobe Illustrator 19.0.0, SVG Export Plug-In . SVG Version: 6.00 Build 0)  -->
<svg version="1.1" id="Layer_1" xmlns="http://www.w3.org/2000/svg" xmlns:xlink="http://www.w3.org/1999/xlink" x="0px" y="0px"
	 viewBox="0 0 100 100" style="enable-background:new 0 0 100 100;" xml:space="preserve">
<style type="text/css">
	.st0{fill:#F7B52C;}
	.st1{opacity:0.43;fill:#E8E8E8;}
	.st2{fill:#404040;}
	.st3{fill:#FFFFFF;}
	.st4{fill:#969696;}
</style>
<circle id="XMLID_1097_" class="st0" cx="50" cy="50" r="44.7"/>
<circle id="XMLID_1096_" class="st1" cx="49.8" cy="50.1" r="35.2"/>
<path id="XMLID_1061_" class="st2" d="M69.8,38.7c1.6,0.7,2.7,2.3,2.7,4.2v2.5H72c0-2.2-1.9-4-4.1-4c-1.5,0-2.9,0.9-3.6,2.1
	c-1.5-2.8-5.6-2.8-7.2,0c-1.5-2.8-5.6-2.8-7.2,0c-1.5-2.8-5.6-2.8-7.2,0c-1.5-2.8-5.6-2.8-7.2,0c-0.7-1.3-2-2.1-3.6-2.1
	c-2.2,0-4.1,1.8-4.1,4h-0.5v-2.5c0-1.9,1.1-3.5,2.7-4.2c-0.7-0.6-1.2-1.4-1.2-2.4c0-1.7,1.4-3.1,3.1-3.1c1.7,0,3.1,1.4,3.1,3.1
	c0,1-0.5,1.9-1.2,2.4c0.7,0.3,1.3,0.8,1.7,1.3c0.5-0.6,1-1,1.7-1.3c-0.7-0.6-1.2-1.4-1.2-2.4c0-1.7,1.4-3.1,3.1-3.1
	c1.7,0,3.1,1.4,3.1,3.1c0,1-0.5,1.9-1.2,2.4c0.7,0.3,1.3,0.8,1.7,1.3c0.5-0.6,1-1,1.7-1.3c-0.7-0.6-1.2-1.4-1.2-2.4
	c0-1.7,1.4-3.1,3.1-3.1c1.7,0,3.1,1.4,3.1,3.1c0,1-0.5,1.9-1.2,2.4C49,39,49.5,39.4,50,40c0.5-0.6,1-1,1.7-1.3
	c-0.7-0.6-1.2-1.4-1.2-2.4c0-1.7,1.4-3.1,3.1-3.1c1.7,0,3.1,1.4,3.1,3.1c0,1-0.5,1.9-1.2,2.4c0.7,0.3,1.3,0.8,1.7,1.3
	c0.5-0.6,1-1,1.7-1.3c-0.7-0.6-1.2-1.4-1.2-2.4c0-1.7,1.4-3.1,3.1-3.1c1.7,0,3.1,1.4,3.1,3.1c0,1-0.5,1.9-1.2,2.4
	c0.7,0.3,1.3,0.8,1.7,1.3c0.5-0.6,1-1,1.7-1.3c-0.7-0.6-1.2-1.4-1.2-2.4c0-1.7,1.4-3.1,3.1-3.1c1.7,0,3.1,1.4,3.1,3.1
	C71,37.2,70.5,38.1,69.8,38.7z"/>
<path id="XMLID_1060_" class="st3" d="M70.4,55.8c0-0.5-0.1-1-0.3-1.4c-0.6-1.6-2.2-2.8-3.9-2.8c-1.7,0-3.3,1.1-3.9,2.8
	c-0.2,0.4-0.3,0.9-0.3,1.4c0,1.4,0.6,2.6,1.7,3.3c-1.2,0.5-2.2,1.5-2.9,2.6c-0.7-1.2-1.7-2.1-2.9-2.6c1-0.8,1.7-2,1.7-3.3
	c0-0.5-0.1-1-0.3-1.4c-0.6-1.6-2.2-2.8-3.9-2.8h0l0,0c-1.7,0-3.3,1.1-3.9,2.8c-0.2,0.4-0.3,0.9-0.3,1.4c0,1.4,0.6,2.6,1.7,3.3
	c-1.2,0.5-2.2,1.5-2.9,2.6c-0.7-1.2-1.7-2.1-2.9-2.6c1-0.8,1.7-2,1.7-3.3c0-0.5-0.1-1-0.3-1.4c-0.6-1.6-2.2-2.8-3.9-2.8
	c-1.7,0-3.3,1.1-3.9,2.8c-0.2,0.4-0.3,0.9-0.3,1.4c0,1.4,0.6,2.6,1.7,3.3c-1.2,0.5-2.2,1.5-2.9,2.6c-0.7-1.2-1.7-2.1-2.9-2.6
	c1-0.8,1.7-2,1.7-3.3c0-0.5-0.1-1-0.3-1.4c-0.6-1.6-2.2-2.8-3.9-2.8h0l0,0c-1.7,0-3.3,1.1-3.9,2.8c-0.2,0.4-0.3,0.9-0.3,1.4
	c0,1.4,0.6,2.6,1.7,3.3c-2.2,1-3.7,3.2-3.7,5.7v3.4h1h9.8H39h0.4H40h9.2h0.6h0.4h0.6H60h0.6H61h0.6h9.8h1v-3.4
	c0-2.5-1.5-4.7-3.7-5.7C69.8,58.3,70.4,57.1,70.4,55.8z"/>
<path id="XMLID_1059_" class="st4" d="M71,45.4c0-0.8-0.3-1.4-0.7-2c-1.3-1.4-3.4-1.5-4.7,0c-0.4,0.5-0.7,1.2-0.7,2
	c0,1,0.5,1.9,1.2,2.4c-0.7,0.3-1.3,0.8-1.7,1.3c-0.5-0.6-1-1-1.7-1.3c0.7-0.6,1.2-1.4,1.2-2.4c0-0.8-0.3-1.4-0.7-2
	c-1.3-1.4-3.4-1.5-4.7,0c-0.4,0.5-0.7,1.2-0.7,2c0,1,0.5,1.9,1.2,2.4c-0.7,0.3-1.3,0.8-1.7,1.3c-0.5-0.6-1-1-1.7-1.3
	c0.7-0.6,1.2-1.4,1.2-2.4c0-0.8-0.3-1.4-0.7-2c-1.3-1.4-3.4-1.5-4.7,0c-0.4,0.5-0.7,1.2-0.7,2c0,1,0.5,1.9,1.2,2.4
	c-0.7,0.3-1.3,0.8-1.7,1.3c-0.5-0.6-1-1-1.7-1.3c0.7-0.6,1.2-1.4,1.2-2.4c0-0.8-0.3-1.4-0.7-2c-1.3-1.4-3.4-1.5-4.7,0
	c-0.4,0.5-0.7,1.2-0.7,2c0,1,0.5,1.9,1.2,2.4c-0.7,0.3-1.3,0.8-1.7,1.3c-0.5-0.6-1-1-1.7-1.3c0.7-0.6,1.2-1.4,1.2-2.4
	c0-0.8-0.3-1.4-0.7-2c-1.3-1.4-3.4-1.5-4.7,0c-0.4,0.5-0.7,1.2-0.7,2c0,1,0.5,1.9,1.2,2.4c-0.7,0.3-1.3,0.8-1.7,1.3
	c-0.5-0.6-1-1-1.7-1.3c0.7-0.6,1.2-1.4,1.2-2.4c0-0.8-0.3-1.4-0.7-2c-1.3-1.4-3.4-1.5-4.7,0c-0.4,0.5-0.7,1.2-0.7,2
	c0,1,0.5,1.9,1.2,2.4c-1.6,0.7-2.7,2.3-2.7,4.2v2.5h0.8h0.4c0.5-2.3,2.6-4,5.1-4c2.5,0,4.5,1.7,5.1,4h0.7c0.5-2.3,2.6-4,5.1-4
	s4.5,1.7,5.1,4h0.1h0.5h0.1c0.5-2.3,2.6-4,5.1-4c2.5,0,4.5,1.7,5.1,4h0.7c0.5-2.3,2.6-4,5.1-4c2.5,0,4.5,1.7,5.1,4h0.4h0.8v-2.5
	c0-1.9-1.1-3.5-2.7-4.2C70.5,47.3,71,46.4,71,45.4z"/>
</svg>
