<?xml version="1.0" encoding="utf-8"?>
<!-- Generator: Adobe Illustrator 19.0.0, SVG Export Plug-In . SVG Version: 6.00 Build 0)  -->
<svg version="1.1" id="Layer_1" xmlns="http://www.w3.org/2000/svg" xmlns:xlink="http://www.w3.org/1999/xlink" x="0px" y="0px"
	 viewBox="0 0 100 100" style="enable-background:new 0 0 100 100;" xml:space="preserve">
<style type="text/css">
	.st0{fill:#33454C;}
	.st1{fill:#00A199;}
	.st2{fill:#001C2F;}
	.st3{opacity:0.43;fill:#E8E8E8;}
	.st4{fill:#F2F2F2;}
	.st5{fill:#C7C7C7;}
	.st6{fill:#A1A1A1;}
	.st7{fill:#404040;}
	.st8{fill:#949494;}
	.st9{fill:#FFFFFF;}
</style>
<circle id="XMLID_476_" class="st0" cx="50" cy="47.3" r="44.7"/>
<circle id="XMLID_475_" class="st1" cx="49.8" cy="47.4" r="35.2"/>
<polygon id="XMLID_474_" points="87.7,93 14.4,93 18.8,87 14.4,81 87.7,81 83.3,87 "/>
<circle id="XMLID_473_" class="st2" cx="50" cy="47.3" r="44.7"/>
<circle id="XMLID_472_" class="st3" cx="49.8" cy="47.4" r="35.2"/>
<polygon id="XMLID_471_" points="87.7,93 14.4,93 18.8,87 14.4,81 87.7,81 83.3,87 "/>
<g id="XMLID_44_">
	<path id="XMLID_15_" class="st4" d="M25,87.7c-0.6-0.2-1-0.4-1.2-0.6s-0.4-0.5-0.4-0.9c0-0.4,0.2-0.7,0.5-1
		c0.3-0.3,0.7-0.4,1.2-0.4c0.3,0,0.6,0.1,0.9,0.2s0.5,0.3,0.6,0.5s0.2,0.5,0.2,0.8h-0.7c0-0.3-0.1-0.5-0.3-0.7
		c-0.2-0.2-0.5-0.3-0.8-0.3c-0.3,0-0.6,0.1-0.8,0.2c-0.2,0.1-0.3,0.3-0.3,0.6c0,0.2,0.1,0.4,0.3,0.5c0.2,0.1,0.5,0.3,0.9,0.4
		c0.4,0.1,0.7,0.2,1,0.4s0.4,0.3,0.5,0.5c0.1,0.2,0.2,0.4,0.2,0.7c0,0.4-0.2,0.7-0.5,1S25.6,90,25.1,90c-0.3,0-0.7-0.1-0.9-0.2
		c-0.3-0.1-0.5-0.3-0.7-0.5c-0.2-0.2-0.2-0.5-0.2-0.8h0.7c0,0.3,0.1,0.5,0.3,0.7c0.2,0.2,0.5,0.3,0.9,0.3c0.3,0,0.6-0.1,0.8-0.2
		c0.2-0.1,0.3-0.3,0.3-0.6c0-0.2-0.1-0.4-0.3-0.6C25.8,88,25.5,87.9,25,87.7z"/>
	<path id="XMLID_17_" class="st4" d="M27.4,88.1c0-0.4,0.1-0.7,0.2-1c0.1-0.3,0.3-0.5,0.6-0.7c0.3-0.2,0.5-0.2,0.9-0.2
		c0.5,0,0.9,0.2,1.2,0.5c0.3,0.3,0.5,0.8,0.5,1.4v0c0,0.4-0.1,0.7-0.2,1c-0.1,0.3-0.3,0.5-0.6,0.7c-0.3,0.2-0.5,0.2-0.9,0.2
		c-0.5,0-0.9-0.2-1.2-0.5S27.4,88.7,27.4,88.1L27.4,88.1z M28,88.1c0,0.4,0.1,0.7,0.3,1s0.4,0.4,0.8,0.4c0.3,0,0.6-0.1,0.8-0.4
		c0.2-0.2,0.3-0.6,0.3-1c0-0.4-0.1-0.7-0.3-1c-0.2-0.2-0.4-0.4-0.8-0.4c-0.3,0-0.6,0.1-0.7,0.4C28.1,87.3,28,87.7,28,88.1z"/>
	<path id="XMLID_20_" class="st4" d="M33,89.5c0.2,0,0.4-0.1,0.6-0.2s0.3-0.3,0.3-0.5h0.6c0,0.2-0.1,0.4-0.2,0.6
		c-0.1,0.2-0.3,0.3-0.5,0.5S33.2,90,33,90c-0.5,0-0.9-0.2-1.2-0.5c-0.3-0.3-0.4-0.8-0.4-1.4V88c0-0.4,0.1-0.7,0.2-1
		c0.1-0.3,0.3-0.5,0.6-0.6c0.2-0.2,0.5-0.2,0.9-0.2c0.4,0,0.8,0.1,1,0.4s0.4,0.6,0.4,1h-0.6c0-0.2-0.1-0.4-0.3-0.6
		c-0.2-0.2-0.4-0.2-0.6-0.2c-0.3,0-0.6,0.1-0.7,0.3c-0.2,0.2-0.3,0.6-0.3,1v0.1c0,0.4,0.1,0.7,0.3,1C32.4,89.4,32.7,89.5,33,89.5z"
		/>
	<path id="XMLID_22_" class="st4" d="M35.2,85.3c0-0.1,0-0.2,0.1-0.3c0.1-0.1,0.2-0.1,0.3-0.1c0.1,0,0.2,0,0.3,0.1
		c0.1,0.1,0.1,0.2,0.1,0.3s0,0.2-0.1,0.3c-0.1,0.1-0.2,0.1-0.3,0.1c-0.1,0-0.2,0-0.3-0.1C35.2,85.5,35.2,85.4,35.2,85.3z M35.8,89.9
		h-0.6v-3.7h0.6V89.9z"/>
	<path id="XMLID_25_" class="st4" d="M39.1,89.9c0-0.1-0.1-0.2-0.1-0.4c-0.3,0.3-0.6,0.5-1,0.5c-0.4,0-0.7-0.1-0.9-0.3
		c-0.2-0.2-0.3-0.5-0.3-0.8c0-0.4,0.1-0.7,0.4-0.9s0.7-0.3,1.2-0.3H39v-0.3c0-0.2-0.1-0.4-0.2-0.5s-0.3-0.2-0.6-0.2
		c-0.2,0-0.4,0.1-0.6,0.2c-0.2,0.1-0.2,0.2-0.2,0.4h-0.6c0-0.2,0.1-0.4,0.2-0.5c0.1-0.2,0.3-0.3,0.5-0.4c0.2-0.1,0.5-0.1,0.7-0.1
		c0.4,0,0.8,0.1,1,0.3s0.4,0.5,0.4,0.9v1.7c0,0.3,0,0.6,0.1,0.8v0.1H39.1z M38.1,89.5c0.2,0,0.4-0.1,0.6-0.2
		c0.2-0.1,0.3-0.2,0.4-0.4v-0.8h-0.5c-0.8,0-1.2,0.2-1.2,0.7c0,0.2,0.1,0.3,0.2,0.5C37.7,89.4,37.9,89.5,38.1,89.5z"/>
	<path id="XMLID_28_" class="st4" d="M41.3,89.9h-0.6v-5.2h0.6V89.9z"/>
	<path id="XMLID_30_" class="st4" d="M44.8,88v1.9h-0.6V85h1.8c0.5,0,1,0.1,1.3,0.4c0.3,0.3,0.5,0.6,0.5,1.1c0,0.5-0.1,0.8-0.4,1.1
		c-0.3,0.3-0.7,0.4-1.3,0.4H44.8z M44.8,87.5h1.2c0.3,0,0.6-0.1,0.8-0.2s0.3-0.4,0.3-0.7c0-0.3-0.1-0.5-0.3-0.7
		c-0.2-0.2-0.4-0.3-0.8-0.3h-1.2V87.5z"/>
	<path id="XMLID_33_" class="st4" d="M50.6,89.9c0-0.1-0.1-0.2-0.1-0.4c-0.3,0.3-0.6,0.5-1,0.5c-0.4,0-0.7-0.1-0.9-0.3
		c-0.2-0.2-0.3-0.5-0.3-0.8c0-0.4,0.1-0.7,0.4-0.9s0.7-0.3,1.2-0.3h0.6v-0.3c0-0.2-0.1-0.4-0.2-0.5s-0.3-0.2-0.6-0.2
		c-0.2,0-0.4,0.1-0.6,0.2c-0.2,0.1-0.2,0.2-0.2,0.4h-0.6c0-0.2,0.1-0.4,0.2-0.5c0.1-0.2,0.3-0.3,0.5-0.4c0.2-0.1,0.5-0.1,0.7-0.1
		c0.4,0,0.8,0.1,1,0.3c0.2,0.2,0.4,0.5,0.4,0.9v1.7c0,0.3,0,0.6,0.1,0.8v0.1H50.6z M49.6,89.5c0.2,0,0.4-0.1,0.6-0.2
		c0.2-0.1,0.3-0.2,0.4-0.4v-0.8H50c-0.8,0-1.2,0.2-1.2,0.7c0,0.2,0.1,0.3,0.2,0.5C49.2,89.4,49.4,89.5,49.6,89.5z"/>
	<path id="XMLID_36_" class="st4" d="M53.9,86.8c-0.1,0-0.2,0-0.3,0c-0.4,0-0.7,0.2-0.8,0.5v2.6h-0.6v-3.7h0.6l0,0.4
		c0.2-0.3,0.5-0.5,0.9-0.5c0.1,0,0.2,0,0.3,0V86.8z"/>
	<path id="XMLID_38_" class="st4" d="M55.5,85.4v0.9h0.7v0.5h-0.7V89c0,0.1,0,0.3,0.1,0.3s0.2,0.1,0.3,0.1c0.1,0,0.2,0,0.3,0v0.5
		C56,90,55.9,90,55.7,90c-0.3,0-0.5-0.1-0.6-0.3c-0.1-0.2-0.2-0.4-0.2-0.7v-2.3h-0.7v-0.5h0.7v-0.9H55.5z"/>
	<path id="XMLID_40_" class="st4" d="M56.9,85.3c0-0.1,0-0.2,0.1-0.3c0.1-0.1,0.2-0.1,0.3-0.1c0.1,0,0.2,0,0.3,0.1
		c0.1,0.1,0.1,0.2,0.1,0.3s0,0.2-0.1,0.3c-0.1,0.1-0.2,0.1-0.3,0.1c-0.1,0-0.2,0-0.3-0.1C56.9,85.5,56.9,85.4,56.9,85.3z M57.6,89.9
		H57v-3.7h0.6V89.9z"/>
	<path id="XMLID_43_" class="st4" d="M60,89.5c0.2,0,0.4-0.1,0.6-0.2s0.3-0.3,0.3-0.5h0.6c0,0.2-0.1,0.4-0.2,0.6
		c-0.1,0.2-0.3,0.3-0.5,0.5C60.5,90,60.3,90,60,90c-0.5,0-0.9-0.2-1.2-0.5c-0.3-0.3-0.4-0.8-0.4-1.4V88c0-0.4,0.1-0.7,0.2-1
		c0.1-0.3,0.3-0.5,0.6-0.6c0.2-0.2,0.5-0.2,0.9-0.2c0.4,0,0.8,0.1,1,0.4s0.4,0.6,0.4,1h-0.6c0-0.2-0.1-0.4-0.3-0.6s-0.4-0.2-0.6-0.2
		c-0.3,0-0.6,0.1-0.7,0.3c-0.2,0.2-0.3,0.6-0.3,1v0.1c0,0.4,0.1,0.7,0.3,1C59.5,89.4,59.7,89.5,60,89.5z"/>
	<path id="XMLID_46_" class="st4" d="M62.2,85.3c0-0.1,0-0.2,0.1-0.3c0.1-0.1,0.2-0.1,0.3-0.1c0.1,0,0.2,0,0.3,0.1
		c0.1,0.1,0.1,0.2,0.1,0.3s0,0.2-0.1,0.3c-0.1,0.1-0.2,0.1-0.3,0.1c-0.1,0-0.2,0-0.3-0.1C62.2,85.5,62.2,85.4,62.2,85.3z M62.9,89.9
		h-0.6v-3.7h0.6V89.9z"/>
	<path id="XMLID_49_" class="st4" d="M67,88.1c0,0.6-0.1,1-0.4,1.3S66,90,65.6,90c-0.4,0-0.8-0.1-1-0.4v1.8h-0.6v-5.1h0.6l0,0.4
		c0.3-0.3,0.6-0.5,1.1-0.5c0.4,0,0.8,0.2,1,0.5C66.9,87,67,87.5,67,88.1L67,88.1z M66.4,88.1c0-0.4-0.1-0.7-0.3-1
		c-0.2-0.2-0.4-0.4-0.7-0.4c-0.4,0-0.7,0.2-0.9,0.5V89c0.2,0.3,0.5,0.5,0.9,0.5c0.3,0,0.5-0.1,0.7-0.4
		C66.3,88.9,66.4,88.5,66.4,88.1z"/>
	<path id="XMLID_52_" class="st4" d="M70,89.9c0-0.1-0.1-0.2-0.1-0.4c-0.3,0.3-0.6,0.5-1,0.5c-0.4,0-0.7-0.1-0.9-0.3
		c-0.2-0.2-0.3-0.5-0.3-0.8c0-0.4,0.1-0.7,0.4-0.9s0.7-0.3,1.2-0.3h0.6v-0.3c0-0.2-0.1-0.4-0.2-0.5s-0.3-0.2-0.6-0.2
		c-0.2,0-0.4,0.1-0.6,0.2c-0.2,0.1-0.2,0.2-0.2,0.4h-0.6c0-0.2,0.1-0.4,0.2-0.5c0.1-0.2,0.3-0.3,0.5-0.4c0.2-0.1,0.5-0.1,0.7-0.1
		c0.4,0,0.8,0.1,1,0.3c0.2,0.2,0.4,0.5,0.4,0.9v1.7c0,0.3,0,0.6,0.1,0.8v0.1H70z M69,89.5c0.2,0,0.4-0.1,0.6-0.2s0.3-0.2,0.4-0.4
		v-0.8h-0.5c-0.8,0-1.2,0.2-1.2,0.7c0,0.2,0.1,0.3,0.2,0.5C68.6,89.4,68.8,89.5,69,89.5z"/>
	<path id="XMLID_55_" class="st4" d="M72.4,85.4v0.9h0.7v0.5h-0.7V89c0,0.1,0,0.3,0.1,0.3s0.2,0.1,0.3,0.1c0.1,0,0.2,0,0.3,0v0.5
		c-0.2,0-0.3,0.1-0.5,0.1c-0.3,0-0.5-0.1-0.6-0.3c-0.1-0.2-0.2-0.4-0.2-0.7v-2.3h-0.7v-0.5h0.7v-0.9H72.4z"/>
	<path id="XMLID_57_" class="st4" d="M75.3,90c-0.5,0-0.9-0.2-1.2-0.5s-0.5-0.8-0.5-1.3v-0.1c0-0.4,0.1-0.7,0.2-1
		c0.1-0.3,0.3-0.5,0.6-0.7c0.2-0.2,0.5-0.2,0.8-0.2c0.5,0,0.8,0.2,1.1,0.5c0.3,0.3,0.4,0.8,0.4,1.3v0.3h-2.5c0,0.4,0.1,0.7,0.3,0.9
		c0.2,0.2,0.5,0.3,0.8,0.3c0.2,0,0.4,0,0.6-0.1c0.2-0.1,0.3-0.2,0.4-0.4l0.4,0.3C76.4,89.8,75.9,90,75.3,90z M75.3,86.7
		c-0.3,0-0.5,0.1-0.6,0.3c-0.2,0.2-0.3,0.4-0.3,0.8h1.8v0c0-0.3-0.1-0.6-0.3-0.7S75.5,86.7,75.3,86.7z"/>
</g>
<path id="XMLID_2_" class="st5" d="M70.6,36.5c-0.9,0-1.8,0.3-2.5,0.8l-5.1-6.4c0.1-0.4,0.2-0.9,0.2-1.3c0-2.5-2-4.5-4.5-4.5
	c-2.1,0-3.8,1.4-4.3,3.4l-12.7,1.3c-0.7-3.4-3.7-6-7.3-6c-4.1,0-7.4,3.3-7.4,7.4c0,3.7,2.8,6.8,6.4,7.3l3,22.9c-2,0.9-3.5,3-3.5,5.4
	c0,3.3,2.7,5.9,5.9,5.9c3,0,5.4-2.2,5.9-5l17.5-2.9c0.8,2.3,3,3.9,5.6,3.9c3.3,0,5.9-2.7,5.9-5.9c0-2.4-1.5-4.5-3.6-5.5l1.7-12.1
	c1.9-0.5,3.4-2.2,3.4-4.3C75.1,38.5,73.1,36.5,70.6,36.5z M66.5,39.1c-0.2,0.5-0.4,1.1-0.4,1.8c0,0.1,0,0.2,0,0.3l-6.9,2.9
	c-0.8-1.3-2-2.3-3.3-3l3.5-7.2c0.8-0.1,1.5-0.5,2-1L66.5,39.1z M56.8,30.7L56.8,30.7L56.8,30.7c0-0.8,0.5-1.5,1.2-1.8
	c-0.4-0.2-0.6-0.6-0.6-1.1c0-0.8,0.7-1.4,1.5-1.3c0.6,0.1,1.1,0.5,1.1,1.1c0.1,0.5-0.2,1-0.6,1.3c0.7,0.3,1.2,1,1.2,1.8h0v0v0.8
	c0,0.2-0.1,0.3-0.3,0.3h-3.3c-0.2,0-0.3-0.1-0.3-0.3V30.7z M41.7,32.2l12.7-1.3c0.4,1.3,1.3,2.3,2.6,2.8l-3.3,6.7
	c-0.6-0.1-1.2-0.2-1.9-0.2c-2.4,0-4.6,0.9-6.2,2.5L39.9,36C40.9,35,41.5,33.6,41.7,32.2z M49.3,45.6c0-1.5,1.3-2.8,2.9-2.6
	c1.2,0.1,2.1,1.1,2.3,2.2c0.1,1.1-0.4,2-1.2,2.6c1.4,0.6,2.4,1.9,2.4,3.5h0v0V53c0,0.3-0.3,0.6-0.6,0.6h-6.5c-0.3,0-0.6-0.3-0.6-0.6
	v-1.6v0h0c0-1.6,1-3,2.4-3.5C49.8,47.4,49.3,46.6,49.3,45.6z M31.6,35c-0.3,0-0.5-0.2-0.5-0.5v-1.3v0h0c0-1.3,0.9-2.5,2-2.9
	c-0.6-0.4-1-1.1-1-1.8c0-1.3,1.1-2.3,2.4-2.2c1,0.1,1.8,0.9,1.9,1.9c0.1,0.9-0.3,1.7-1,2.1c1.2,0.5,2,1.6,2,2.9h0v0v1.3
	c0,0.3-0.2,0.5-0.5,0.5H31.6z M41.3,68.4v1c0,0.2-0.2,0.4-0.4,0.4h-4.3c-0.2,0-0.4-0.2-0.4-0.4v-1v0h0c0-1.1,0.7-2,1.6-2.4
	c-0.5-0.3-0.8-0.9-0.8-1.5c0-1,0.9-1.8,1.9-1.7c0.8,0.1,1.4,0.7,1.5,1.5c0.1,0.7-0.3,1.4-0.8,1.7C40.6,66.4,41.3,67.3,41.3,68.4
	L41.3,68.4L41.3,68.4z M41.5,61.5c-0.8-0.4-1.8-0.7-2.7-0.7c0,0-0.1,0-0.1,0l-2.9-22.4c0.9-0.2,1.7-0.5,2.5-0.9l6.1,6.9
	C43.4,45.8,43,47.3,43,49c0,2.2,0.8,4.2,2.2,5.8L41.5,61.5z M61.7,62.5l-17.2,2.8c-0.2-0.8-0.6-1.6-1.1-2.3l3.6-6.7
	c1.4,0.9,3.1,1.5,4.9,1.5c2.6,0,5-1.1,6.6-3l4.6,4.1C62.3,60,61.8,61.2,61.7,62.5z M59.8,53c0.6-1.2,0.9-2.5,0.9-4
	c0-1-0.2-1.9-0.4-2.7l6.6-2.8c0.6,0.8,1.4,1.4,2.4,1.7l-1.7,11.7c0,0,0,0,0,0c-1,0-1.9,0.2-2.7,0.6L59.8,53z M70.2,64.4L70.2,64.4
	L70.2,64.4l0,1.1c0,0.2-0.2,0.4-0.4,0.4h-4.3c-0.2,0-0.4-0.2-0.4-0.4v-1v0h0c0-1.1,0.7-2,1.6-2.4c-0.5-0.3-0.8-0.9-0.8-1.5
	c0-1,0.9-1.8,1.9-1.7c0.8,0.1,1.4,0.7,1.5,1.5c0.1,0.7-0.3,1.4-0.8,1.7C69.5,62.4,70.2,63.3,70.2,64.4z M72.5,42.1v0.8
	c0,0.2-0.1,0.3-0.3,0.3H69c-0.2,0-0.3-0.1-0.3-0.3v-0.8v0h0c0-0.8,0.5-1.5,1.2-1.8c-0.4-0.2-0.6-0.6-0.6-1.1c0-0.8,0.7-1.4,1.5-1.3
	c0.6,0.1,1.1,0.5,1.1,1.1c0.1,0.5-0.2,1-0.6,1.3C72,40.6,72.5,41.3,72.5,42.1L72.5,42.1L72.5,42.1z"/>
<path id="XMLID_318_" class="st6" d="M37.3,32.2v-1.3v0h0c0-1.4-0.9-2.5-2.1-3c0.7-0.4,1.1-1.3,1-2.2c-0.1-1-0.9-1.8-1.9-1.9
	c-1.3-0.2-2.5,0.9-2.5,2.2c0,0.8,0.4,1.5,1,1.9c-1.2,0.5-2.1,1.6-2.1,3h0v0v1.3c0,0.3,0.2,0.5,0.5,0.5h5.5
	C37.1,32.7,37.3,32.5,37.3,32.2z"/>
<path id="XMLID_319_" class="st6" d="M39.4,64.4c0.6-0.4,0.9-1,0.8-1.7c-0.1-0.8-0.8-1.4-1.6-1.5c-1.1-0.1-2,0.7-2,1.8
	c0,0.6,0.3,1.2,0.8,1.5c-1,0.4-1.7,1.3-1.7,2.4h0v0v1.1c0,0.2,0.2,0.4,0.4,0.4h4.4c0.2,0,0.4-0.2,0.4-0.4v-1.1v0h0
	C41.1,65.7,40.4,64.8,39.4,64.4z"/>
<path id="XMLID_320_" class="st7" d="M48,49.4L48,49.4L48,49.4l0,1.6c0,0.3,0.3,0.6,0.6,0.6h6.6c0.3,0,0.6-0.3,0.6-0.6v-1.6v0h0
	c0-1.6-1-3-2.5-3.6c0.8-0.5,1.4-1.5,1.2-2.6c-0.2-1.2-1.1-2.2-2.3-2.3c-1.6-0.2-3,1.1-3,2.6c0,1,0.5,1.8,1.3,2.3
	C49,46.4,48,47.8,48,49.4z"/>
<path id="XMLID_332_" class="st6" d="M57.2,29.4h3.3c0.2,0,0.3-0.1,0.3-0.3v-0.8v0h0c0-0.8-0.5-1.5-1.2-1.8c0.4-0.3,0.7-0.8,0.6-1.3
	c-0.1-0.6-0.6-1.1-1.2-1.1c-0.8-0.1-1.5,0.5-1.5,1.3c0,0.5,0.3,0.9,0.6,1.1c-0.7,0.3-1.2,1-1.2,1.8h0v0v0.8
	C56.9,29.3,57,29.4,57.2,29.4z"/>
<path id="XMLID_333_" class="st8" d="M71.7,38.2c0.4-0.3,0.7-0.8,0.6-1.3c-0.1-0.6-0.6-1.1-1.2-1.1c-0.8-0.1-1.5,0.5-1.5,1.3
	c0,0.5,0.3,0.9,0.6,1.1c-0.7,0.3-1.2,1-1.2,1.8h0v0v0.8c0,0.2,0.1,0.3,0.3,0.3h3.3c0.2,0,0.3-0.1,0.3-0.3V40v0h0
	C73,39.2,72.4,38.5,71.7,38.2z"/>
<path id="XMLID_345_" class="st8" d="M68.9,60.4c0.6-0.4,0.9-1,0.8-1.7c-0.1-0.8-0.8-1.4-1.6-1.5c-1.1-0.1-2,0.7-2,1.8
	c0,0.6,0.3,1.2,0.8,1.5c-1,0.4-1.7,1.3-1.7,2.4h0v0v1.1c0,0.2,0.2,0.4,0.4,0.4h4.4c0.2,0,0.4-0.2,0.4-0.4v-1.1v0h0
	C70.6,61.7,69.9,60.7,68.9,60.4z"/>
<path id="XMLID_348_" class="st9" d="M71,34.2c-1,0-1.9,0.3-2.6,0.8l-5.2-6.5c0.1-0.4,0.2-0.9,0.2-1.4c0-2.5-2-4.5-4.5-4.5
	c-2.1,0-3.9,1.5-4.4,3.5l-13,1.4c-0.7-3.5-3.7-6.1-7.4-6.1c-4.2,0-7.6,3.4-7.6,7.6c0,3.8,2.8,7,6.5,7.5l3,23.4
	c-2.1,1-3.5,3.1-3.5,5.5c0,3.3,2.7,6.1,6.1,6.1c3,0,5.5-2.2,6-5.1l17.8-2.9c0.8,2.3,3.1,4,5.7,4c3.3,0,6.1-2.7,6.1-6.1
	c0-2.5-1.5-4.6-3.7-5.6l1.8-12.4c2-0.5,3.4-2.3,3.4-4.4C75.6,36.3,73.5,34.2,71,34.2z M66.9,37c-0.2,0.6-0.4,1.2-0.4,1.8
	c0,0.1,0,0.2,0,0.3l-7,2.9c-0.9-1.3-2-2.4-3.4-3.1l3.6-7.3c0.8-0.1,1.5-0.5,2.1-1L66.9,37z M56.9,28.4L56.9,28.4L56.9,28.4
	c0-0.8,0.5-1.5,1.2-1.8c-0.4-0.2-0.6-0.7-0.6-1.1c0-0.8,0.7-1.4,1.5-1.3c0.6,0.1,1.1,0.5,1.2,1.1c0.1,0.5-0.2,1-0.6,1.3
	c0.7,0.3,1.2,1,1.2,1.8h0v0v0.8c0,0.2-0.1,0.3-0.3,0.3h-3.3c-0.2,0-0.3-0.1-0.3-0.3V28.4z M41.5,29.8l13-1.4
	c0.4,1.3,1.4,2.3,2.6,2.8l-3.3,6.8c-0.6-0.1-1.2-0.2-1.9-0.2c-2.4,0-4.7,1-6.3,2.5l-5.9-6.7C40.7,32.7,41.3,31.3,41.5,29.8z
	 M49.2,43.6c0-1.6,1.4-2.8,3-2.6c1.2,0.1,2.2,1.1,2.3,2.3c0.1,1.1-0.4,2.1-1.2,2.6c1.4,0.6,2.5,2,2.5,3.6h0v0v1.6
	c0,0.3-0.3,0.6-0.6,0.6h-6.6c-0.3,0-0.6-0.3-0.6-0.6v-1.6v0h0c0-1.6,1-3,2.5-3.6C49.7,45.4,49.2,44.5,49.2,43.6z M31.2,32.7
	c-0.3,0-0.5-0.2-0.5-0.5v-1.3v0h0c0-1.4,0.9-2.5,2.1-3c-0.6-0.4-1-1.1-1-1.9c0-1.3,1.1-2.4,2.5-2.2c1,0.1,1.8,0.9,1.9,1.9
	c0.1,0.9-0.3,1.7-1,2.2c1.2,0.5,2.1,1.6,2.1,3h0v0v1.3c0,0.3-0.2,0.5-0.5,0.5H31.2z M41.1,66.8v1.1c0,0.2-0.2,0.4-0.4,0.4h-4.4
	c-0.2,0-0.4-0.2-0.4-0.4v-1.1v0h0c0-1.1,0.7-2,1.7-2.4c-0.5-0.3-0.8-0.9-0.8-1.5c0-1,0.9-1.9,2-1.8c0.8,0.1,1.5,0.7,1.6,1.5
	c0.1,0.7-0.3,1.4-0.8,1.7C40.4,64.8,41.1,65.7,41.1,66.8L41.1,66.8L41.1,66.8z M41.3,59.8c-0.8-0.4-1.8-0.7-2.8-0.7
	c-0.1,0-0.1,0-0.2,0l-3-22.9c0.9-0.2,1.7-0.5,2.5-0.9l6.2,7c-0.8,1.4-1.3,2.9-1.3,4.6c0,2.3,0.8,4.3,2.2,5.9L41.3,59.8z M61.9,60.8
	l-17.6,2.9c-0.2-0.9-0.6-1.7-1.2-2.3l3.7-6.8c1.4,1,3.2,1.5,5,1.5c2.7,0,5.1-1.2,6.8-3l4.7,4.2C62.5,58.2,62,59.5,61.9,60.8z
	 M60,51.1c0.6-1.2,1-2.6,1-4.1c0-1-0.2-1.9-0.4-2.8l6.8-2.8c0.6,0.8,1.4,1.5,2.4,1.8L68,55.1c0,0,0,0,0,0c-1,0-1.9,0.2-2.7,0.7
	L60,51.1z M70.6,62.8L70.6,62.8L70.6,62.8l0,1.1c0,0.2-0.2,0.4-0.4,0.4h-4.4c-0.2,0-0.4-0.2-0.4-0.4v-1.1v0h0c0-1.1,0.7-2,1.7-2.4
	c-0.5-0.3-0.8-0.9-0.8-1.5c0-1,0.9-1.9,2-1.8c0.8,0.1,1.5,0.7,1.6,1.5c0.1,0.7-0.3,1.4-0.8,1.7C69.9,60.7,70.6,61.7,70.6,62.8z
	 M73,40v0.8c0,0.2-0.1,0.3-0.3,0.3h-3.3c-0.2,0-0.3-0.1-0.3-0.3V40v0h0c0-0.8,0.5-1.5,1.2-1.8c-0.4-0.2-0.6-0.7-0.6-1.1
	c0-0.8,0.7-1.4,1.5-1.3c0.6,0.1,1.1,0.5,1.2,1.1c0.1,0.5-0.2,1-0.6,1.3C72.4,38.5,73,39.2,73,40L73,40L73,40z"/>
</svg>
