<?xml version="1.0" encoding="utf-8"?>
<!-- Generator: Adobe Illustrator 19.0.0, SVG Export Plug-In . SVG Version: 6.00 Build 0)  -->
<svg version="1.1" id="Layer_1" xmlns="http://www.w3.org/2000/svg" xmlns:xlink="http://www.w3.org/1999/xlink" x="0px" y="0px"
	 viewBox="0 0 100 100" style="enable-background:new 0 0 100 100;" xml:space="preserve">
<style type="text/css">
	.st0{fill:#33454C;}
	.st1{fill:#00A199;}
	.st2{fill:#001C2F;}
	.st3{opacity:0.43;fill:#E8E8E8;}
	.st4{fill:#C7C7C7;}
	.st5{fill:#A1A1A1;}
	.st6{fill:#404040;}
	.st7{fill:#949494;}
	.st8{fill:#FFFFFF;}
</style>
<circle id="XMLID_1019_" class="st0" cx="50" cy="50" r="44.7"/>
<circle id="XMLID_1018_" class="st1" cx="49.8" cy="50.1" r="35.2"/>
<circle id="XMLID_1016_" class="st2" cx="50" cy="50" r="44.7"/>
<circle id="XMLID_1015_" class="st3" cx="49.8" cy="50.1" r="35.2"/>
<path id="XMLID_953_" class="st4" d="M70.6,39.2c-0.9,0-1.8,0.3-2.5,0.8l-5.1-6.4c0.1-0.4,0.2-0.9,0.2-1.3c0-2.5-2-4.5-4.5-4.5
	c-2.1,0-3.8,1.4-4.3,3.4l-12.7,1.3c-0.7-3.4-3.7-6-7.3-6c-4.1,0-7.4,3.3-7.4,7.4c0,3.7,2.8,6.8,6.4,7.3l3,22.9c-2,0.9-3.5,3-3.5,5.4
	c0,3.3,2.7,5.9,5.9,5.9c3,0,5.4-2.2,5.9-5l17.5-2.9c0.8,2.3,3,3.9,5.6,3.9c3.3,0,5.9-2.7,5.9-5.9c0-2.4-1.5-4.5-3.6-5.5l1.7-12.1
	c1.9-0.5,3.4-2.2,3.4-4.3C75.1,41.2,73.1,39.2,70.6,39.2z M66.5,41.8c-0.2,0.5-0.4,1.1-0.4,1.8c0,0.1,0,0.2,0,0.3l-6.9,2.9
	c-0.8-1.3-2-2.3-3.3-3l3.5-7.2c0.8-0.1,1.5-0.5,2-1L66.5,41.8z M56.8,33.4L56.8,33.4L56.8,33.4c0-0.8,0.5-1.5,1.2-1.8
	c-0.4-0.2-0.6-0.6-0.6-1.1c0-0.8,0.7-1.4,1.5-1.3c0.6,0.1,1.1,0.5,1.1,1.1c0.1,0.5-0.2,1-0.6,1.3c0.7,0.3,1.2,1,1.2,1.8h0v0v0.8
	c0,0.2-0.1,0.3-0.3,0.3h-3.3c-0.2,0-0.3-0.1-0.3-0.3V33.4z M41.7,34.9l12.7-1.3c0.4,1.3,1.3,2.3,2.6,2.8L53.7,43
	c-0.6-0.1-1.2-0.2-1.9-0.2c-2.4,0-4.6,0.9-6.2,2.5l-5.8-6.5C40.9,37.7,41.5,36.3,41.7,34.9z M49.3,48.3c0-1.5,1.3-2.8,2.9-2.6
	c1.2,0.1,2.1,1.1,2.3,2.2c0.1,1.1-0.4,2-1.2,2.6c1.4,0.6,2.4,1.9,2.4,3.5h0v0v1.6c0,0.3-0.3,0.6-0.6,0.6h-6.5
	c-0.3,0-0.6-0.3-0.6-0.6v-1.6v0h0c0-1.6,1-3,2.4-3.5C49.8,50.1,49.3,49.3,49.3,48.3z M31.6,37.7c-0.3,0-0.5-0.2-0.5-0.5v-1.3v0h0
	c0-1.3,0.9-2.5,2-2.9c-0.6-0.4-1-1.1-1-1.8c0-1.3,1.1-2.3,2.4-2.2c1,0.1,1.8,0.9,1.9,1.9c0.1,0.9-0.3,1.7-1,2.1c1.2,0.5,2,1.6,2,2.9
	h0v0v1.3c0,0.3-0.2,0.5-0.5,0.5H31.6z M41.3,71.1v1c0,0.2-0.2,0.4-0.4,0.4h-4.3c-0.2,0-0.4-0.2-0.4-0.4v-1v0h0c0-1.1,0.7-2,1.6-2.4
	c-0.5-0.3-0.8-0.9-0.8-1.5c0-1,0.9-1.8,1.9-1.7c0.8,0.1,1.4,0.7,1.5,1.5c0.1,0.7-0.3,1.4-0.8,1.7C40.6,69.1,41.3,70,41.3,71.1
	L41.3,71.1L41.3,71.1z M41.5,64.2c-0.8-0.4-1.8-0.7-2.7-0.7c0,0-0.1,0-0.1,0l-2.9-22.4c0.9-0.2,1.7-0.5,2.5-0.9l6.1,6.9
	C43.4,48.5,43,50,43,51.7c0,2.2,0.8,4.2,2.2,5.8L41.5,64.2z M61.7,65.2L44.5,68c-0.2-0.8-0.6-1.6-1.1-2.3l3.6-6.7
	c1.4,0.9,3.1,1.5,4.9,1.5c2.6,0,5-1.1,6.6-3l4.6,4.1C62.3,62.7,61.8,63.9,61.7,65.2z M59.8,55.7c0.6-1.2,0.9-2.5,0.9-4
	c0-1-0.2-1.9-0.4-2.7l6.6-2.8c0.6,0.8,1.4,1.4,2.4,1.7l-1.7,11.7c0,0,0,0,0,0c-1,0-1.9,0.2-2.7,0.6L59.8,55.7z M70.2,67.1L70.2,67.1
	L70.2,67.1l0,1.1c0,0.2-0.2,0.4-0.4,0.4h-4.3c-0.2,0-0.4-0.2-0.4-0.4v-1v0h0c0-1.1,0.7-2,1.6-2.4c-0.5-0.3-0.8-0.9-0.8-1.5
	c0-1,0.9-1.8,1.9-1.7c0.8,0.1,1.4,0.7,1.5,1.5c0.1,0.7-0.3,1.4-0.8,1.7C69.5,65.1,70.2,66,70.2,67.1z M72.5,44.8v0.8
	c0,0.2-0.1,0.3-0.3,0.3H69c-0.2,0-0.3-0.1-0.3-0.3v-0.8v0h0c0-0.8,0.5-1.5,1.2-1.8c-0.4-0.2-0.6-0.6-0.6-1.1c0-0.8,0.7-1.4,1.5-1.3
	c0.6,0.1,1.1,0.5,1.1,1.1c0.1,0.5-0.2,1-0.6,1.3C72,43.3,72.5,44,72.5,44.8L72.5,44.8L72.5,44.8z"/>
<path id="XMLID_952_" class="st5" d="M37.3,34.9v-1.3v0h0c0-1.4-0.9-2.5-2.1-3c0.7-0.4,1.1-1.3,1-2.2c-0.1-1-0.9-1.8-1.9-1.9
	c-1.3-0.2-2.5,0.9-2.5,2.2c0,0.8,0.4,1.5,1,1.9c-1.2,0.5-2.1,1.6-2.1,3h0v0v1.3c0,0.3,0.2,0.5,0.5,0.5h5.5
	C37.1,35.4,37.3,35.2,37.3,34.9z"/>
<path id="XMLID_951_" class="st5" d="M39.4,67.1c0.6-0.4,0.9-1,0.8-1.7c-0.1-0.8-0.8-1.4-1.6-1.5c-1.1-0.1-2,0.7-2,1.8
	c0,0.6,0.3,1.2,0.8,1.5c-1,0.4-1.7,1.3-1.7,2.4h0v0v1.1c0,0.2,0.2,0.4,0.4,0.4h4.4c0.2,0,0.4-0.2,0.4-0.4v-1.1v0h0
	C41.1,68.4,40.4,67.5,39.4,67.1z"/>
<path id="XMLID_950_" class="st6" d="M48,52.1L48,52.1L48,52.1l0,1.6c0,0.3,0.3,0.6,0.6,0.6h6.6c0.3,0,0.6-0.3,0.6-0.6v-1.6v0h0
	c0-1.6-1-3-2.5-3.6c0.8-0.5,1.4-1.5,1.2-2.6c-0.2-1.2-1.1-2.2-2.3-2.3c-1.6-0.2-3,1.1-3,2.6c0,1,0.5,1.8,1.3,2.3
	C49,49.1,48,50.5,48,52.1z"/>
<path id="XMLID_949_" class="st5" d="M57.2,32.1h3.3c0.2,0,0.3-0.1,0.3-0.3V31v0h0c0-0.8-0.5-1.5-1.2-1.8c0.4-0.3,0.7-0.8,0.6-1.3
	c-0.1-0.6-0.6-1.1-1.2-1.1c-0.8-0.1-1.5,0.5-1.5,1.3c0,0.5,0.3,0.9,0.6,1.1c-0.7,0.3-1.2,1-1.2,1.8h0v0v0.8
	C56.9,32,57,32.1,57.2,32.1z"/>
<path id="XMLID_948_" class="st7" d="M71.7,40.9c0.4-0.3,0.7-0.8,0.6-1.3c-0.1-0.6-0.6-1.1-1.2-1.1c-0.8-0.1-1.5,0.5-1.5,1.3
	c0,0.5,0.3,0.9,0.6,1.1c-0.7,0.3-1.2,1-1.2,1.8h0v0v0.8c0,0.2,0.1,0.3,0.3,0.3h3.3c0.2,0,0.3-0.1,0.3-0.3v-0.8v0h0
	C73,41.9,72.4,41.2,71.7,40.9z"/>
<path id="XMLID_947_" class="st7" d="M68.9,63c0.6-0.4,0.9-1,0.8-1.7c-0.1-0.8-0.8-1.4-1.6-1.5c-1.1-0.1-2,0.7-2,1.8
	c0,0.6,0.3,1.2,0.8,1.5c-1,0.4-1.7,1.3-1.7,2.4h0v0v1.1c0,0.2,0.2,0.4,0.4,0.4h4.4c0.2,0,0.4-0.2,0.4-0.4v-1.1v0h0
	C70.6,64.3,69.9,63.4,68.9,63z"/>
<path id="XMLID_934_" class="st8" d="M71,36.9c-1,0-1.9,0.3-2.6,0.8l-5.2-6.5c0.1-0.4,0.2-0.9,0.2-1.4c0-2.5-2-4.5-4.5-4.5
	c-2.1,0-3.9,1.5-4.4,3.5l-13,1.4c-0.7-3.5-3.7-6.1-7.4-6.1c-4.2,0-7.6,3.4-7.6,7.6c0,3.8,2.8,7,6.5,7.5l3,23.4
	c-2.1,1-3.5,3.1-3.5,5.5c0,3.3,2.7,6.1,6.1,6.1c3,0,5.5-2.2,6-5.1l17.8-2.9c0.8,2.3,3.1,4,5.7,4c3.3,0,6.1-2.7,6.1-6.1
	c0-2.5-1.5-4.6-3.7-5.6l1.8-12.4c2-0.5,3.4-2.3,3.4-4.4C75.6,39,73.5,36.9,71,36.9z M66.9,39.6c-0.2,0.6-0.4,1.2-0.4,1.8
	c0,0.1,0,0.2,0,0.3l-7,2.9c-0.9-1.3-2-2.4-3.4-3.1l3.6-7.3c0.8-0.1,1.5-0.5,2.1-1L66.9,39.6z M56.9,31L56.9,31L56.9,31
	c0-0.8,0.5-1.5,1.2-1.8c-0.4-0.2-0.6-0.7-0.6-1.1c0-0.8,0.7-1.4,1.5-1.3c0.6,0.1,1.1,0.5,1.2,1.1c0.1,0.5-0.2,1-0.6,1.3
	c0.7,0.3,1.2,1,1.2,1.8h0v0v0.8c0,0.2-0.1,0.3-0.3,0.3h-3.3c-0.2,0-0.3-0.1-0.3-0.3V31z M41.5,32.5l13-1.4c0.4,1.3,1.4,2.3,2.6,2.8
	l-3.3,6.8c-0.6-0.1-1.2-0.2-1.9-0.2c-2.4,0-4.7,1-6.3,2.5l-5.9-6.7C40.7,35.4,41.3,34,41.5,32.5z M49.2,46.3c0-1.6,1.4-2.8,3-2.6
	c1.2,0.1,2.2,1.1,2.3,2.3c0.1,1.1-0.4,2.1-1.2,2.6c1.4,0.6,2.5,2,2.5,3.6h0v0v1.6c0,0.3-0.3,0.6-0.6,0.6h-6.6
	c-0.3,0-0.6-0.3-0.6-0.6v-1.6v0h0c0-1.6,1-3,2.5-3.6C49.7,48.1,49.2,47.2,49.2,46.3z M31.2,35.4c-0.3,0-0.5-0.2-0.5-0.5v-1.3v0h0
	c0-1.4,0.9-2.5,2.1-3c-0.6-0.4-1-1.1-1-1.9c0-1.3,1.1-2.4,2.5-2.2c1,0.1,1.8,0.9,1.9,1.9c0.1,0.9-0.3,1.7-1,2.2
	c1.2,0.5,2.1,1.6,2.1,3h0v0v1.3c0,0.3-0.2,0.5-0.5,0.5H31.2z M41.1,69.5v1.1c0,0.2-0.2,0.4-0.4,0.4h-4.4c-0.2,0-0.4-0.2-0.4-0.4
	v-1.1v0h0c0-1.1,0.7-2,1.7-2.4c-0.5-0.3-0.8-0.9-0.8-1.5c0-1,0.9-1.9,2-1.8c0.8,0.1,1.5,0.7,1.6,1.5c0.1,0.7-0.3,1.4-0.8,1.7
	C40.4,67.5,41.1,68.4,41.1,69.5L41.1,69.5L41.1,69.5z M41.3,62.5c-0.8-0.4-1.8-0.7-2.8-0.7c-0.1,0-0.1,0-0.2,0l-3-22.9
	c0.9-0.2,1.7-0.5,2.5-0.9l6.2,7c-0.8,1.4-1.3,2.9-1.3,4.6c0,2.3,0.8,4.3,2.2,5.9L41.3,62.5z M61.9,63.5l-17.6,2.9
	c-0.2-0.9-0.6-1.7-1.2-2.3l3.7-6.8c1.4,1,3.2,1.5,5,1.5c2.7,0,5.1-1.2,6.8-3l4.7,4.2C62.5,60.9,62,62.2,61.9,63.5z M60,53.8
	c0.6-1.2,1-2.6,1-4.1c0-1-0.2-1.9-0.4-2.8l6.8-2.8c0.6,0.8,1.4,1.5,2.4,1.8L68,57.8c0,0,0,0,0,0c-1,0-1.9,0.2-2.7,0.7L60,53.8z
	 M70.6,65.4L70.6,65.4L70.6,65.4l0,1.1c0,0.2-0.2,0.4-0.4,0.4h-4.4c-0.2,0-0.4-0.2-0.4-0.4v-1.1v0h0c0-1.1,0.7-2,1.7-2.4
	c-0.5-0.3-0.8-0.9-0.8-1.5c0-1,0.9-1.9,2-1.8c0.8,0.1,1.5,0.7,1.6,1.5c0.1,0.7-0.3,1.4-0.8,1.7C69.9,63.4,70.6,64.3,70.6,65.4z
	 M73,42.7v0.8c0,0.2-0.1,0.3-0.3,0.3h-3.3c-0.2,0-0.3-0.1-0.3-0.3v-0.8v0h0c0-0.8,0.5-1.5,1.2-1.8c-0.4-0.2-0.6-0.7-0.6-1.1
	c0-0.8,0.7-1.4,1.5-1.3c0.6,0.1,1.1,0.5,1.2,1.1c0.1,0.5-0.2,1-0.6,1.3C72.4,41.2,73,41.9,73,42.7L73,42.7L73,42.7z"/>
</svg>
