<?xml version="1.0" encoding="utf-8"?>
<!-- Generator: Adobe Illustrator 19.0.0, SVG Export Plug-In . SVG Version: 6.00 Build 0)  -->
<svg version="1.1" id="Layer_1" xmlns="http://www.w3.org/2000/svg" xmlns:xlink="http://www.w3.org/1999/xlink" x="0px" y="0px"
	 viewBox="0 0 361 181" style="enable-background:new 0 0 361 181;" xml:space="preserve">
<style type="text/css">
	.st0{opacity:0.42;}
	.st1{clip-path:url(#XMLID_2_);fill:#FFFFFF;}
	.st2{fill:#B91C22;}
	.st3{fill:#040000;}
</style>
<g id="XMLID_107_" class="st0">
	<g id="XMLID_389_">
		<defs>
			<rect id="XMLID_390_" x="0.5" y="0.4" width="360.5" height="63.6"/>
		</defs>
		<clipPath id="XMLID_2_">
			<use xlink:href="#XMLID_390_"  style="overflow:visible;"/>
		</clipPath>
		<path id="XMLID_391_" class="st1" d="M0,0.4V64V0.4z"/>
		<rect id="XMLID_392_" class="st1" width="361" height="64"/>
		<path id="XMLID_393_" class="st1" d="M361,64V0.4V64z"/>
	</g>
</g>
<g id="XMLID_100_">
	<g id="XMLID_103_">
		<g id="XMLID_104_">
			<path id="XMLID_704_" class="st2" d="M77.8,32.9H17.3c-0.8,0-1.5-0.6-1.6-1.4c-0.1-0.8-0.1-2.2,0-3.5c0-0.5,0-1,0-1.4
				c0-13,8.7-21.7,21.6-21.7c9.7,0,17.3,5,20.9,13.5c2.2-3,5.6-4.9,9.3-4.9c7,0,11.9,4.8,11.9,11.7v6.1
				C79.4,32.2,78.6,32.9,77.8,32.9z M18.9,29.7h57.3v-4.4c0-5.9-4.4-8.5-8.7-8.5c-3.6,0-6.8,2.5-8.1,6.3c-0.2,0.7-0.8,1.1-1.6,1.1
				c-0.7,0-1.3-0.5-1.5-1.2c-2.4-9.3-9.5-14.8-19-14.8C26.2,8.2,19,15.4,19,26.6c0,0.4,0,0.9,0,1.5C18.9,28.6,18.9,29.2,18.9,29.7z"
				/>
		</g>
	</g>
	<g id="XMLID_101_">
		<g id="XMLID_102_">
			<path id="XMLID_701_" class="st3" d="M73.2,45.9c-4.4,0-8.1-3.1-9.6-7.4c-2.4,9.2-9.4,16-20.5,16c-11.4,0-20-7.3-20-20.1
				c0-1.3-0.1-3.7,0-4.7h60.4c0,2.1,0,4.4,0,6.1C83.5,42.1,78.9,45.9,73.2,45.9z"/>
		</g>
	</g>
</g>
<g id="XMLID_99_">
	<path id="XMLID_343_" class="st3" d="M102.8,33.6c-2,4.4-5.1,8.9-8,11.7c-0.6-0.7-2-2.1-2.8-2.7c2.8-2.4,5.7-6.3,7.3-10.1
		L102.8,33.6z M110.3,45.9c2.2,2.9,4.6,6.7,5.9,9.2l-3.3,1.7c-0.3-0.8-0.8-1.7-1.4-2.6c-12.9,1-14.8,1.2-16.1,1.7
		c-0.2-0.7-0.8-2.5-1.3-3.4c0.9-0.2,1.6-1,2.7-2.1c1.1-1.2,4.5-5.7,6.6-10.1l3.7,1.6c-2.1,3.6-4.6,7.2-7.2,10.1l9.8-0.6
		c-0.9-1.3-1.7-2.7-2.6-3.9L110.3,45.9z M110.8,32.5c1.2,3.7,3.6,7.5,6.9,9.5c-0.7,0.7-1.9,2.2-2.4,3.2c-3.1-2.3-5.4-5.9-6.9-9.5
		H104v-3.3H110.8z"/>
	<path id="XMLID_347_" class="st3" d="M135.6,47.7c1.2,3.3,2.9,5.6,4.4,5.6c0.7,0,0.9-1.1,1.1-3.8c0.7,0.6,1.9,1.2,2.8,1.5
		c-0.5,4.4-1.6,5.4-4,5.4c-3.3,0-6.2-3.7-7.6-8.8h-7v5l6.4-1.3c0,0.9,0.2,2.3,0.3,3c-7.9,1.8-9.2,2.1-10,2.5
		c-0.2-0.8-0.9-2.2-1.4-2.8c0.6-0.4,1.4-1.1,1.4-2.3V33h19.5v8.7h-7c0.1,1,0.2,2,0.4,3h8.5v3H135.6z M125.2,36v2.8h12.9V36H125.2z
		 M131.5,44.8c-0.2-1-0.3-2-0.4-3h-5.9v3H131.5z"/>
	<path id="XMLID_351_" class="st3" d="M154.6,48.9c-0.3-0.8-1-1.9-1.6-2.9v10.9h-3.1v-9.6c-0.9,2.1-1.9,4-2.9,5.3
		c-0.3-0.9-1-2.2-1.5-3c1.5-1.7,3-4.6,4-7.2h-3.6v-3h4v-3c-1,0.2-2,0.3-3,0.4c-0.1-0.7-0.5-1.8-0.9-2.5c3.1-0.5,6.4-1.3,8.6-2.2
		l1.8,2.6c-1,0.4-2.2,0.7-3.5,1v3.7h3.5v3h-3.5v0.2c0.8,0.8,3,3.3,3.5,3.9L154.6,48.9z M167.8,50.1v6.7h-3.1v-6.2l-8.1,1.4l-0.5-3
		l8.6-1.5V31.8h3.1V47l2.7-0.5l0.5,3L167.8,50.1z M161,46.3c-0.8-1.2-2.7-2.9-4.3-4.1l2-1.8c1.5,1.1,3.5,2.7,4.4,3.9L161,46.3z
		 M161.7,39.3c-0.8-1.2-2.5-2.9-4-4l2.1-1.8c1.4,1.1,3.3,2.7,4.1,3.9L161.7,39.3z"/>
	<path id="XMLID_356_" class="st3" d="M181.9,46.1c-0.9,0.3-1.9,0.5-2.9,0.8v6.4c0,1.6-0.3,2.3-1.2,2.8c-0.9,0.5-2.2,0.6-4,0.6
		c-0.1-0.8-0.5-2.1-0.9-2.9c1,0,2.1,0,2.5,0c0.4,0,0.5-0.1,0.5-0.5v-5.5l-2.6,0.6l-0.8-3c1-0.2,2.1-0.5,3.4-0.8v-4.7h-3.1v-2.9h3.1
		v-5.1h3.2v5.1h2.6v2.9H179v4l2.5-0.6L181.9,46.1z M196.7,42.5c-1,3.7-2.7,6.6-5,8.9c1.7,1.2,3.8,2.1,6.2,2.7
		c-0.7,0.6-1.6,1.9-2,2.8c-2.6-0.8-4.8-1.9-6.7-3.4c-2.1,1.4-4.4,2.5-7,3.3c-0.3-0.9-1.1-2.2-1.7-2.9c2.4-0.6,4.5-1.4,6.4-2.6
		c-1.6-1.8-2.8-3.9-3.8-6.4l0.8-0.2h-1.4v-2.9h5.3v-3.2H182v-2.9h5.8v-3.8h3.2v3.8h6v2.9h-6v3.2h3.2l0.6-0.1L196.7,42.5z
		 M186.2,44.6c0.7,1.8,1.8,3.4,3.2,4.7c1.4-1.3,2.5-2.9,3.3-4.7H186.2z"/>
	<path id="XMLID_360_" class="st3" d="M204.9,39.3v-1c-0.9,0.7-1.9,1.4-2.9,1.9h11.3v8.4H204c-0.1,0.3-0.1,0.6-0.1,0.8H214v7.2h-2.8
		v-0.7h-5v0.8h-2.7v-5.5c-0.4,1.7-0.9,3.3-1.7,4.7c-0.6-0.4-2-1-2.8-1.2c2.1-3.4,2.3-8.2,2.3-11.3v-2.7l-0.6,0.3
		c-0.3-0.7-1.1-2.4-1.7-3.1c3.1-1.3,6.2-3.5,8-6.1l2.9,1.2c-0.2,0.2-0.3,0.5-0.5,0.7c2,1.2,4.2,2.5,5.4,3.3l-1.6,2.7
		c-0.7-0.6-1.8-1.3-2.9-2v1.7H204.9z M210.4,46.4v-1.1h-6.1c0,0.3,0,0.7-0.1,1.1H210.4z M204.4,42.4v0.9v0.2h6.1v-1H204.4z
		 M210.2,37.5c-0.9-0.5-1.7-1.1-2.5-1.6c-0.6,0.5-1.2,1.1-1.7,1.6H210.2z M206.2,51.6v1.9h5v-1.9H206.2z M218.5,49.5h-3V34.6h3V49.5
		z M223.4,31.9V53c0,1.7-0.3,2.6-1.3,3.1c-0.9,0.5-2.5,0.6-4.6,0.6c-0.1-0.9-0.5-2.3-0.9-3.2c1.4,0,2.8,0,3.2,0
		c0.4,0,0.6-0.1,0.6-0.6V31.9H223.4z"/>
	<path id="XMLID_368_" class="st3" d="M230.8,49.3c-0.7,1.9-1.8,4.1-2.7,5.5c-0.5-0.4-1.5-1.1-2.1-1.4c0.9-1.3,1.8-3.1,2.4-4.7
		L230.8,49.3z M234.5,47.8v8.9h-3.1v-8.9h-5v-2.7h5V43h-5.1v-2.6h2.6c-0.1-0.8-0.5-2-0.8-2.8l2.2-0.5h-3.6v-2.6h4.6
		c-0.2-0.7-0.5-1.5-0.8-2.1l3.2-0.8c0.4,0.9,0.9,2,1.2,2.9h3.8v2.6h-3.3l2.2,0.4c-0.4,1-0.8,2.1-1.2,2.9h2.8V43h-4.6v2.1h4.2v2.7
		H234.5z M230.7,37.1c0.4,0.9,0.8,2,0.9,2.8l-1.9,0.5h3.9c0.4-1,0.9-2.3,1.2-3.3H230.7z M251,43.6h-2.5v13.1h-3.1V43.6H243v0.3
		c0,3.9-0.3,9.5-2.6,12.9c-0.5-0.6-1.8-1.6-2.5-1.9c0.5-0.8,0.9-1.7,1.2-2.6l-1.9,1.2c-0.4-1.1-1.3-2.8-2.1-4l2.1-1.1
		c0.7,1.1,1.6,2.5,2,3.5c0.8-2.6,0.8-5.5,0.8-7.9v-9.5c2.9-0.5,6.2-1.4,8.1-2.3l2.4,2.3c-2.2,0.9-5,1.5-7.6,2v4.2h8.1V43.6z"/>
	<path id="XMLID_373_" class="st3" d="M269.9,51.4c2.9,1,6.1,2.1,8,3l-1.4,2.5c-2.3-1.2-7.1-3-10.4-4.1l0.8-1.3h-0.8
		c-1.3,2.2-4.4,4.4-11.5,5.6c-0.4-0.7-1.2-1.9-1.8-2.6c4.8-0.7,7.6-1.8,9.1-3h-8.9v-2.6h10.7c0-0.2,0.1-0.5,0.1-0.7v-1.8h3.2v1.9
		c0,0.2,0,0.4,0,0.6h4.7c-0.6-0.5-1.2-1-1.8-1.3l1-0.9h-1c-0.1-0.7-0.5-1.6-0.8-2.3c0.9,0.1,1.8,0.1,2.1,0.1c0.3,0,0.4-0.1,0.4-0.4
		v-1.6H267c0.7,0.5,1.4,1.1,1.8,1.6l-2.1,1.6c-0.5-0.7-1.6-1.7-2.6-2.4l1.1-0.8h-2.7v-2.1h1c-0.3-0.5-0.7-1.1-1-1.5
		c2.4-0.2,4.7-0.7,6.7-1.5c-0.6-0.7-1.4-1.4-2.2-2.1c-0.9,0.3-1.8,0.6-2.9,0.9c-0.3-0.6-1-1.4-1.6-1.8c3.2-0.6,5.6-1.6,7-2.6
		l2.6,0.5c-0.4,0.3-0.8,0.6-1.2,0.9h3.7l0.5-0.1l1.6,0.8c-1.2,2.1-3.1,3.6-5.3,4.7h2.9v1.7h3v2.1h-3V44c0,1.3-0.2,1.8-1.1,2.2
		c-0.4,0.2-0.9,0.2-1.4,0.3c0.8,0.5,1.6,1.2,2.1,1.7l-0.6,0.6h4.4v2.6H269.9z M257.4,42.2c0,1.3-0.4,3.9-2.1,5.4
		c-0.5-0.4-1.7-1.1-2.4-1.4c1.4-1.1,1.7-3,1.8-4h-1.5v-2.5h5.7v-1.5h-4.7v-5.8h2.7v3.4h2v-4h2.9v15.3h-2.9v-4.9H257.4z M267.4,37.6
		c-1.3,0.1-2.5,0.3-3.7,0.4l-0.3-1.6c1.1-0.1,2.4-0.2,4-0.3L267.4,37.6z M271.4,40.3v-1.7c-1.7,0.7-3.6,1.3-5.6,1.7H271.4z
		 M269.4,34.9c0.6,0.5,1.2,1,1.7,1.6c0.8-0.5,1.5-1,2-1.6H269.4z"/>
	<path id="XMLID_379_" class="st3" d="M303.8,39c-0.2,11-0.5,14.9-1.4,16.1c-0.6,0.9-1.3,1.2-2.2,1.4c-0.9,0.2-2.2,0.1-3.6,0.1
		c-0.1-0.9-0.4-2.2-0.9-3c1.3,0.1,2.5,0.1,3.1,0.1c0.4,0,0.7-0.1,0.9-0.5c0.6-0.7,0.9-4,1-12.6h-2.8c-0.4,7.1-1.8,12.7-7,16.3
		c-0.5-0.8-1.5-1.8-2.2-2.4c1.3-0.9,2.4-1.9,3.2-3c-4.1,1-8.5,2-11.8,2.8l-0.5-3.3c0.5-0.1,1.2-0.2,1.8-0.3V32.9h9.3v15.8l1.2-0.2
		l0.3,2.5c1.8-2.8,2.4-6.2,2.7-10.4h-3.4v-3h3.5c0-1.8,0-3.7,0-5.8h3.1c0,2,0,3.9-0.1,5.8h5.8V39z M284.2,35.8v2.7h3.5v-2.7H284.2z
		 M287.7,41.3h-3.5V44h3.5V41.3z M284.2,50.1c1.1-0.2,2.3-0.5,3.5-0.7v-2.5h-3.5V50.1z"/>
	<path id="XMLID_384_" class="st3" d="M320.6,42.5v2.8h8.5v2.9h-4.2l2.7,1c-0.9,1.5-2,3.1-2.8,4.3h5.8v2.9h-23.2v-2.9h5.3
		c-0.4-1.2-1.3-3-2.2-4.3l2.1-0.9h-3.9v-2.9h8.5v-2.8h-5.4v-1.3c-1.1,0.5-2.3,1-3.5,1.4c-0.4-0.9-1.3-2.1-2.1-2.9
		c5-1.4,9.9-4.2,12.4-8.1l3,1.4c-0.2,0.3-0.5,0.7-0.8,1.1c2.6,2.4,7,4.6,11,5.7c-0.7,0.7-1.7,2-2.2,2.8c-1.2-0.4-2.4-1-3.6-1.6v1.6
		H320.6z M313.1,48.1c0.9,1.3,2,3.1,2.3,4.3l-2.2,1h3.9v-5.2H313.1z M323.6,39.6c-1.7-1-3.3-2.2-4.6-3.5c-1.3,1.3-2.8,2.5-4.3,3.5
		H323.6z M320.6,48.1v5.2h3.3l-1.8-0.8c0.8-1.2,1.8-3.1,2.4-4.5H320.6z"/>
</g>
<g id="XMLID_92_">
	<g id="XMLID_98_">
		<path id="XMLID_341_" class="st3" d="M106.3,16c2.6,0,4.4,0.4,5.7,0.9v-2.1c-1.1-0.4-2.8-0.7-5.6-0.7c-3.5,0-5.2,0.7-6.1,1.6
			c-0.8,0.8-1.2,1.8-1.2,3.2s0.4,2.4,1.2,3.2c0.9,0.9,2.5,1.6,6,1.6c2.8,0,4.5-0.4,5.5-1.4c0.6-0.6,0.9-1.4,0.9-2.8v-1.2h-7.7v1.8
			h5.4c0,0.2,0,0.7-0.3,1c-0.6,0.6-2,0.8-3.8,0.8c-2.3,0-3.4-0.4-4-1c-0.4-0.4-0.6-1-0.6-1.8c0-0.8,0.2-1.4,0.7-1.9
			C102.8,16.4,103.9,16,106.3,16C106.3,16,103.9,16,106.3,16L106.3,16L106.3,16z"/>
	</g>
	<g id="XMLID_97_">
		<path id="XMLID_340_" class="st3" d="M149.6,14.4h-2.9l-4.6,6.9l-4.6-6.9h-3l6.1,8.8h3.1l0,0L149.6,14.4L149.6,14.4z"/>
	</g>
	<g id="XMLID_96_">
		<path id="XMLID_339_" class="st2" d="M133.7,8.3h-2.5l-16.3,20.9h2.5L133.7,8.3z"/>
	</g>
	<g id="XMLID_93_">
		<path id="XMLID_134_" class="st3" d="M130.2,15.6c-0.8-0.8-2.4-1.6-5.9-1.6c-3.4,0-5.1,0.7-5.9,1.6c-0.8,0.8-1.2,1.7-1.2,3.1
			s0.4,2.4,1.2,3.1c0.8,0.8,2.5,1.6,5.9,1.6c3.4,0,5.1-0.8,5.9-1.6c0.8-0.8,1.2-1.7,1.2-3.1C131.4,17.3,131,16.4,130.2,15.6z
			 M124.3,21.6c-2.3,0-3.4-0.5-3.9-1c-0.4-0.4-0.7-0.9-0.7-1.8s0.2-1.5,0.7-1.9c0.5-0.5,1.7-0.9,3.9-0.9c2.3,0,3.4,0.4,3.9,1
			c0.4,0.4,0.7,0.9,0.7,1.9s-0.2,1.5-0.7,1.9C127.7,21.2,126.5,21.6,124.3,21.6z"/>
	</g>
</g>
<g id="XMLID_91_">
	<path id="XMLID_288_" class="st2" d="M98.4,93.4c-1.2,0.6-1.8,1.7-1.8,2.3c0.1,0,0.2-0.1,0.4-0.1c0.8,0,1.4,0.6,1.4,1.5
		c0,0.8-0.6,1.5-1.6,1.5c-1,0-1.8-0.9-1.8-2.1c0-2,1.3-3.4,2.8-4.1L98.4,93.4z M102.5,93.4c-1.2,0.6-1.8,1.7-1.8,2.3
		c0.1,0,0.2-0.1,0.4-0.1c0.8,0,1.4,0.6,1.4,1.5c0,0.8-0.6,1.5-1.6,1.5s-1.8-0.9-1.8-2.1c0-2,1.3-3.4,2.8-4.1L102.5,93.4z"/>
	<path id="XMLID_291_" class="st2" d="M107.3,102c-0.8-0.7-2.4-1.6-3.7-2.2l1.2-1.8c1.3,0.5,3,1.3,3.8,2L107.3,102z M109.6,104.8
		c-1,2.1-2.2,4.4-3.4,6.3l-2-1.6c1-1.5,2.5-4,3.6-6.3L109.6,104.8z M108.4,96.7c-0.7-0.7-2.4-1.7-3.7-2.2l1.3-1.8
		c1.3,0.5,3,1.4,3.8,2.1L108.4,96.7z M121.3,102.4c-0.7,2.2-1.8,3.9-3.3,5.2c1.3,0.7,2.8,1.2,4.5,1.5c-0.5,0.5-1.2,1.5-1.6,2.1
		c-1.9-0.5-3.6-1.2-5-2.1c-1.7,1-3.7,1.7-5.9,2.1c-0.2-0.6-0.7-1.6-1.2-2.1c1.9-0.3,3.6-0.8,5.1-1.5c-0.9-0.9-1.7-1.9-2.4-3.1
		l1.5-0.5h-2.7v-2.1h8.9l0.4-0.1L121.3,102.4z M114.2,96.5c-0.7,2.2-1.7,4-3.1,5.3c-0.4-0.4-1.5-1.2-2.1-1.5c2-1.6,3.1-4.4,3.5-7.7
		l2.5,0.3c-0.1,0.5-0.2,1-0.3,1.5h6.5c0,0,0,0.6-0.1,0.9c-0.2,3.2-0.5,4.7-1,5.3c-0.4,0.5-0.9,0.6-1.6,0.7c-0.6,0.1-1.5,0.1-2.6,0
		c0-0.7-0.3-1.6-0.7-2.2c0.9,0.1,1.8,0.1,2.2,0.1c0.3,0,0.5,0,0.7-0.2c0.2-0.2,0.4-1,0.5-2.5H114.2z M113.8,104
		c0.5,0.9,1.3,1.6,2.1,2.3c0.8-0.7,1.5-1.4,2.1-2.3H113.8z"/>
	<path id="XMLID_298_" class="st2" d="M131.2,97.2c-0.2,0.5-0.5,1.1-0.8,1.6h9.3v9.9c0,1.2-0.2,1.8-1,2.2c-0.8,0.4-1.9,0.4-3.6,0.4
		c-0.1-0.7-0.4-1.7-0.7-2.3c1,0.1,2.2,0.1,2.5,0.1c0.3,0,0.5-0.1,0.5-0.4v-1.2h-7.5c-0.3,1.5-1,3-2.2,4c-0.3-0.5-1.2-1.5-1.7-1.8
		c1.7-1.5,1.9-3.7,1.9-5.5v-1.6c-0.8,0.8-1.6,1.5-2.5,2.2c-0.4-0.5-1.1-1.4-1.6-1.8c2-1.3,3.6-3.4,4.8-5.6h-4.4V95h5.4
		c0.3-0.8,0.6-1.6,0.8-2.4l2.5,0.6c-0.2,0.6-0.4,1.2-0.6,1.9h9.8v2.2H131.2z M137.4,105.5v-1.3h-7.2c0,0.4,0,0.8,0,1.3H137.4z
		 M137.4,100.9h-7.2v1.3h7.2V100.9z"/>
	<path id="XMLID_302_" class="st2" d="M154.3,92.6c0,0.8-0.1,1.9-0.1,3.1c0.3,2.7,1.5,10.3,8.5,13.4c-0.7,0.6-1.4,1.4-1.7,2.1
		c-4.5-2.1-6.7-6-7.9-9.5c-1.1,3.5-3.2,7.2-7.4,9.6c-0.4-0.6-1.2-1.4-2-1.9c8.2-4.4,7.8-13.4,7.9-16.7H154.3z"/>
	<path id="XMLID_304_" class="st3" d="M178.3,105.9c-0.5,0.8-1.1,1.5-1.8,2.1c2.1,0.5,4.1,1,5.6,1.5l-2.1,1.7
		c-1.5-0.6-3.5-1.1-5.8-1.7c-2.3,1.1-5.3,1.6-9.2,1.8c-0.2-0.7-0.5-1.5-0.9-2.1c2.5-0.1,4.5-0.3,6.2-0.7c-1.3-0.3-2.6-0.5-3.9-0.8
		c0.5-0.6,1-1.2,1.5-1.9h-3.8v-2h5.1c0.4-0.6,0.7-1.2,1-1.8h-4.9v-5.6h4.3v-1.1h-5.3v-2.1h17.5v2.1h-5.4v1.1h4.8v5.6h-10.8l2.1,0.5
		c-0.2,0.4-0.4,0.9-0.7,1.3h4.8c0.2-0.4,0.3-0.7,0.4-1.1l2.3,0.6c-0.1,0.2-0.1,0.4-0.2,0.6h3v2H178.3z M167.6,100.3h2.1v-1.9h-2.1
		V100.3z M170.6,105.9c-0.2,0.3-0.4,0.5-0.6,0.8c1.2,0.2,2.4,0.5,3.6,0.7c0.7-0.4,1.3-0.9,1.8-1.5H170.6z M171.9,96.5h2.3v-1.1h-2.3
		V96.5z M174.2,100.3v-1.9h-2.3v1.9H174.2z M176.4,98.4v1.9h2.4v-1.9H176.4z"/>
	<path id="XMLID_311_" class="st3" d="M190,105.1c0-0.3-0.1-0.6-0.2-1c-4.1,0.6-4.8,0.8-5.2,1c-0.1-0.4-0.5-1.5-0.8-2.1
		c0.5-0.1,1-0.6,1.6-1.3c0.2-0.3,0.7-0.8,1.3-1.6c-1.5,0.2-2,0.3-2.3,0.4c-0.1-0.4-0.5-1.5-0.7-2c0.4-0.1,0.8-0.5,1.2-1.1
		c0.4-0.6,1.7-2.8,2.5-4.9l2.1,0.9c-0.8,1.7-1.8,3.4-2.9,4.8l1.4-0.1c0.5-0.8,1-1.7,1.4-2.6l2,1.3c-1.1,2-2.6,4.1-4.2,5.9l2.1-0.3
		c-0.2-0.5-0.3-1.1-0.5-1.5l1.7-0.6c0.5,1.4,1.1,3.2,1.3,4.2L190,105.1z M186.7,106.1c-0.1,1.9-0.5,3.9-0.9,5.1
		c-0.4-0.2-1.4-0.5-1.9-0.7c0.5-1.2,0.7-3.1,0.8-4.7L186.7,106.1z M188.9,105.7c0.3,1.4,0.5,3.2,0.6,4.5l-1.9,0.4
		c0-1.2-0.2-3.1-0.5-4.5L188.9,105.7z M191,105.1c0.4,1.2,0.9,2.7,1.1,3.8l-1.8,0.6c-0.2-1-0.6-2.6-1-3.8L191,105.1z M198.2,93.2
		c-0.1,0.2-0.2,0.5-0.3,0.7c1.3,2,3.3,4.1,5.2,5.2c-0.6,0.4-1.4,1.3-1.8,1.9c-0.4-0.3-0.9-0.7-1.3-1.1v1.3h-6.6v-1
		c-0.4,0.4-0.9,0.7-1.3,1.1c-0.3-0.5-1.1-1.3-1.6-1.7c2.5-1.6,4.6-4.3,5.6-7L198.2,93.2z M192.5,102.8h9v8.5h-2.4v-1h-4.3v1h-2.3
		V102.8z M199.2,99.1c-0.8-0.9-1.6-2-2.3-3.1c-0.7,1.1-1.4,2.1-2.3,3.1H199.2z M194.8,105v3.3h4.3V105H194.8z"/>
	<path id="XMLID_320_" class="st3" d="M210.4,93.4c-0.5,1.4-1.2,2.8-1.9,4.1v13.8h-2.3V101c-0.4,0.6-0.9,1.1-1.3,1.6
		c-0.2-0.6-0.9-1.9-1.3-2.5c1.8-1.8,3.6-4.7,4.6-7.5L210.4,93.4z M217.5,98.4v10.3c0,1.1-0.2,1.8-0.9,2.2c-0.7,0.4-1.7,0.5-3,0.5
		c-0.1-0.7-0.5-1.8-0.8-2.4c0.8,0,1.7,0,2,0c0.3,0,0.4-0.1,0.4-0.3V98.4h-2.3c-0.6,1.2-1.2,2.2-1.9,3.1c-0.4-0.4-1.4-1.2-1.9-1.6
		c1.5-1.7,2.7-4.5,3.4-7.2l2.3,0.5c-0.3,1-0.6,2-0.9,3h6.9l0.4-0.1l1.7,0.3c-0.2,1.6-0.6,3.5-0.9,4.7l-2-0.3
		c0.1-0.6,0.2-1.5,0.3-2.3H217.5z M214.2,102c-0.6,2.5-1.6,5.1-2.7,6.7c-0.5-0.4-1.5-1-2-1.3c1.1-1.4,2-3.7,2.5-5.9L214.2,102z
		 M220.4,101.3c1,2.1,1.9,4.7,2.2,6.5l-2.3,0.8c-0.2-1.8-1.1-4.5-2-6.6L220.4,101.3z"/>
	<path id="XMLID_325_" class="st3" d="M231.5,107.3l0.1,1.9c-2.4,0.6-4.9,1.1-6.9,1.5l-0.4-2.1c0.8-0.1,1.8-0.3,2.9-0.5v-5h-2.6v-2
		h2.6v-1.5h-1.5v-0.9c-0.3,0.3-0.6,0.6-1,0.9c-0.1-0.5-0.5-1.9-0.8-2.5c1.5-1.1,3-2.8,3.9-4.7l1.7,0.8c-0.1,0.2-0.2,0.5-0.4,0.7
		c1.2,0.7,2.4,1.6,3.1,2.2l-1,2c-0.1-0.1-0.3-0.3-0.5-0.5v1.9h-1.7v1.5h2.4v2h-2.4v4.7L231.5,107.3z M226.1,103.9
		c0.3,1.1,0.6,2.5,0.7,3.4l-1.5,0.5c-0.1-1-0.3-2.4-0.6-3.5L226.1,103.9z M230.7,97.6c-0.7-0.6-1.6-1.3-2.6-1.9
		c-0.4,0.7-0.9,1.3-1.4,1.9H230.7z M229.2,107c0.3-0.9,0.6-2.3,0.7-3.4l1.6,0.5c-0.4,1.2-0.7,2.5-1,3.4L229.2,107z M241.6,106.2
		c-0.7,0.9-1.6,1.7-2.6,2.4c0.5,0.5,1.1,0.7,1.6,0.7c0.5,0,0.6-0.4,0.7-1.6c0.4,0.4,1.1,0.7,1.6,0.9c-0.3,2.2-1,2.7-2.5,2.7
		c-1.2,0-2.4-0.6-3.4-1.6c-1.3,0.7-2.8,1.2-4.2,1.6c-0.3-0.4-0.9-1.3-1.3-1.7c1.5-0.3,3-0.8,4.4-1.4c-0.4-0.6-0.7-1.3-1-2.1
		l-2.6,0.2l-0.2-1.9l2.2-0.2c-0.2-0.8-0.3-1.6-0.4-2.5c-0.3,0.1-0.6,0.2-0.9,0.3c-0.3-0.5-0.9-1.3-1.3-1.7c1.4-0.3,2.9-0.7,4.1-1.3
		c-0.3-0.5-0.6-1.1-0.8-1.7l-2.7,0.3l-0.2-1.9l2.3-0.2c-0.2-0.9-0.3-1.8-0.4-2.7h2.1c0,0.9,0.2,1.7,0.4,2.6l2.7-0.2
		c-0.5-0.4-1.3-0.8-2-1.1l1.2-1.3c0.8,0.3,1.8,0.9,2.4,1.3l-0.9,1.1l2.3-0.2l0.2,1.8l-2.7,0.3l1.7,0.6c-0.6,0.8-1.4,1.4-2.3,2
		c0.4,0.3,0.9,0.5,1.3,0.5c0.5,0,0.6-0.3,0.7-1.3c0.4,0.4,1.1,0.7,1.6,0.8c-0.3,2-0.9,2.4-2.3,2.4c-1.2,0-2.2-0.5-3.1-1.3
		c-0.7,0.3-1.4,0.6-2.2,0.9h1.2c0,0.9,0.2,1.8,0.4,2.7l2.8-0.2c-0.6-0.4-1.5-0.9-2.2-1.2l1.1-1.3c0.9,0.4,2,0.9,2.6,1.3l-1,1.1
		l2.6-0.2l0.2,1.8l-3,0.3L241.6,106.2z M237.2,105.8c0.2,0.5,0.4,0.9,0.6,1.3c0.6-0.4,1.2-0.9,1.6-1.5L237.2,105.8z M237.5,97
		c0.2,0.4,0.3,0.7,0.5,1c0.6-0.3,1.1-0.7,1.5-1.2L237.5,97z"/>
	<path id="XMLID_333_" class="st3" d="M251,107.8c0-1.1,0.9-2,2.1-2s2.1,0.8,2.1,2c0,1.2-0.9,2-2.1,2S251,109,251,107.8z
		 M251.3,97.6l-0.1-3h3.7l-0.1,3l-0.7,6.9h-2.1L251.3,97.6z"/>
	<path id="XMLID_336_" class="st3" d="M258.5,97.6c1.2-0.6,1.8-1.7,1.8-2.3c-0.1,0.1-0.2,0.1-0.4,0.1c-0.8,0-1.4-0.6-1.4-1.5
		c0-0.8,0.6-1.5,1.6-1.5c1,0,1.8,0.9,1.8,2.2c0,2-1.3,3.4-2.8,4.1L258.5,97.6z M262.6,97.6c1.2-0.6,1.8-1.7,1.8-2.3
		c-0.1,0.1-0.2,0.1-0.4,0.1c-0.8,0-1.4-0.6-1.4-1.5c0-0.8,0.6-1.5,1.6-1.5c1,0,1.8,0.9,1.8,2.2c0,2-1.3,3.4-2.8,4.1L262.6,97.6z"/>
</g>
<g id="XMLID_90_">
	<path id="XMLID_190_" d="M91.3,151.4c-0.3,0-0.6,0-0.9,0c-2.2,0.2-3.1,1.3-3.4,2.5h0c0.5-0.5,1.2-0.8,2.2-0.8
		c1.7,0,3.2,1.2,3.2,3.4c0,2.1-1.6,3.8-3.8,3.8c-2.8,0-4.1-2.1-4.1-4.5c0-2,0.7-3.6,1.8-4.6c1-0.9,2.4-1.5,4-1.5c0.4,0,0.7,0,1,0
		V151.4z M90,156.6c0-1-0.5-1.8-1.6-1.8c-0.7,0-1.2,0.4-1.4,0.9c-0.1,0.1-0.1,0.3-0.1,0.6c0,1.1,0.6,2.1,1.7,2.1
		C89.4,158.4,90,157.7,90,156.6z"/>
	<path id="XMLID_193_" d="M99.9,161.4v-9.1c-0.5,0.9-1.1,1.8-1.7,2.6c-0.1-0.3-0.4-0.8-0.5-1c1.4-1.7,2.7-4.4,3.5-7.2l1.3,0.4
		c0,0.1-0.2,0.2-0.4,0.2c-0.4,1.1-0.8,2.1-1.2,3.2l0.4,0.1c0,0.1-0.1,0.2-0.3,0.2v10.7H99.9z M103,147.6h9.6v13.7h-1v-0.8H104v0.9
		h-1V147.6z M104,159.5h7.5v-11H104V159.5z M110.7,151.8h-2.6v1.9h1.9v4.3h-4.7v-4.3h1.8v-1.9h-2.6V151h2.6v-1.9l1.2,0.1
		c0,0.1-0.1,0.2-0.3,0.2v1.6h2.6V151.8z M109.2,157.3v-2.7h-2.9v2.7H109.2z"/>
	<path id="XMLID_199_" d="M126.8,147.4v12.4c0,0.8-0.2,1.2-0.8,1.4s-1.7,0.2-3.4,0.2c-0.1-0.3-0.3-0.8-0.5-1.1c0.8,0,1.5,0,2.1,0
		c1.4,0,1.5,0,1.5-0.5v-3.6h-7.9c-0.4,1.9-1.2,3.8-2.9,5.2c-0.2-0.2-0.6-0.6-0.8-0.8c2.8-2.3,3-5.7,3-8.3v-4.9H126.8z M118.1,152.3
		c0,0.8,0,1.8-0.2,2.9h7.7v-2.9H118.1z M125.7,148.5h-7.6v2.8h7.6V148.5z"/>
	<path id="XMLID_203_" d="M130.6,157c1.2,0.9,2.8,2.5,3.6,3.5l-1,0.9c-0.8-1-2.4-2.7-3.5-3.7L130.6,157z"/>
	<path id="XMLID_205_" d="M153.6,155.6h-2.3c0,1.1-0.1,2-0.2,2.8h2v1h-2.1c-0.3,1.9-0.8,2.1-2.2,2.1c-0.4,0-1,0-1.5,0
		c0-0.3-0.1-0.6-0.3-0.9c0.6,0,1.2,0.1,1.6,0.1c0.8,0,1,0,1.2-1.2h-8.3l-0.1,0.6l-1.1-0.1c0.2-1.1,0.5-2.7,0.7-4.3h-2.3v-1h2.5
		c0.2-1.3,0.4-2.6,0.5-3.7h9.2l0.6,0c0,0.7-0.1,3.2-0.1,3.6h2.3V155.6z M153,149.4h-10.8c-0.8,1.2-1.6,2.3-2.5,3.1
		c-0.2-0.2-0.6-0.5-0.9-0.6c1.4-1.3,2.8-3.4,3.7-5.5l1.3,0.5c-0.1,0.1-0.2,0.2-0.4,0.1c-0.2,0.5-0.5,0.9-0.7,1.4H153V149.4z
		 M147.2,158.3h2.8c0.1-0.7,0.1-1.6,0.2-2.8h-8c-0.1,1-0.3,2-0.4,2.8h5.3c-0.7-0.7-2-1.5-3.1-2.1l0.6-0.6c1.2,0.5,2.5,1.4,3.2,2.1
		L147.2,158.3z M150.2,154.6c0-0.8,0.1-1.7,0.1-2.7h-7.7c-0.1,0.9-0.2,1.8-0.4,2.7H150.2z M145,152c1.1,0.5,2.4,1.2,3,1.8l-0.7,0.7
		c-0.6-0.6-1.9-1.4-3-1.9L145,152z"/>
	<path id="XMLID_211_" d="M157.2,161.4v-9.1c-0.5,0.9-1.1,1.8-1.7,2.6c-0.1-0.3-0.4-0.8-0.5-1c1.4-1.7,2.7-4.4,3.5-7.2l1.3,0.4
		c0,0.1-0.2,0.2-0.4,0.2c-0.4,1.1-0.8,2.1-1.2,3.2l0.4,0.1c0,0.1-0.1,0.2-0.3,0.2v10.7H157.2z M160.2,147.6h9.6v13.7h-1v-0.8h-7.5
		v0.9h-1V147.6z M161.2,159.5h7.5v-11h-7.5V159.5z M168,151.8h-2.6v1.9h1.9v4.3h-4.7v-4.3h1.8v-1.9H162V151h2.6v-1.9l1.2,0.1
		c0,0.1-0.1,0.2-0.3,0.2v1.6h2.6V151.8z M166.5,157.3v-2.7h-2.9v2.7H166.5z"/>
	<path id="XMLID_217_" d="M186.8,156.8v0.9h-3.9v2.5c0,0.6-0.1,0.9-0.6,1c-0.5,0.2-1.3,0.2-2.6,0.2c0-0.3-0.2-0.7-0.3-1
		c1,0,1.9,0,2.2,0c0.3,0,0.3-0.1,0.3-0.3v-2.4h-9.7v-0.9h9.7v-1.1l1.4,0.1c0,0.1-0.1,0.2-0.3,0.2v0.8H186.8z M178.9,149.7v-1h-6.6
		v-0.9h6.6v-1.3l1.4,0.1c0,0.1-0.1,0.2-0.3,0.2v1h6.7v0.9h-6.7v1h4.8v4.4h-1.7c1.2,0.4,2.4,1.1,3.1,1.6l-0.6,0.6
		c-0.3-0.2-0.6-0.4-1-0.7c-4.1,0.1-8.5,0.2-11.3,0.3c0,0.1-0.1,0.2-0.2,0.2l-0.3-1.1c1.6,0,3.8,0,6.1,0v-0.9h-4.7v-4.4H178.9z
		 M177.4,160.6c-0.6-0.6-1.7-1.5-2.7-2.1l0.7-0.6c1,0.6,2.2,1.4,2.8,2L177.4,160.6z M175.2,150.5v1.1h3.7v-1.1H175.2z M175.2,153.3
		h3.7v-1.1h-3.7V153.3z M183.7,150.5h-3.8v1.1h3.8V150.5z M183.7,153.3v-1.1h-3.8v1.1H183.7z M179.9,154.1v0.9l3.3,0
		c-0.4-0.2-0.9-0.4-1.3-0.5l0.4-0.4H179.9z"/>
	<path id="XMLID_226_" d="M203.3,157.4h-5.8c1.5,1.3,3.9,2.5,6.1,3c-0.2,0.2-0.5,0.6-0.7,0.9c-2.3-0.6-4.9-2-6.4-3.6v3.8h-1.1v-3.7
		c-1.5,1.6-4,2.9-6.3,3.5c-0.1-0.3-0.4-0.7-0.7-0.9c2.2-0.5,4.6-1.6,6-3h-5.8v-0.9h6.7V155l1.4,0.1c0,0.1-0.1,0.2-0.3,0.2v1.1h6.8
		V157.4z M192.3,153.6l-1-0.3c0.5-0.5,1-1.2,1.6-1.9H189v-0.9h4.6c0.4-0.5,0.8-1.1,1.1-1.6l1.2,0.4c0,0.1-0.1,0.1-0.4,0.1
		c-0.2,0.3-0.5,0.7-0.8,1h8.3v0.9h-3.2c-0.4,0.9-1,1.6-1.9,2.2c1.6,0.4,3.2,0.9,4.3,1.3l-0.7,0.8c-1.2-0.4-2.9-1-4.8-1.5
		c-1.5,0.7-3.7,1.2-7,1.4c0-0.2-0.2-0.6-0.4-0.9c2.6-0.2,4.5-0.5,5.9-0.9c-0.9-0.2-1.9-0.4-2.8-0.6L192.3,153.6z M190.5,148.7v1.4
		h-1v-2.3h6v-1.2l1.4,0.1c0,0.1-0.1,0.2-0.3,0.2v0.9h6.2v2.3h-1v-1.4H190.5z M194.1,151.4c-0.3,0.4-0.6,0.8-0.9,1.1
		c1.1,0.2,2.3,0.5,3.5,0.8c0.9-0.5,1.6-1.1,2-1.9H194.1z"/>
	<path id="XMLID_231_" d="M209.9,157.7c0.4,0.2,1.4,0.6,2.4,0.6c1.3,0,1.9-0.6,1.9-1.4c0-1-1-1.5-2.1-1.5h-1v-1.7h0.9
		c0.8,0,1.9-0.3,1.9-1.2c0-0.6-0.5-1.1-1.5-1.1c-0.8,0-1.7,0.4-2.2,0.6l-0.5-1.8c0.6-0.4,1.9-0.8,3.2-0.8c2.2,0,3.5,1.2,3.5,2.6
		c0,1.1-0.6,2-1.9,2.4v0c1.2,0.2,2.3,1.2,2.3,2.5c0,1.8-1.6,3.2-4.3,3.2c-1.3,0-2.5-0.4-3.1-0.7L209.9,157.7z"/>
	<path id="XMLID_233_" d="M226.6,154.8c0,3.2-1.3,5.4-4,5.4c-2.7,0-3.9-2.4-3.9-5.4c0-3,1.3-5.4,4-5.4
		C225.5,149.5,226.6,152,226.6,154.8z M221.2,154.9c0,2.4,0.6,3.5,1.5,3.5c0.9,0,1.5-1.2,1.5-3.6c0-2.3-0.5-3.5-1.5-3.5
		C221.8,151.3,221.2,152.5,221.2,154.9z"/>
	<path id="XMLID_236_" d="M228.5,157c0-2.1,0.9-3,2.2-3c0.8,0,1.3,0.3,2.2,0.8c0.7,0.4,1.1,0.6,1.5,0.6c0.4,0,0.6-0.3,0.7-1.3h1.5
		c0.1,2.3-0.9,3-2.1,3c-0.8,0-1.4-0.3-2.2-0.8c-0.7-0.4-1.1-0.7-1.5-0.7c-0.4,0-0.7,0.3-0.8,1.3H228.5z"/>
	<path id="XMLID_238_" d="M245.6,151.7h-4l-0.2,1.6c0.2,0,0.4,0,0.7,0c1,0,2,0.2,2.7,0.8c0.8,0.5,1.3,1.4,1.3,2.6
		c0,1.9-1.7,3.7-4.5,3.7c-1.3,0-2.3-0.3-2.9-0.6l0.4-1.8c0.5,0.2,1.4,0.5,2.4,0.5c1,0,2.1-0.5,2.1-1.6c0-1.1-0.8-1.7-2.9-1.7
		c-0.6,0-1,0-1.4,0.1l0.7-5.5h5.7V151.7z"/>
	<path id="XMLID_240_" d="M255.8,154.8c0,3.2-1.3,5.4-4,5.4c-2.7,0-3.9-2.4-3.9-5.4c0-3,1.3-5.4,4-5.4
		C254.8,149.5,255.8,152,255.8,154.8z M250.4,154.9c0,2.4,0.6,3.5,1.5,3.5c0.9,0,1.5-1.2,1.5-3.6c0-2.3-0.5-3.5-1.5-3.5
		C251,151.3,250.4,152.5,250.4,154.9z"/>
	<path id="XMLID_243_" d="M272.4,147.9h3.8v0.9h-3.8v0.9h-1.1v-0.9h-4.7v0.9h-1.1v-0.9h-3.7v-0.9h3.7v-1.4l1.4,0.1
		c0,0.1-0.1,0.2-0.3,0.2v1.1h4.7v-1.4l1.4,0.1c0,0.1-0.1,0.2-0.3,0.2V147.9z M275.4,155.8v4.5c0,1.1-0.5,1.1-2.7,1.1
		c0-0.3-0.2-0.6-0.3-0.9c0.8,0,1.5,0,1.7,0c0.2,0,0.3-0.1,0.3-0.3v-3.6h-4.8v1.9l2.2-0.1c-0.3-0.4-0.5-0.8-0.8-1.1l0.8-0.3
		c0.8,0.9,1.5,2.1,1.8,2.9l-0.9,0.3c-0.1-0.3-0.2-0.6-0.4-1c-2.5,0.2-5.1,0.3-6.8,0.4c0,0.1-0.1,0.2-0.2,0.2l-0.4-1.2
		c1,0,2.3-0.1,3.7-0.1v-1.9h-4.7v4.7h-1v-5.7h5.7v-0.9H264V150h10.3v4.9h-4.7v0.9H275.4z M265,150.8v1.2h3.5v-1.2H265z M265,154.1
		h3.5v-1.3H265V154.1z M273.2,152.1v-1.2h-3.7v1.2H273.2z M273.2,154.1v-1.3h-3.7v1.3H273.2z"/>
	<path id="XMLID_250_" d="M109.2,179.3v-0.9l1.1-1.1c2.7-2.5,3.9-3.9,3.9-5.4c0-1.1-0.5-2-2.1-2c-0.9,0-1.7,0.5-2.2,0.9l-0.4-1
		c0.7-0.6,1.7-1.1,2.9-1.1c2.2,0,3.2,1.5,3.2,3c0,1.9-1.4,3.5-3.6,5.6l-0.8,0.8v0h4.7v1.2H109.2z"/>
	<path id="XMLID_252_" d="M124.9,173.9c0,3.5-1.3,5.5-3.6,5.5c-2,0-3.4-1.9-3.4-5.3c0-3.5,1.5-5.4,3.6-5.4
		C123.7,168.7,124.9,170.6,124.9,173.9z M119.3,174.1c0,2.7,0.8,4.2,2.1,4.2c1.4,0,2.1-1.7,2.1-4.3c0-2.6-0.7-4.2-2.1-4.2
		C120.2,169.8,119.3,171.3,119.3,174.1z"/>
	<path id="XMLID_255_" d="M129.9,170.2L129.9,170.2l-1.8,1l-0.3-1.1l2.3-1.2h1.2v10.4h-1.4V170.2z"/>
	<path id="XMLID_257_" d="M142.4,168.9v0.9l-4.5,9.5h-1.5l4.5-9.2v0h-5.1v-1.2H142.4z"/>
	<path id="XMLID_259_" d="M143.8,179.9l4.5-11.6h1.1l-4.5,11.6H143.8z"/>
	<path id="XMLID_261_" d="M153.7,170.2L153.7,170.2l-1.8,1l-0.3-1.1l2.3-1.2h1.2v10.4h-1.4V170.2z"/>
	<path id="XMLID_263_" d="M158.8,179.9l4.5-11.6h1.1l-4.5,11.6H158.8z"/>
	<path id="XMLID_265_" d="M166,177.6c0.4,0.3,1.3,0.7,2.3,0.7c1.8,0,2.4-1.2,2.4-2c0-1.5-1.3-2.1-2.7-2.1h-0.8v-1.1h0.8
		c1,0,2.3-0.5,2.3-1.8c0-0.8-0.5-1.6-1.8-1.6c-0.8,0-1.6,0.4-2.1,0.7l-0.4-1c0.5-0.4,1.6-0.8,2.7-0.8c2,0,3,1.2,3,2.5
		c0,1.1-0.6,2-1.9,2.4v0c1.3,0.3,2.3,1.2,2.3,2.7c0,1.7-1.3,3.1-3.8,3.1c-1.2,0-2.2-0.4-2.7-0.7L166,177.6z"/>
	<path id="XMLID_267_" d="M177.5,170.2L177.5,170.2l-1.8,1l-0.3-1.1l2.3-1.2h1.2v10.4h-1.4V170.2z"/>
	<path id="XMLID_269_" d="M192.7,173.8l-1.9,0.7v4.8c0,1.2-0.6,1.4-2.6,1.3c0-0.3-0.2-0.7-0.3-1c0.4,0,0.8,0,1.2,0
		c0.7,0,0.8,0,0.8-0.3v-4.4c-0.8,0.3-1.4,0.5-2,0.7c0,0.1-0.1,0.2-0.2,0.3l-0.4-1.2c0.7-0.2,1.6-0.5,2.6-0.8V170h-2.4v-1h2.4v-3.3
		l1.3,0.1c0,0.1-0.1,0.2-0.3,0.2v3h1.8v1h-1.8v3.4l1.8-0.6L192.7,173.8z M197.8,179.1c0.5,0.1,1.1,0.1,1.6,0.1h2.8
		c-0.1,0.2-0.3,0.7-0.3,1h-2.6c-2.3,0-4-0.4-5.1-2.5c-0.4,1.2-1,2.2-1.8,2.9c-0.2-0.2-0.5-0.4-0.8-0.6c1.3-1.1,2-3.1,2.3-5.4
		l1.3,0.2c0,0.1-0.1,0.2-0.3,0.2c-0.1,0.5-0.2,1-0.3,1.4c0.5,1.3,1.2,2,2.1,2.3V174h-3.8v-1h9.2v1h-4.3v2h3.6v0.9h-3.6V179.1z
		 M201.1,166.3v5.5h-7.4v-5.5H201.1z M200.1,168.6v-1.5h-5.4v1.5H200.1z M200.1,171v-1.5h-5.4v1.5H200.1z"/>
	<path id="XMLID_275_" d="M218.6,176.6h-5.8c1.5,1.3,3.9,2.5,6.1,3c-0.2,0.2-0.5,0.6-0.7,0.9c-2.3-0.6-4.9-2-6.4-3.6v3.8h-1.1v-3.7
		c-1.5,1.6-4,2.9-6.3,3.5c-0.1-0.3-0.4-0.7-0.7-0.9c2.2-0.5,4.6-1.6,6-3H204v-0.9h6.7v-1.4l1.4,0.1c0,0.1-0.1,0.2-0.3,0.2v1.1h6.8
		V176.6z M207.5,172.8l-1-0.3c0.5-0.5,1-1.2,1.6-1.9h-3.9v-0.9h4.6c0.4-0.5,0.8-1.1,1.1-1.6l1.2,0.4c0,0.1-0.1,0.1-0.4,0.1
		c-0.2,0.3-0.5,0.7-0.8,1h8.3v0.9h-3.2c-0.4,0.9-1,1.6-1.9,2.2c1.6,0.4,3.2,0.9,4.3,1.3l-0.7,0.8c-1.2-0.4-2.9-1-4.8-1.5
		c-1.5,0.7-3.7,1.2-7,1.4c0-0.2-0.2-0.6-0.4-0.9c2.6-0.2,4.5-0.5,5.9-0.9c-0.9-0.2-1.9-0.4-2.8-0.6L207.5,172.8z M205.7,167.9v1.4
		h-1V167h6v-1.2l1.4,0.1c0,0.1-0.1,0.2-0.3,0.2v0.9h6.2v2.3h-1v-1.4H205.7z M209.4,170.6c-0.3,0.4-0.6,0.8-0.9,1.1
		c1.1,0.2,2.3,0.5,3.5,0.8c0.9-0.5,1.6-1.1,2-1.9H209.4z"/>
	<path id="XMLID_280_" d="M230.6,170.9c0.2,1.9,0.4,3.6,0.8,5c0.8-1.3,1.5-2.8,2-4.3l1.3,0.4c0,0.1-0.2,0.2-0.3,0.2
		c-0.6,1.8-1.4,3.5-2.5,5c0.5,1.5,1.2,2.3,2,2.3c0.5,0,0.7-0.8,0.8-2.8c0.2,0.2,0.6,0.5,0.9,0.6c-0.2,2.5-0.6,3.3-1.7,3.3
		c-1.1,0-2-0.9-2.7-2.4c-0.8,0.9-1.8,1.8-2.8,2.4c-0.2-0.3-0.5-0.6-0.8-0.8l0.4-0.2h-4.9v0.9h-1v-5.8c-0.3,0.3-0.5,0.6-0.8,0.9
		c-0.2-0.2-0.5-0.4-0.7-0.6c1-0.9,1.9-2.4,2.5-3.8l1.2,0.4c0,0.1-0.1,0.1-0.3,0.1c-0.2,0.4-0.4,0.8-0.6,1.2h2
		c0.3-0.5,0.5-1.1,0.7-1.6l1.2,0.3c0,0.1-0.1,0.2-0.3,0.2c-0.1,0.3-0.4,0.7-0.6,1.1h2.4v0.9h-2.6v1.1h2.3v0.8h-2.3v1.2h2.3v0.8h-2.3
		v1.2h2.5v0.5c0.8-0.6,1.5-1.3,2.2-2.1c-0.5-1.7-0.9-3.8-1.1-6.1h-8.8v-1h3.8v-1.7h-3.1v-0.9h3.1v-1.6l1.3,0.1
		c0,0.1-0.1,0.2-0.3,0.2v1.2h3v0.9h-3v1.7h3.9c-0.1-1.3-0.1-2.7-0.2-4.1l1.4,0.1c0,0.1-0.1,0.2-0.3,0.2c0,1.3,0,2.6,0.1,3.8h4.7v1
		H230.6z M225,174.7v-1.1h-2.1v1.1H225z M225,176.7v-1.2h-2.1v1.2H225z M222.9,177.4v1.2h2.1v-1.2H222.9z M232.3,166.1
		c0.9,0.7,2,1.6,2.5,2.4l-0.8,0.6c-0.5-0.7-1.5-1.7-2.5-2.4L232.3,166.1z"/>
	<path id="XMLID_286_" d="M245.6,178.7h6.2v1.1h-14.6v-1.1h2.3v-9.4l1.4,0.1c0,0.1-0.1,0.2-0.3,0.2v9.1h3.8v-12.9l1.5,0.1
		c0,0.1-0.1,0.2-0.3,0.2v5.1h5.3v1.1h-5.3V178.7z"/>
</g>
<g id="XMLID_89_">
	<path id="XMLID_135_" class="st3" d="M159.7,19.1c0-2.8,1.7-4.6,3.9-4.6c1.1,0,1.9,0.5,2.4,1.1l-0.6,0.7c-0.5-0.5-1-0.8-1.8-0.8
		c-1.7,0-2.8,1.4-2.8,3.6c0,2.2,1.1,3.6,2.7,3.6c0.8,0,1.5-0.4,2-1l0.6,0.7c-0.7,0.8-1.6,1.3-2.7,1.3
		C161.3,23.6,159.7,21.9,159.7,19.1z"/>
	<path id="XMLID_137_" class="st3" d="M167.5,14.9c0-0.4,0.3-0.7,0.8-0.7s0.8,0.3,0.8,0.7c0,0.4-0.3,0.7-0.8,0.7
		S167.5,15.3,167.5,14.9z M167.7,17h1.1v6.5h-1.1V17z"/>
	<path id="XMLID_140_" class="st3" d="M170.1,17h1.1l1.2,3.7c0.2,0.6,0.4,1.3,0.6,1.9h0c0.2-0.6,0.4-1.3,0.6-1.9l1.2-3.7h1.1
		l-2.3,6.5h-1.3L170.1,17z"/>
	<path id="XMLID_142_" class="st3" d="M177.1,14.9c0-0.4,0.3-0.7,0.8-0.7s0.8,0.3,0.8,0.7c0,0.4-0.3,0.7-0.8,0.7
		S177.1,15.3,177.1,14.9z M177.3,17h1.1v6.5h-1.1V17z"/>
	<path id="XMLID_145_" class="st3" d="M180.1,20.2c0-2.2,1.5-3.4,3.1-3.4c0.9,0,1.4,0.4,1.9,0.8l-0.6,0.7c-0.4-0.3-0.8-0.6-1.3-0.6
		c-1.2,0-2,1-2,2.5c0,1.5,0.8,2.5,2,2.5c0.6,0,1.1-0.3,1.5-0.6l0.5,0.7c-0.6,0.5-1.3,0.8-2.1,0.8C181.4,23.6,180.1,22.4,180.1,20.2z
		"/>
	<path id="XMLID_147_" class="st3" d="M191.3,15.6h-2.7v-0.9h6.4v0.9h-2.7v7.9h-1.1V15.6z"/>
	<path id="XMLID_149_" class="st3" d="M195.2,20.2c0-2.1,1.4-3.4,2.9-3.4c1.7,0,2.6,1.2,2.6,3.1c0,0.2,0,0.5,0,0.6h-4.4
		c0.1,1.4,0.9,2.3,2.2,2.3c0.6,0,1.2-0.2,1.6-0.5l0.4,0.7c-0.6,0.4-1.3,0.7-2.2,0.7C196.6,23.6,195.2,22.4,195.2,20.2z M199.7,19.7
		c0-1.3-0.6-2-1.6-2c-0.9,0-1.7,0.7-1.9,2H199.7z"/>
	<path id="XMLID_152_" class="st3" d="M201.8,20.2c0-2.2,1.5-3.4,3.1-3.4c0.9,0,1.4,0.4,1.9,0.8l-0.6,0.7c-0.4-0.3-0.8-0.6-1.3-0.6
		c-1.2,0-2,1-2,2.5c0,1.5,0.8,2.5,2,2.5c0.6,0,1.1-0.3,1.5-0.6l0.5,0.7c-0.6,0.5-1.3,0.8-2.1,0.8C203.2,23.6,201.8,22.4,201.8,20.2z
		"/>
	<path id="XMLID_154_" class="st3" d="M208.4,13.9h1.1v2.6l0,1.3c0.6-0.6,1.3-1.1,2.2-1.1c1.4,0,2,0.9,2,2.6v4.1h-1.1v-4
		c0-1.2-0.4-1.7-1.2-1.7c-0.7,0-1.1,0.3-1.8,1v4.7h-1.1V13.9z"/>
	<path id="XMLID_156_" class="st3" d="M218.5,14.7h2.5c2,0,3.3,0.7,3.3,2.6c0,1.9-1.3,2.7-3.2,2.7h-1.5v3.5h-1.1V14.7z M220.9,19.1
		c1.5,0,2.3-0.6,2.3-1.8c0-1.3-0.8-1.7-2.3-1.7h-1.3v3.5H220.9z"/>
	<path id="XMLID_159_" class="st3" d="M226,17h0.9l0.1,1.2h0c0.5-0.8,1.1-1.4,1.8-1.4c0.3,0,0.5,0,0.7,0.1l-0.2,1
		c-0.2-0.1-0.4-0.1-0.6-0.1c-0.5,0-1.2,0.4-1.6,1.5v4.2H226V17z"/>
	<path id="XMLID_161_" class="st3" d="M230,20.2c0-2.2,1.4-3.4,3-3.4c1.6,0,3,1.3,3,3.4c0,2.2-1.4,3.4-3,3.4
		C231.4,23.6,230,22.4,230,20.2z M234.9,20.2c0-1.5-0.8-2.5-1.9-2.5c-1.1,0-1.9,1-1.9,2.5c0,1.5,0.8,2.5,1.9,2.5
		C234.2,22.7,234.9,21.7,234.9,20.2z"/>
	<path id="XMLID_164_" class="st3" d="M237.7,21.5v-3.6h-1V17l1-0.1l0.1-1.8h0.9V17h1.8v0.9h-1.8v3.6c0,0.8,0.3,1.3,1,1.3
		c0.2,0,0.5-0.1,0.7-0.2l0.2,0.8c-0.4,0.1-0.8,0.2-1.2,0.2C238.2,23.6,237.7,22.8,237.7,21.5z"/>
	<path id="XMLID_166_" class="st3" d="M241.4,20.2c0-2.2,1.4-3.4,3-3.4c1.6,0,3,1.3,3,3.4c0,2.2-1.4,3.4-3,3.4
		C242.8,23.6,241.4,22.4,241.4,20.2z M246.3,20.2c0-1.5-0.8-2.5-1.9-2.5c-1.1,0-1.9,1-1.9,2.5c0,1.5,0.8,2.5,1.9,2.5
		C245.6,22.7,246.3,21.7,246.3,20.2z"/>
	<path id="XMLID_169_" class="st3" d="M249.1,21.5v-3.6h-1V17l1-0.1l0.1-1.8h0.9V17h1.8v0.9h-1.8v3.6c0,0.8,0.3,1.3,1,1.3
		c0.2,0,0.5-0.1,0.7-0.2l0.2,0.8c-0.4,0.1-0.8,0.2-1.2,0.2C249.6,23.6,249.1,22.8,249.1,21.5z"/>
	<path id="XMLID_171_" class="st3" d="M252.8,26.1l0.2-0.9c0.1,0,0.3,0.1,0.5,0.1c0.7,0,1.2-0.6,1.5-1.4l0.1-0.5l-2.6-6.5h1.1
		l1.3,3.6c0.2,0.6,0.4,1.2,0.6,1.8h0.1c0.2-0.6,0.4-1.2,0.6-1.8l1.2-3.6h1.1L256,24c-0.5,1.3-1.1,2.3-2.4,2.3
		C253.3,26.3,253,26.2,252.8,26.1z"/>
	<path id="XMLID_173_" class="st3" d="M259.7,17h0.9l0.1,0.7h0c0.6-0.5,1.3-0.9,2.1-0.9c1.7,0,2.6,1.3,2.6,3.3
		c0,2.2-1.3,3.5-2.8,3.5c-0.6,0-1.2-0.3-1.8-0.8l0,1.1v2.2h-1.1V17z M264.3,20.1c0-1.4-0.5-2.4-1.7-2.4c-0.6,0-1.1,0.3-1.8,0.9V22
		c0.6,0.5,1.2,0.7,1.6,0.7C263.5,22.7,264.3,21.7,264.3,20.1z"/>
	<path id="XMLID_176_" class="st3" d="M266.7,20.2c0-2.1,1.4-3.4,2.9-3.4c1.7,0,2.6,1.2,2.6,3.1c0,0.2,0,0.5,0,0.6h-4.4
		c0.1,1.4,0.9,2.3,2.2,2.3c0.6,0,1.2-0.2,1.6-0.5l0.4,0.7c-0.6,0.4-1.3,0.7-2.2,0.7C268.1,23.6,266.7,22.4,266.7,20.2z M271.2,19.7
		c0-1.3-0.6-2-1.6-2c-0.9,0-1.7,0.7-1.9,2H271.2z"/>
	<path id="XMLID_179_" class="st3" d="M276.1,19.1c0-2.8,1.7-4.6,4-4.6c1.2,0,2,0.6,2.5,1.1l-0.6,0.7c-0.4-0.5-1-0.8-1.9-0.8
		c-1.8,0-2.9,1.4-2.9,3.6c0,2.2,1,3.6,2.9,3.6c0.6,0,1.2-0.2,1.6-0.5v-2.3h-1.9v-0.9h2.9v3.7c-0.6,0.6-1.5,1-2.7,1
		C277.7,23.6,276.1,21.9,276.1,19.1z"/>
	<path id="XMLID_181_" class="st3" d="M284.8,17h0.9l0.1,1.2h0c0.5-0.8,1.1-1.4,1.8-1.4c0.3,0,0.5,0,0.7,0.1l-0.2,1
		c-0.2-0.1-0.4-0.1-0.6-0.1c-0.5,0-1.2,0.4-1.6,1.5v4.2h-1.1V17z"/>
	<path id="XMLID_183_" class="st3" d="M288.7,21.8c0-1.4,1.2-2.1,4-2.4c0-0.8-0.3-1.6-1.3-1.6c-0.8,0-1.4,0.3-2,0.7l-0.4-0.8
		c0.6-0.4,1.5-0.9,2.6-0.9c1.6,0,2.3,1.1,2.3,2.7v4h-0.9l-0.1-0.8h0c-0.6,0.5-1.4,0.9-2.2,0.9C289.5,23.6,288.7,23,288.7,21.8z
		 M292.7,21.9v-1.8c-2.2,0.3-2.9,0.8-2.9,1.6c0,0.7,0.5,1,1.2,1C291.5,22.8,292.1,22.5,292.7,21.9z"/>
	<path id="XMLID_186_" class="st3" d="M295.9,17h0.9l0.1,0.9h0c0.6-0.6,1.3-1.1,2.2-1.1c1.4,0,2,0.9,2,2.6v4.1H300v-4
		c0-1.2-0.4-1.7-1.2-1.7c-0.7,0-1.1,0.3-1.8,1v4.7h-1.1V17z"/>
	<path id="XMLID_188_" class="st3" d="M303.4,21.5v-3.6h-1V17l1-0.1l0.1-1.8h0.9V17h1.8v0.9h-1.8v3.6c0,0.8,0.3,1.3,1,1.3
		c0.2,0,0.5-0.1,0.7-0.2l0.2,0.8c-0.4,0.1-0.8,0.2-1.2,0.2C303.8,23.6,303.4,22.8,303.4,21.5z"/>
</g>
</svg>
