<?xml version="1.0" encoding="utf-8"?>
<!-- Generator: Adobe Illustrator 19.0.0, SVG Export Plug-In . SVG Version: 6.00 Build 0)  -->
<svg version="1.1" id="Layer_1" xmlns="http://www.w3.org/2000/svg" xmlns:xlink="http://www.w3.org/1999/xlink" x="0px" y="0px"
	 viewBox="0 0 377 165" style="enable-background:new 0 0 377 165;" xml:space="preserve">
<style type="text/css">
	.st0{fill:#B91C22;}
	.st1{fill:#040000;}
</style>
<g id="XMLID_1_">
	<g id="XMLID_13_">
		<g id="XMLID_14_">
			<path id="XMLID_545_" class="st0" d="M73.8,33.8H1.6c-1,0-1.8-0.7-1.9-1.7c-0.1-1-0.1-2.6,0-4.2c0-0.6,0-1.2,0-1.7
				c0-15.5,10.4-25.9,25.8-25.9c11.6,0,20.7,6,24.9,16.2c2.7-3.6,6.7-5.9,11.1-5.9c8.4,0,14.2,5.7,14.2,14v7.2
				C75.7,32.9,74.9,33.8,73.8,33.8z M3.5,29.9h68.4v-5.3c0-7-5.2-10.1-10.4-10.1c-4.3,0-8.1,3-9.7,7.5c-0.3,0.8-1,1.3-1.9,1.3
				c-0.8,0-1.6-0.6-1.8-1.4C45.3,10.8,36.8,4.2,25.5,4.2c-13.3,0-21.9,8.7-21.9,22.1c0,0.5,0,1.1,0,1.8C3.5,28.6,3.5,29.3,3.5,29.9z
				"/>
		</g>
	</g>
	<g id="XMLID_11_">
		<g id="XMLID_12_">
			<path id="XMLID_542_" class="st1" d="M68.4,49.2c-5.3,0-9.7-3.7-11.5-8.8c-2.8,11-11.3,19.1-24.5,19.1c-13.6,0-23.8-8.7-23.8-24
				c0-1.5-0.2-4.4,0-5.6h72.2c0,2.5,0,5.2,0,7.2C80.7,44.7,75.2,49.2,68.4,49.2z"/>
		</g>
	</g>
</g>
<g id="XMLID_22_">
	<path id="XMLID_228_" class="st1" d="M103.4,34.7c-2.3,5.2-6.1,10.7-9.5,14c-0.7-0.8-2.4-2.5-3.4-3.3c3.4-2.8,6.8-7.5,8.7-12.1
		L103.4,34.7z M112.4,49.4c2.6,3.5,5.5,8.1,7.1,11l-3.9,2.1c-0.4-0.9-1-2-1.7-3.1c-15.5,1.2-17.6,1.4-19.2,2c-0.3-0.8-1-2.9-1.6-4.1
		c1.1-0.3,1.9-1.2,3.2-2.6c1.3-1.4,5.3-6.8,7.9-12.1l4.4,1.9c-2.5,4.3-5.5,8.6-8.6,12.1l11.7-0.8c-1-1.6-2.1-3.3-3.1-4.7L112.4,49.4
		z M113,33.4c1.4,4.5,4.3,9,8.2,11.4c-0.9,0.8-2.2,2.7-2.9,3.8c-3.6-2.8-6.5-7.1-8.3-11.3h-5.1v-3.9H113z"/>
	<path id="XMLID_232_" class="st1" d="M142.6,51.6c1.4,4,3.5,6.7,5.2,6.7c0.8,0,1.1-1.3,1.3-4.5c0.9,0.8,2.2,1.5,3.3,1.8
		c-0.5,5.3-1.9,6.5-4.8,6.5c-4,0-7.4-4.4-9.1-10.5h-8.4v6l7.6-1.6c0,1.1,0.2,2.8,0.4,3.6c-9.4,2.2-11,2.5-12,3
		c-0.3-1-1.1-2.6-1.7-3.4c0.7-0.4,1.6-1.3,1.6-2.8V34h23.3v10.4h-8.4c0.1,1.2,0.3,2.4,0.5,3.6h10.1v3.6H142.6z M130.2,37.5v3.4h15.4
		v-3.4H130.2z M137.7,48c-0.2-1.2-0.4-2.4-0.5-3.6h-7V48H137.7z"/>
	<path id="XMLID_236_" class="st1" d="M165.3,53c-0.4-0.9-1.2-2.2-1.9-3.5v13h-3.7V51c-1.1,2.5-2.2,4.7-3.5,6.3
		c-0.4-1.1-1.2-2.7-1.8-3.6c1.8-2,3.6-5.5,4.7-8.6h-4.3v-3.6h4.8v-3.6c-1.2,0.2-2.4,0.4-3.6,0.5c-0.1-0.9-0.6-2.1-1-2.9
		c3.6-0.5,7.6-1.5,10.3-2.6l2.1,3.1c-1.2,0.5-2.7,0.9-4.1,1.2v4.4h4.2v3.6h-4.2v0.3c0.9,0.9,3.6,3.9,4.2,4.6L165.3,53z M181.1,54.4
		v8.1h-3.7v-7.4l-9.7,1.7l-0.6-3.6l10.3-1.8V32.6h3.7v18.1l3.2-0.5l0.6,3.6L181.1,54.4z M173,49.9c-1-1.4-3.2-3.5-5.1-4.9l2.4-2.2
		c1.8,1.3,4.2,3.3,5.2,4.6L173,49.9z M173.9,41.5c-0.9-1.4-3-3.4-4.8-4.8l2.5-2.2c1.7,1.3,4,3.2,4.9,4.6L173.9,41.5z"/>
	<path id="XMLID_241_" class="st1" d="M197.9,49.7c-1.1,0.3-2.3,0.6-3.4,0.9v7.6c0,1.9-0.4,2.8-1.4,3.4c-1.1,0.6-2.6,0.7-4.8,0.7
		c-0.2-1-0.6-2.5-1.1-3.5c1.2,0,2.6,0,3,0c0.5,0,0.6-0.2,0.6-0.6v-6.6l-3.1,0.8l-1-3.6c1.2-0.2,2.6-0.5,4.1-0.9v-5.7H187v-3.5h3.7
		v-6.1h3.8v6.1h3.1v3.5h-3.1v4.7l2.9-0.7L197.9,49.7z M215.6,45.4c-1.2,4.4-3.3,7.9-6,10.6c2.1,1.5,4.5,2.5,7.4,3.2
		c-0.8,0.8-1.9,2.3-2.4,3.3c-3.1-0.9-5.8-2.2-8-4c-2.5,1.7-5.3,3-8.4,3.9c-0.4-1-1.3-2.6-2-3.5c2.8-0.7,5.4-1.7,7.6-3.1
		c-1.9-2.1-3.4-4.7-4.5-7.6l1-0.3h-1.7v-3.4h6.3v-3.8h-6.9v-3.5h6.9v-4.6h3.8v4.6h7.2v3.5h-7.2v3.8h3.8l0.7-0.2L215.6,45.4z
		 M203,47.9c0.9,2.1,2.2,4,3.8,5.7c1.7-1.6,3-3.5,4-5.7H203z"/>
	<path id="XMLID_245_" class="st1" d="M225.4,41.6v-1.2c-1.1,0.8-2.2,1.6-3.4,2.3h13.5v10h-11.1c-0.1,0.3-0.1,0.7-0.2,1h12v8.5H233
		v-0.9H227v1h-3.2v-6.6c-0.4,2-1.1,4-2,5.6c-0.7-0.5-2.4-1.2-3.3-1.5c2.5-4.1,2.8-9.8,2.8-13.5v-3.2l-0.7,0.4
		c-0.4-0.9-1.3-2.8-2-3.6c3.7-1.6,7.5-4.2,9.5-7.3l3.5,1.4c-0.2,0.3-0.4,0.5-0.6,0.8c2.4,1.4,5,2.9,6.5,4l-2,3.2
		c-0.9-0.7-2.1-1.5-3.5-2.4v2.1H225.4z M232.1,50.1v-1.3h-7.3c0,0.4,0,0.9-0.1,1.3H232.1z M224.8,45.3v1.1v0.2h7.3v-1.2H224.8z
		 M231.8,39.3c-1-0.6-2.1-1.3-3-1.9c-0.7,0.6-1.4,1.3-2.1,1.9H231.8z M227,56.3v2.3h5.9v-2.3H227z M241.7,53.7h-3.6V35.9h3.6V53.7z
		 M247.5,32.7v25.2c0,2-0.4,3.1-1.6,3.7c-1.1,0.6-2.9,0.8-5.5,0.8c-0.2-1.1-0.6-2.8-1.1-3.8c1.6,0,3.3,0,3.8,0
		c0.5,0,0.7-0.2,0.7-0.7V32.7H247.5z"/>
	<path id="XMLID_253_" class="st1" d="M256.4,53.5c-0.8,2.3-2.1,4.9-3.2,6.6c-0.6-0.5-1.8-1.3-2.5-1.7c1.1-1.5,2.1-3.7,2.8-5.7
		L256.4,53.5z M260.8,51.6v10.6h-3.7V51.6h-6v-3.2h6V46H251v-3.1h3.1c-0.2-1-0.5-2.3-0.9-3.3l2.6-0.6h-4.3v-3.1h5.5
		c-0.3-0.9-0.6-1.8-1-2.5l3.8-0.9c0.5,1.1,1.1,2.4,1.4,3.5h4.6v3.1h-4l2.6,0.5c-0.5,1.2-1,2.5-1.4,3.5h3.3V46h-5.5v2.5h5v3.2H260.8z
		 M256.2,38.9c0.5,1.1,0.9,2.4,1.1,3.3l-2.3,0.6h4.6c0.5-1.2,1.1-2.8,1.4-4H256.2z M280.6,46.6h-3v15.7h-3.7V46.6h-3V47
		c0,4.7-0.4,11.3-3.1,15.4c-0.6-0.7-2.1-1.9-2.9-2.3c0.6-0.9,1.1-2,1.4-3.1l-2.3,1.4c-0.5-1.3-1.6-3.3-2.5-4.8l2.5-1.3
		c0.9,1.3,1.9,3,2.4,4.2c0.9-3.1,1-6.5,1-9.5V35.6c3.5-0.6,7.4-1.6,9.7-2.7l2.9,2.8c-2.6,1.1-6,1.8-9.1,2.4v5h9.7V46.6z"/>
	<path id="XMLID_258_" class="st1" d="M303.2,56c3.4,1.2,7.3,2.6,9.6,3.6l-1.7,3c-2.8-1.4-8.5-3.6-12.5-4.9l1-1.6h-1
		c-1.5,2.7-5.2,5.3-13.8,6.7c-0.4-0.9-1.4-2.2-2.1-3.1c5.8-0.9,9-2.2,10.8-3.6h-10.7v-3.1h12.8c0-0.3,0.1-0.6,0.1-0.9v-2.1h3.8v2.2
		c0,0.3,0,0.5,0,0.7h5.6c-0.7-0.6-1.4-1.2-2.1-1.6l1.2-1.1h-1.2c-0.1-0.9-0.5-1.9-0.9-2.8c1,0.1,2.2,0.1,2.6,0.1
		c0.4,0,0.4-0.1,0.4-0.4v-1.9h-5.3c0.8,0.6,1.7,1.3,2.1,1.9l-2.5,1.9c-0.6-0.8-2-2-3.1-2.8l1.3-1h-3.2v-2.5h1.2
		c-0.3-0.6-0.8-1.3-1.2-1.8c2.9-0.3,5.6-0.9,8-1.8c-0.7-0.8-1.7-1.7-2.7-2.5c-1,0.4-2.2,0.8-3.5,1.1c-0.4-0.7-1.2-1.7-1.9-2.1
		c3.8-0.8,6.7-1.9,8.4-3.1l3.1,0.6c-0.4,0.4-0.9,0.7-1.4,1.1h4.4l0.6-0.1l2,1c-1.4,2.6-3.6,4.3-6.4,5.6h3.5v2h3.6v2.5h-3.6v2
		c0,1.5-0.3,2.2-1.3,2.6c-0.4,0.2-1,0.3-1.7,0.4c1,0.6,1.9,1.4,2.5,2l-0.7,0.7h5.3V56H303.2z M288.2,45c0,1.5-0.4,4.6-2.6,6.4
		c-0.6-0.5-2-1.3-2.9-1.6c1.7-1.3,2.1-3.6,2.1-4.8H283v-2.9h6.8v-1.8h-5.6v-6.9h3.2v4h2.4v-4.8h3.5v18.2h-3.5V45H288.2z M300.1,39.5
		c-1.6,0.2-3,0.3-4.5,0.5l-0.3-1.9c1.3-0.1,2.9-0.2,4.8-0.4L300.1,39.5z M305,42.7v-2c-2,0.9-4.3,1.5-6.7,2H305z M302.5,36.2
		c0.7,0.6,1.4,1.2,2,1.9c0.9-0.5,1.8-1.2,2.4-1.9H302.5z"/>
	<path id="XMLID_264_" class="st1" d="M343.6,41.2C343.3,54.3,343,59,342,60.5c-0.7,1.1-1.5,1.4-2.7,1.6c-1,0.2-2.7,0.2-4.4,0.1
		c-0.1-1-0.4-2.6-1.1-3.6c1.6,0.1,3,0.1,3.7,0.1c0.5,0,0.8-0.1,1.1-0.5c0.7-0.9,1-4.8,1.2-15.1h-3.4c-0.5,8.4-2.2,15.2-8.4,19.4
		c-0.6-0.9-1.8-2.2-2.7-2.9c1.6-1.1,2.8-2.2,3.8-3.6c-4.9,1.2-10.1,2.4-14,3.4l-0.6-3.9c0.6-0.1,1.4-0.3,2.2-0.4V33.9h11.1v18.8
		l1.4-0.3l0.4,3c2.1-3.3,2.9-7.5,3.2-12.4h-4.1v-3.6h4.2c0-2.2,0-4.4,0-6.9h3.7c0,2.4,0,4.7-0.1,6.9h6.9V41.2z M320.2,37.3v3.2h4.2
		v-3.2H320.2z M324.4,43.9h-4.2v3.3h4.2V43.9z M320.2,54.4c1.3-0.3,2.8-0.6,4.2-0.9v-3h-4.2V54.4z"/>
	<path id="XMLID_269_" class="st1" d="M363.7,45.3v3.3h10.2v3.4h-5.1l3.2,1.2c-1.1,1.8-2.4,3.7-3.4,5.1h6.9v3.5h-27.7v-3.5h6.3
		c-0.5-1.5-1.6-3.6-2.7-5.2l2.5-1.1h-4.6v-3.4h10.2v-3.3h-6.5v-1.6c-1.3,0.6-2.7,1.2-4.1,1.7c-0.5-1.1-1.6-2.6-2.5-3.5
		c6-1.7,11.8-5,14.8-9.7l3.6,1.6c-0.3,0.4-0.6,0.8-0.9,1.3c3.1,2.8,8.3,5.5,13.1,6.8c-0.9,0.8-2,2.3-2.6,3.3
		c-1.4-0.5-2.9-1.2-4.4-1.9v1.9H363.7z M354.8,52.1c1.1,1.6,2.3,3.7,2.8,5.1l-2.6,1.2h4.7v-6.2H354.8z M367.3,41.8
		c-2-1.2-3.9-2.7-5.5-4.2c-1.5,1.6-3.3,2.9-5.2,4.2H367.3z M363.7,52.1v6.2h4l-2.1-0.9c1-1.4,2.2-3.7,2.8-5.3H363.7z"/>
</g>
<g id="XMLID_9_">
	<g id="XMLID_21_">
		<path id="XMLID_226_" class="st1" d="M107.9,13.5c3.1,0,5.2,0.4,6.8,1v-2.5c-1.3-0.4-3.4-0.9-6.7-0.9c-4.2,0-6.3,0.9-7.3,1.9
			c-0.9,0.9-1.4,2.2-1.4,3.8s0.5,2.8,1.4,3.8c1,1,3,1.9,7.1,1.9c3.3,0,5.3-0.5,6.6-1.7c0.7-0.7,1-1.7,1-3.3V16h-9.2v2.1h6.5
			c0,0.2,0,0.8-0.4,1.2c-0.7,0.7-2.3,0.9-4.5,0.9c-2.7,0-4.1-0.5-4.8-1.2c-0.5-0.5-0.7-1.2-0.7-2.2c0-1,0.3-1.7,0.8-2.2
			C103.7,14,105.1,13.5,107.9,13.5C107.9,13.5,105.1,13.5,107.9,13.5L107.9,13.5L107.9,13.5z"/>
	</g>
	<g id="XMLID_20_">
		<path id="XMLID_225_" class="st1" d="M159.7,11.6h-3.5l-5.5,8.2l-5.5-8.2h-3.6l7.2,10.5h3.7l0,0L159.7,11.6L159.7,11.6z"/>
	</g>
	<g id="XMLID_19_">
		<path id="XMLID_224_" class="st0" d="M140.6,4.4h-3l-19.4,24.9h3L140.6,4.4z"/>
	</g>
	<g id="XMLID_10_">
		<path id="XMLID_2_" class="st1" d="M136.5,13.1c-1-1-2.9-1.9-7.1-1.9c-4,0-6.1,0.9-7.1,1.9c-0.9,0.9-1.4,2.1-1.4,3.7
			s0.5,2.8,1.4,3.7c1,1,3,1.9,7.1,1.9s6.1-0.9,7.1-1.9c0.9-0.9,1.4-2.1,1.4-3.7C137.9,15.1,137.4,14,136.5,13.1z M129.4,20.2
			c-2.7,0-4.1-0.6-4.7-1.2c-0.5-0.5-0.8-1.1-0.8-2.2s0.3-1.8,0.8-2.2c0.6-0.6,2-1.1,4.7-1.1c2.7,0,4,0.5,4.7,1.1
			c0.5,0.5,0.8,1.1,0.8,2.2c0,1.1-0.3,1.8-0.8,2.2C133.5,19.7,132.1,20.2,129.4,20.2z"/>
	</g>
</g>
<g id="XMLID_3_">
	<path id="XMLID_173_" class="st0" d="M51.7,94.2c-1.4,0.7-2.2,2-2.2,2.8c0.1,0,0.3-0.1,0.5-0.1c1,0,1.7,0.8,1.7,1.8
		c0,1-0.7,1.8-1.9,1.8c-1.2,0-2.1-1.1-2.1-2.6c0-2.4,1.6-4.1,3.3-4.9L51.7,94.2z M56.6,94.2c-1.5,0.7-2.2,2-2.2,2.8
		c0.1,0,0.3-0.1,0.5-0.1c1,0,1.7,0.8,1.7,1.8c0,1-0.7,1.8-1.9,1.8s-2.1-1.1-2.1-2.6c0-2.4,1.6-4.1,3.3-4.9L56.6,94.2z"/>
	<path id="XMLID_176_" class="st0" d="M62.3,104.5c-0.9-0.8-2.9-1.9-4.4-2.6l1.5-2.1c1.5,0.6,3.6,1.6,4.5,2.4L62.3,104.5z
		 M65.1,107.8c-1.2,2.5-2.6,5.3-4,7.6l-2.4-1.9c1.2-1.8,3-4.8,4.3-7.5L65.1,107.8z M63.7,98.1c-0.9-0.9-2.9-2-4.4-2.7l1.6-2.1
		c1.5,0.6,3.5,1.6,4.5,2.5L63.7,98.1z M79.1,105c-0.8,2.6-2.2,4.7-3.9,6.2c1.6,0.8,3.4,1.4,5.4,1.8c-0.6,0.6-1.5,1.8-1.9,2.6
		c-2.3-0.6-4.3-1.4-6-2.5c-2,1.2-4.4,2-7,2.5c-0.3-0.8-0.9-1.9-1.4-2.6c2.2-0.4,4.3-1,6-1.8c-1.1-1.1-2.1-2.3-2.9-3.7l1.8-0.6h-3.2
		v-2.5h10.7l0.5-0.1L79.1,105z M70.6,97.9c-0.8,2.6-2,4.8-3.7,6.3c-0.5-0.5-1.8-1.4-2.5-1.8c2.4-1.9,3.7-5.2,4.2-9.2l3,0.3
		c-0.1,0.6-0.2,1.2-0.3,1.8H79c0,0,0,0.7-0.1,1.1c-0.2,3.9-0.6,5.6-1.2,6.3c-0.5,0.6-1.1,0.8-1.9,0.9c-0.7,0.1-1.8,0.1-3.1,0
		c0-0.8-0.4-1.9-0.8-2.6c1.1,0.1,2.2,0.1,2.6,0.1c0.4,0,0.6,0,0.8-0.2c0.3-0.3,0.5-1.2,0.6-3H70.6z M70.1,106.9c0.6,1,1.5,2,2.6,2.8
		c1-0.8,1.8-1.7,2.5-2.8H70.1z"/>
	<path id="XMLID_183_" class="st0" d="M90.9,98.8c-0.3,0.6-0.6,1.3-1,1.9h11.2v11.9c0,1.4-0.3,2.2-1.2,2.6c-0.9,0.5-2.3,0.5-4.2,0.5
		c-0.1-0.8-0.5-2-0.9-2.8c1.2,0.1,2.6,0.1,3,0.1c0.4,0,0.6-0.1,0.6-0.5V111h-9c-0.4,1.8-1.2,3.6-2.7,4.8c-0.4-0.6-1.5-1.8-2.1-2.2
		c2.1-1.8,2.2-4.4,2.2-6.6v-1.9c-0.9,1-1.9,1.8-3,2.6c-0.4-0.6-1.3-1.7-1.9-2.2c2.4-1.6,4.3-4,5.8-6.7h-5.2v-2.7h6.4
		c0.4-1,0.7-1.9,1-2.9l3,0.7c-0.2,0.7-0.5,1.5-0.8,2.2h11.7v2.7H90.9z M98.3,108.7v-1.6h-8.6c0,0.5,0,1,0,1.6H98.3z M98.3,103.2
		h-8.6v1.5h8.6V103.2z"/>
	<path id="XMLID_187_" class="st0" d="M118.5,93.3c0,1-0.1,2.3-0.2,3.7c0.3,3.2,1.8,12.3,10.2,16c-0.9,0.7-1.7,1.7-2.1,2.5
		c-5.3-2.5-8-7.2-9.4-11.4c-1.3,4.2-3.8,8.6-8.8,11.5c-0.5-0.8-1.4-1.7-2.4-2.3c9.7-5.2,9.3-16,9.4-20H118.5z"/>
	<path id="XMLID_189_" class="st1" d="M147.2,109.2c-0.6,1-1.3,1.8-2.2,2.6c2.5,0.6,4.8,1.2,6.7,1.8l-2.6,2
		c-1.8-0.7-4.2-1.4-6.9-2.1c-2.7,1.3-6.4,1.9-11,2.2c-0.2-0.8-0.6-1.8-1.1-2.5c2.9-0.1,5.4-0.4,7.5-0.8c-1.5-0.3-3.1-0.6-4.7-0.9
		c0.6-0.7,1.2-1.4,1.8-2.3h-4.6v-2.4h6.1c0.5-0.7,0.9-1.5,1.2-2.2h-5.8v-6.7h5.2v-1.4h-6.3v-2.5h20.9v2.5H145v1.4h5.7v6.7h-12.9
		l2.5,0.6c-0.2,0.5-0.5,1.1-0.8,1.6h5.8c0.2-0.4,0.4-0.9,0.5-1.3l2.8,0.7c-0.1,0.2-0.2,0.5-0.2,0.7h3.6v2.4H147.2z M134.4,102.4h2.5
		v-2.2h-2.5V102.4z M138.1,109.2c-0.2,0.3-0.5,0.6-0.7,0.9c1.4,0.3,2.9,0.6,4.2,0.9c0.8-0.5,1.6-1.1,2.2-1.8H138.1z M139.6,97.9h2.7
		v-1.4h-2.7V97.9z M142.3,102.4v-2.2h-2.7v2.2H142.3z M145,100.2v2.2h2.9v-2.2H145z"/>
	<path id="XMLID_196_" class="st1" d="M161.2,108.2c0-0.3-0.1-0.7-0.2-1.2c-4.8,0.7-5.7,0.9-6.3,1.2c-0.1-0.5-0.6-1.8-0.9-2.6
		c0.6-0.2,1.2-0.7,1.9-1.6c0.3-0.3,0.8-1,1.5-1.9c-1.8,0.2-2.4,0.4-2.7,0.5c-0.1-0.5-0.6-1.8-0.9-2.4c0.5-0.1,0.9-0.6,1.4-1.3
		c0.5-0.7,2.1-3.3,3-5.9l2.6,1.1c-0.9,2-2.1,4.1-3.4,5.8l1.6-0.1c0.6-1,1.2-2,1.7-3.1l2.4,1.5c-1.4,2.4-3.1,4.9-5,7l2.5-0.3
		c-0.2-0.6-0.4-1.3-0.6-1.8l2.1-0.7c0.6,1.6,1.3,3.8,1.5,5L161.2,108.2z M157.2,109.4c-0.2,2.2-0.6,4.6-1.1,6.1
		c-0.5-0.3-1.7-0.6-2.3-0.8c0.6-1.4,0.9-3.7,1-5.7L157.2,109.4z M159.8,108.9c0.3,1.7,0.6,3.9,0.7,5.3l-2.3,0.5
		c0-1.5-0.3-3.7-0.6-5.4L159.8,108.9z M162.3,108.2c0.5,1.4,1.1,3.3,1.3,4.5l-2.1,0.7c-0.2-1.2-0.7-3.1-1.2-4.6L162.3,108.2z
		 M171,94c-0.1,0.3-0.2,0.6-0.4,0.8c1.5,2.4,3.9,4.9,6.2,6.3c-0.7,0.5-1.6,1.6-2.1,2.3c-0.5-0.4-1-0.9-1.6-1.3v1.5h-7.9v-1.2
		c-0.5,0.5-1.1,0.9-1.6,1.3c-0.4-0.6-1.3-1.6-1.9-2.1c3-1.9,5.5-5.2,6.7-8.4L171,94z M164.1,105.5h10.8v10.2H172v-1.2h-5.1v1.2h-2.8
		V105.5z M172.2,101c-1-1.1-1.9-2.4-2.8-3.6c-0.8,1.3-1.7,2.5-2.7,3.6H172.2z M166.9,108v4h5.1v-4H166.9z"/>
	<path id="XMLID_205_" class="st1" d="M185.6,94.2c-0.6,1.7-1.4,3.3-2.3,4.9v16.5h-2.7v-12.3c-0.5,0.7-1.1,1.4-1.6,1.9
		c-0.3-0.7-1.1-2.3-1.5-3c2.2-2.2,4.2-5.6,5.4-9L185.6,94.2z M194,100.2v12.3c0,1.4-0.2,2.2-1.1,2.6c-0.8,0.5-2,0.6-3.5,0.6
		c-0.1-0.8-0.6-2.1-1-2.9c1,0,2,0,2.4,0c0.3,0,0.4-0.1,0.4-0.4v-12.2h-2.8c-0.7,1.4-1.5,2.7-2.3,3.7c-0.5-0.5-1.7-1.4-2.3-1.9
		c1.8-2,3.3-5.4,4.1-8.6l2.8,0.6c-0.3,1.2-0.7,2.4-1.1,3.6h8.3l0.5-0.1l2,0.4c-0.3,1.9-0.7,4.2-1,5.6l-2.4-0.4
		c0.1-0.7,0.3-1.8,0.4-2.8H194z M190.1,104.5c-0.7,3-1.9,6.1-3.3,8c-0.6-0.5-1.8-1.2-2.4-1.5c1.4-1.7,2.4-4.4,2.9-7.1L190.1,104.5z
		 M197.5,103.7c1.2,2.5,2.3,5.7,2.6,7.8l-2.7,0.9c-0.3-2.1-1.3-5.4-2.4-7.9L197.5,103.7z"/>
	<path id="XMLID_210_" class="st1" d="M210.7,110.9l0.1,2.3c-2.9,0.7-5.9,1.3-8.2,1.8l-0.5-2.6c1-0.1,2.2-0.4,3.5-0.6v-6h-3.1v-2.4
		h3.1v-1.8h-1.8v-1.1c-0.4,0.4-0.8,0.7-1.2,1c-0.1-0.6-0.6-2.2-1-2.9c1.8-1.3,3.6-3.4,4.7-5.6l2,1c-0.1,0.3-0.3,0.6-0.4,0.9
		c1.4,0.8,2.8,1.9,3.7,2.7l-1.2,2.4c-0.2-0.2-0.4-0.4-0.6-0.6v2.2h-2v1.8h2.8v2.4h-2.8v5.6L210.7,110.9z M204.3,106.7
		c0.4,1.3,0.8,3,0.9,4.1l-1.8,0.6c-0.1-1.2-0.4-2.9-0.8-4.2L204.3,106.7z M209.8,99.3c-0.9-0.8-2-1.6-3.1-2.3
		c-0.5,0.8-1.1,1.6-1.7,2.3H209.8z M208.1,110.5c0.3-1.1,0.7-2.8,0.8-4l1.9,0.6c-0.4,1.4-0.9,3-1.2,4L208.1,110.5z M222.8,109.5
		c-0.8,1.1-1.9,2.1-3.1,2.9c0.6,0.6,1.3,0.9,1.9,0.9c0.6,0,0.8-0.5,0.9-1.9c0.5,0.5,1.3,0.8,2,1c-0.4,2.6-1.2,3.2-3,3.2
		c-1.5,0-2.9-0.7-4-1.9c-1.6,0.8-3.3,1.4-5,1.9c-0.3-0.5-1.1-1.6-1.6-2.1c1.8-0.4,3.6-1,5.2-1.7c-0.5-0.8-0.8-1.6-1.2-2.6l-3.1,0.3
		l-0.2-2.3l2.7-0.2c-0.2-1-0.4-2-0.4-3c-0.4,0.1-0.7,0.2-1.1,0.3c-0.3-0.6-1.1-1.6-1.6-2c1.7-0.4,3.4-0.9,4.9-1.5
		c-0.4-0.6-0.7-1.3-1-2.1l-3.2,0.3l-0.2-2.3l2.8-0.2c-0.2-1-0.4-2.1-0.5-3.2h2.5c0,1.1,0.2,2.1,0.4,3l3.2-0.3
		c-0.6-0.5-1.6-1-2.4-1.3l1.4-1.5c1,0.4,2.2,1,2.9,1.5l-1.1,1.3l2.8-0.2L224,98l-3.2,0.3l2,0.7c-0.7,0.9-1.7,1.7-2.8,2.4
		c0.5,0.4,1,0.6,1.6,0.6c0.6,0,0.7-0.4,0.8-1.6c0.5,0.5,1.3,0.8,1.9,1c-0.4,2.4-1.1,2.9-2.8,2.9c-1.4,0-2.7-0.6-3.7-1.6
		c-0.8,0.4-1.7,0.7-2.6,1.1h1.4c0,1.1,0.2,2.2,0.4,3.2l3.3-0.3c-0.7-0.5-1.8-1.1-2.6-1.4l1.3-1.5c1,0.4,2.4,1.1,3.1,1.6l-1.2,1.3
		l3.1-0.3l0.2,2.2l-3.6,0.3L222.8,109.5z M217.6,109.1c0.2,0.6,0.5,1.1,0.8,1.6c0.8-0.5,1.4-1.1,2-1.8L217.6,109.1z M217.9,98.5
		c0.2,0.4,0.4,0.8,0.6,1.2c0.7-0.4,1.3-0.9,1.8-1.4L217.9,98.5z"/>
	<path id="XMLID_218_" class="st1" d="M234.1,111.4c0-1.4,1.1-2.4,2.5-2.4s2.5,1,2.5,2.4c0,1.4-1.1,2.4-2.5,2.4
		S234.1,112.8,234.1,111.4z M234.5,99.2l-0.1-3.6h4.4l-0.1,3.6l-0.8,8.2h-2.5L234.5,99.2z"/>
	<path id="XMLID_221_" class="st1" d="M243.1,99.3c1.5-0.7,2.2-2,2.2-2.8c-0.1,0.1-0.3,0.1-0.5,0.1c-1,0-1.7-0.8-1.7-1.8
		c0-0.9,0.7-1.8,1.9-1.8s2.1,1.1,2.1,2.6c0,2.4-1.6,4.1-3.3,4.8L243.1,99.3z M248,99.3c1.4-0.7,2.2-2,2.2-2.8
		c-0.1,0.1-0.3,0.1-0.5,0.1c-1,0-1.7-0.8-1.7-1.8c0-0.9,0.7-1.8,1.9-1.8c1.2,0,2.1,1.1,2.1,2.6c0,2.4-1.6,4.1-3.3,4.8L248,99.3z"/>
</g>
<g id="XMLID_4_">
	<path id="XMLID_75_" d="M54.2,143.1c-0.2,0-0.4,0-0.7,0c-1.6,0.1-2.3,1-2.5,1.9h0c0.4-0.4,0.9-0.6,1.7-0.6c1.3,0,2.4,0.9,2.4,2.5
		c0,1.5-1.2,2.8-2.9,2.8c-2.1,0-3.1-1.5-3.1-3.4c0-1.5,0.5-2.7,1.4-3.5c0.8-0.7,1.8-1.1,3-1.2c0.3,0,0.6,0,0.7,0V143.1z M53.2,147
		c0-0.7-0.4-1.3-1.2-1.3c-0.5,0-0.9,0.3-1.1,0.7c0,0.1-0.1,0.2-0.1,0.5c0,0.8,0.4,1.6,1.3,1.6C52.8,148.4,53.2,147.8,53.2,147z"/>
	<path id="XMLID_78_" d="M60.7,150.6v-6.8c-0.4,0.7-0.8,1.4-1.3,1.9c-0.1-0.2-0.3-0.6-0.4-0.8c1-1.2,2-3.3,2.6-5.4l0.9,0.3
		c0,0.1-0.1,0.1-0.3,0.1c-0.3,0.8-0.6,1.6-0.9,2.4l0.3,0.1c0,0.1-0.1,0.1-0.2,0.2v8H60.7z M63,140.2h7.2v10.3h-0.8v-0.6h-5.6v0.7H63
		V140.2z M63.7,149.2h5.6v-8.3h-5.6V149.2z M68.8,143.4h-1.9v1.4h1.5v3.2h-3.5v-3.2h1.4v-1.4h-1.9v-0.6h1.9v-1.4l0.9,0.1
		c0,0.1-0.1,0.1-0.2,0.2v1.2h1.9V143.4z M67.6,147.5v-2h-2.2v2H67.6z"/>
	<path id="XMLID_84_" d="M80.9,140.1v9.3c0,0.6-0.2,0.9-0.6,1c-0.4,0.1-1.2,0.2-2.6,0.1c-0.1-0.2-0.2-0.6-0.3-0.9c0.6,0,1.1,0,1.6,0
		c1,0,1.1,0,1.1-0.4v-2.7h-5.9c-0.3,1.4-0.9,2.8-2.2,3.9c-0.1-0.2-0.4-0.5-0.6-0.6c2.1-1.8,2.3-4.2,2.3-6.2v-3.7H80.9z M74.4,143.8
		c0,0.6,0,1.4-0.1,2.2H80v-2.2H74.4z M80,140.9h-5.7v2.1H80V140.9z"/>
	<path id="XMLID_88_" d="M83.7,147.3c0.9,0.7,2.1,1.9,2.7,2.6l-0.7,0.7c-0.6-0.8-1.8-2-2.6-2.7L83.7,147.3z"/>
	<path id="XMLID_90_" d="M100.9,146.2h-1.8c0,0.9-0.1,1.5-0.1,2.1h1.5v0.7H99c-0.2,1.4-0.6,1.6-1.7,1.6c-0.3,0-0.7,0-1.1,0
		c0-0.2-0.1-0.5-0.2-0.7c0.5,0,0.9,0,1.2,0c0.6,0,0.8,0,0.9-0.9h-6.2l-0.1,0.5l-0.8,0c0.2-0.9,0.4-2,0.5-3.2h-1.7v-0.7h1.8
		c0.1-1,0.3-1.9,0.3-2.7h6.9l0.4,0c0,0.5-0.1,2.4-0.1,2.7h1.7V146.2z M100.5,141.6h-8.1c-0.6,0.9-1.2,1.7-1.9,2.4
		c-0.2-0.1-0.5-0.3-0.7-0.5c1-0.9,2.1-2.6,2.8-4.1l1,0.3c-0.1,0.1-0.2,0.1-0.3,0.1c-0.2,0.3-0.3,0.7-0.5,1.1h7.7V141.6z M96.1,148.3
		h2.1c0.1-0.5,0.1-1.2,0.2-2.1h-6c-0.1,0.7-0.2,1.5-0.3,2.1h4c-0.5-0.5-1.5-1.2-2.3-1.6l0.5-0.5c0.9,0.4,1.9,1.1,2.4,1.6L96.1,148.3
		z M98.4,145.5c0-0.6,0.1-1.3,0.1-2h-5.8c-0.1,0.6-0.2,1.3-0.3,2H98.4z M94.5,143.5c0.8,0.3,1.8,0.9,2.3,1.4l-0.5,0.5
		c-0.5-0.5-1.4-1.1-2.2-1.4L94.5,143.5z"/>
	<path id="XMLID_96_" d="M103.7,150.6v-6.8c-0.4,0.7-0.8,1.4-1.3,1.9c-0.1-0.2-0.3-0.6-0.4-0.8c1-1.2,2-3.3,2.6-5.4l0.9,0.3
		c0,0.1-0.1,0.1-0.3,0.1c-0.3,0.8-0.6,1.6-0.9,2.4l0.3,0.1c0,0.1-0.1,0.1-0.2,0.2v8H103.7z M105.9,140.2h7.2v10.3h-0.8v-0.6h-5.6
		v0.7h-0.8V140.2z M106.7,149.2h5.6v-8.3h-5.6V149.2z M111.8,143.4h-1.9v1.4h1.5v3.2h-3.5v-3.2h1.4v-1.4h-1.9v-0.6h1.9v-1.4l0.9,0.1
		c0,0.1-0.1,0.1-0.2,0.2v1.2h1.9V143.4z M110.6,147.5v-2h-2.2v2H110.6z"/>
	<path id="XMLID_102_" d="M125.8,147.2v0.7h-2.9v1.8c0,0.4-0.1,0.7-0.5,0.8c-0.4,0.1-1,0.1-2,0.1c0-0.2-0.1-0.5-0.3-0.7
		c0.8,0,1.4,0,1.6,0c0.2,0,0.3-0.1,0.3-0.2v-1.8h-7.3v-0.7h7.3v-0.8l1,0c0,0.1-0.1,0.1-0.2,0.2v0.6H125.8z M119.9,141.8v-0.7h-5
		v-0.7h5v-1l1,0.1c0,0.1-0.1,0.1-0.2,0.2v0.7h5v0.7h-5v0.7h3.6v3.3H123c0.9,0.3,1.8,0.8,2.3,1.2l-0.5,0.5c-0.2-0.2-0.4-0.3-0.7-0.5
		c-3.1,0.1-6.4,0.2-8.4,0.2c0,0.1-0.1,0.1-0.2,0.2l-0.3-0.8c1.2,0,2.8,0,4.6,0v-0.7h-3.5v-3.3H119.9z M118.8,150
		c-0.4-0.5-1.3-1.1-2-1.6l0.6-0.5c0.7,0.4,1.6,1.1,2.1,1.5L118.8,150z M117.1,142.4v0.8h2.8v-0.8H117.1z M117.1,144.5h2.8v-0.8h-2.8
		V144.5z M123.5,142.4h-2.8v0.8h2.8V142.4z M123.5,144.5v-0.8h-2.8v0.8H123.5z M120.7,145.1v0.7l2.5,0c-0.3-0.2-0.7-0.3-1-0.4
		l0.3-0.3H120.7z"/>
	<path id="XMLID_111_" d="M138.3,147.5h-4.3c1.1,1,2.9,1.8,4.6,2.2c-0.2,0.2-0.4,0.5-0.5,0.7c-1.7-0.5-3.7-1.5-4.8-2.7v2.9h-0.8
		v-2.8c-1.2,1.2-3,2.1-4.7,2.6c-0.1-0.2-0.3-0.5-0.5-0.6c1.6-0.4,3.5-1.2,4.5-2.2h-4.3v-0.7h5v-1l1,0.1c0,0.1-0.1,0.1-0.2,0.2v0.8
		h5.1V147.5z M130,144.8l-0.7-0.3c0.3-0.4,0.8-0.9,1.2-1.4h-2.9v-0.7h3.4c0.3-0.4,0.6-0.8,0.9-1.2l0.9,0.3c0,0.1-0.1,0.1-0.3,0.1
		c-0.2,0.2-0.4,0.5-0.6,0.8h6.2v0.7h-2.4c-0.3,0.7-0.8,1.2-1.4,1.7c1.2,0.3,2.4,0.7,3.2,1l-0.5,0.6c-0.9-0.3-2.2-0.7-3.6-1.1
		c-1.2,0.5-2.8,0.9-5.3,1c0-0.2-0.2-0.5-0.3-0.6c1.9-0.1,3.4-0.3,4.4-0.7c-0.7-0.2-1.4-0.3-2.1-0.5L130,144.8z M128.6,141.1v1h-0.8
		v-1.8h4.5v-0.9l1,0.1c0,0.1-0.1,0.1-0.2,0.2v0.7h4.6v1.8H137v-1H128.6z M131.4,143.1c-0.2,0.3-0.5,0.6-0.7,0.9
		c0.8,0.2,1.7,0.4,2.6,0.6c0.7-0.4,1.2-0.8,1.5-1.4H131.4z"/>
	<path id="XMLID_116_" d="M143.1,147.8c0.3,0.2,1.1,0.5,1.8,0.5c0.9,0,1.4-0.5,1.4-1c0-0.8-0.8-1.1-1.6-1.1h-0.7v-1.3h0.7
		c0.6,0,1.4-0.2,1.4-0.9c0-0.5-0.4-0.8-1.2-0.8c-0.6,0-1.3,0.3-1.6,0.5l-0.4-1.3c0.5-0.3,1.4-0.6,2.4-0.6c1.7,0,2.6,0.9,2.6,1.9
		c0,0.8-0.5,1.5-1.4,1.8v0c0.9,0.2,1.7,0.9,1.7,1.9c0,1.4-1.2,2.4-3.2,2.4c-1,0-1.9-0.3-2.3-0.6L143.1,147.8z"/>
	<path id="XMLID_118_" d="M155.7,145.6c0,2.4-1,4.1-3,4.1c-2,0-2.9-1.8-2.9-4c0-2.3,1-4,3-4C154.9,141.6,155.7,143.5,155.7,145.6z
		 M151.7,145.7c0,1.8,0.4,2.6,1.1,2.6c0.7,0,1.1-0.9,1.1-2.7c0-1.7-0.4-2.6-1.1-2.6C152.1,143,151.7,143.9,151.7,145.7z"/>
	<path id="XMLID_121_" d="M157.1,147.3c0-1.6,0.7-2.2,1.7-2.2c0.6,0,1,0.2,1.7,0.6c0.5,0.3,0.9,0.5,1.1,0.5c0.3,0,0.5-0.3,0.5-1h1.1
		c0.1,1.7-0.7,2.3-1.6,2.3c-0.6,0-1-0.2-1.7-0.6c-0.5-0.3-0.9-0.5-1.1-0.5c-0.3,0-0.5,0.2-0.6,1H157.1z"/>
	<path id="XMLID_123_" d="M169.9,143.3h-3l-0.2,1.2c0.2,0,0.3,0,0.5,0c0.7,0,1.5,0.2,2.1,0.6c0.6,0.4,0.9,1,0.9,2
		c0,1.5-1.2,2.7-3.3,2.7c-0.9,0-1.7-0.2-2.2-0.4l0.3-1.4c0.3,0.2,1.1,0.4,1.8,0.4c0.8,0,1.6-0.4,1.6-1.2c0-0.8-0.6-1.3-2.2-1.3
		c-0.4,0-0.7,0-1.1,0.1l0.5-4.1h4.3V143.3z"/>
	<path id="XMLID_125_" d="M177.6,145.6c0,2.4-1,4.1-3,4.1c-2,0-2.9-1.8-2.9-4c0-2.3,1-4,3-4C176.8,141.6,177.6,143.5,177.6,145.6z
		 M173.6,145.7c0,1.8,0.4,2.6,1.1,2.6c0.7,0,1.1-0.9,1.1-2.7c0-1.7-0.4-2.6-1.1-2.6C174,143,173.6,143.9,173.6,145.7z"/>
	<path id="XMLID_128_" d="M190,140.5h2.8v0.7H190v0.7h-0.8v-0.7h-3.5v0.7H185v-0.7h-2.8v-0.7h2.8v-1l1,0.1c0,0.1-0.1,0.1-0.2,0.2
		v0.8h3.5v-1l1,0.1c0,0.1-0.1,0.1-0.2,0.2V140.5z M192.3,146.4v3.4c0,0.8-0.3,0.8-2,0.8c0-0.2-0.1-0.5-0.2-0.7c0.6,0,1.1,0,1.2,0
		c0.2,0,0.2,0,0.2-0.2v-2.7h-3.6v1.4l1.6-0.1c-0.2-0.3-0.4-0.6-0.6-0.9l0.6-0.2c0.6,0.6,1.1,1.5,1.3,2.2l-0.6,0.2
		c-0.1-0.2-0.2-0.5-0.3-0.7c-1.9,0.1-3.8,0.2-5.1,0.3c0,0.1-0.1,0.1-0.2,0.2l-0.3-0.9c0.7,0,1.7,0,2.8-0.1v-1.4h-3.5v3.5h-0.8v-4.2
		h4.3v-0.6h-3.4v-3.6h7.7v3.6h-3.5v0.6H192.3z M184.5,142.7v0.9h2.6v-0.9H184.5z M184.5,145.1h2.6v-0.9h-2.6V145.1z M190.6,143.6
		v-0.9h-2.7v0.9H190.6z M190.6,145.1v-0.9h-2.7v0.9H190.6z"/>
	<path id="XMLID_135_" d="M49.3,164v-0.6l0.8-0.8c2-1.9,2.9-2.9,2.9-4.1c0-0.8-0.4-1.5-1.5-1.5c-0.7,0-1.3,0.4-1.7,0.7l-0.3-0.7
		c0.5-0.5,1.3-0.8,2.2-0.8c1.7,0,2.4,1.2,2.4,2.3c0,1.4-1,2.6-2.7,4.2l-0.6,0.6v0h3.5v0.9H49.3z"/>
	<path id="XMLID_137_" d="M61.1,160c0,2.7-1,4.1-2.7,4.1c-1.5,0-2.6-1.4-2.6-4c0-2.6,1.1-4.1,2.7-4.1C60.1,156,61.1,157.5,61.1,160z
		 M56.9,160.1c0,2,0.6,3.2,1.6,3.2c1.1,0,1.6-1.3,1.6-3.2c0-1.9-0.5-3.2-1.6-3.2C57.5,156.9,56.9,158,56.9,160.1z"/>
	<path id="XMLID_140_" d="M64.8,157.2L64.8,157.2l-1.4,0.7l-0.2-0.8l1.7-0.9h0.9v7.8h-1V157.2z"/>
	<path id="XMLID_142_" d="M74.2,156.2v0.7l-3.4,7.1h-1.1l3.4-6.9v0h-3.8v-0.9H74.2z"/>
	<path id="XMLID_144_" d="M75.3,164.5l3.3-8.7h0.8l-3.4,8.7H75.3z"/>
	<path id="XMLID_146_" d="M82.7,157.2L82.7,157.2l-1.4,0.7l-0.2-0.8l1.7-0.9h0.9v7.8h-1V157.2z"/>
	<path id="XMLID_148_" d="M86.5,164.5l3.3-8.7h0.8l-3.4,8.7H86.5z"/>
	<path id="XMLID_150_" d="M91.9,162.8c0.3,0.2,1,0.5,1.7,0.5c1.4,0,1.8-0.9,1.8-1.5c0-1.1-1-1.6-2-1.6h-0.6v-0.8h0.6
		c0.8,0,1.7-0.4,1.7-1.3c0-0.6-0.4-1.2-1.4-1.2c-0.6,0-1.2,0.3-1.6,0.5l-0.3-0.8c0.4-0.3,1.2-0.6,2-0.6c1.5,0,2.2,0.9,2.2,1.9
		c0,0.8-0.5,1.5-1.4,1.8v0c1,0.2,1.7,0.9,1.7,2c0,1.2-1,2.3-2.8,2.3c-0.9,0-1.6-0.3-2-0.5L91.9,162.8z"/>
	<path id="XMLID_152_" d="M100.6,157.2L100.6,157.2l-1.4,0.7l-0.2-0.8l1.7-0.9h0.9v7.8h-1V157.2z"/>
	<path id="XMLID_154_" d="M111.9,159.8l-1.4,0.5v3.6c0,0.9-0.4,1-2,1c0-0.2-0.1-0.6-0.3-0.8c0.3,0,0.6,0,0.9,0c0.5,0,0.6,0,0.6-0.2
		v-3.3c-0.6,0.2-1.1,0.4-1.5,0.5c0,0.1-0.1,0.2-0.1,0.2l-0.3-0.9c0.5-0.2,1.2-0.4,1.9-0.6v-2.8h-1.8v-0.8h1.8v-2.5l1,0.1
		c0,0.1-0.1,0.1-0.2,0.2v2.2h1.4v0.8h-1.4v2.5l1.3-0.4L111.9,159.8z M115.7,163.9c0.4,0.1,0.8,0.1,1.2,0.1h2.1
		c-0.1,0.2-0.2,0.5-0.3,0.7h-1.9c-1.7,0-3-0.3-3.8-1.8c-0.3,0.9-0.8,1.7-1.3,2.2c-0.1-0.1-0.4-0.3-0.6-0.4c0.9-0.8,1.5-2.3,1.7-4.1
		l1,0.2c0,0.1-0.1,0.1-0.2,0.1c0,0.4-0.1,0.7-0.2,1.1c0.3,0.9,0.9,1.5,1.6,1.8V160h-2.9v-0.7h6.9v0.7h-3.2v1.5h2.7v0.7h-2.7V163.9z
		 M118.2,154.3v4.1h-5.6v-4.1H118.2z M117.5,156v-1.1h-4.1v1.1H117.5z M117.5,157.8v-1.1h-4.1v1.1H117.5z"/>
	<path id="XMLID_160_" d="M131.3,161.9H127c1.1,1,2.9,1.8,4.6,2.2c-0.2,0.2-0.4,0.5-0.5,0.7c-1.7-0.5-3.7-1.5-4.8-2.7v2.9h-0.8v-2.8
		c-1.2,1.2-3,2.1-4.7,2.6c-0.1-0.2-0.3-0.5-0.5-0.6c1.6-0.4,3.5-1.2,4.5-2.2h-4.3v-0.7h5v-1l1,0.1c0,0.1-0.1,0.1-0.2,0.2v0.8h5.1
		V161.9z M123.1,159.2l-0.7-0.3c0.3-0.4,0.8-0.9,1.2-1.4h-2.9v-0.7h3.4c0.3-0.4,0.6-0.8,0.9-1.2l0.9,0.3c0,0.1-0.1,0.1-0.3,0.1
		c-0.2,0.2-0.4,0.5-0.6,0.8h6.2v0.7h-2.4c-0.3,0.7-0.8,1.2-1.4,1.7c1.2,0.3,2.4,0.7,3.2,1l-0.5,0.6c-0.9-0.3-2.2-0.7-3.6-1.1
		c-1.2,0.5-2.8,0.9-5.3,1c0-0.2-0.2-0.5-0.3-0.6c1.9-0.1,3.4-0.3,4.4-0.7c-0.7-0.2-1.4-0.3-2.1-0.5L123.1,159.2z M121.7,155.5v1
		h-0.8v-1.8h4.5v-0.9l1,0.1c0,0.1-0.1,0.1-0.2,0.2v0.7h4.6v1.8h-0.8v-1H121.7z M124.4,157.5c-0.2,0.3-0.5,0.6-0.7,0.9
		c0.8,0.2,1.7,0.4,2.6,0.6c0.7-0.4,1.2-0.8,1.5-1.4H124.4z"/>
	<path id="XMLID_165_" d="M140.3,157.7c0.1,1.4,0.3,2.7,0.6,3.8c0.6-1,1.1-2.1,1.5-3.2l0.9,0.3c0,0.1-0.1,0.1-0.3,0.1
		c-0.4,1.3-1.1,2.6-1.9,3.8c0.4,1.1,0.9,1.8,1.5,1.8c0.3,0,0.5-0.6,0.6-2.1c0.2,0.2,0.4,0.4,0.7,0.4c-0.2,1.9-0.4,2.5-1.3,2.5
		c-0.8,0-1.5-0.7-2-1.8c-0.6,0.7-1.3,1.3-2.1,1.8c-0.1-0.2-0.4-0.5-0.6-0.6l0.3-0.2h-3.7v0.7h-0.7v-4.4c-0.2,0.2-0.4,0.5-0.6,0.6
		c-0.1-0.1-0.4-0.3-0.5-0.4c0.7-0.7,1.4-1.8,1.9-2.9l0.9,0.3c0,0.1-0.1,0.1-0.2,0.1c-0.1,0.3-0.3,0.6-0.5,0.9h1.5
		c0.2-0.4,0.4-0.9,0.5-1.2l0.9,0.3c0,0.1-0.1,0.1-0.2,0.1c-0.1,0.2-0.3,0.5-0.4,0.8h1.8v0.6h-1.9v0.8h1.7v0.6h-1.7v0.9h1.7v0.6h-1.7
		v0.9h1.9v0.3c0.6-0.4,1.1-1,1.6-1.6c-0.4-1.2-0.7-2.8-0.8-4.6h-6.6V157h2.8v-1.3h-2.3V155h2.3v-1.2l1,0.1c0,0.1-0.1,0.1-0.2,0.2
		v0.9h2.3v0.7h-2.3v1.3h3c-0.1-1-0.1-2.1-0.1-3.1l1.1,0.1c0,0.1-0.1,0.2-0.3,0.2c0,1,0,1.9,0.1,2.9h3.5v0.7H140.3z M136.1,160.6
		v-0.8h-1.6v0.8H136.1z M136.1,162v-0.9h-1.6v0.9H136.1z M134.6,162.6v0.9h1.6v-0.9H134.6z M141.6,154.1c0.7,0.5,1.5,1.2,1.9,1.8
		l-0.6,0.5c-0.4-0.5-1.2-1.3-1.8-1.8L141.6,154.1z"/>
	<path id="XMLID_171_" d="M151.6,163.6h4.7v0.8h-10.9v-0.8h1.7v-7l1.1,0.1c0,0.1-0.1,0.1-0.2,0.2v6.8h2.9v-9.7l1.1,0.1
		c0,0.1-0.1,0.1-0.3,0.2v3.8h4v0.8h-4V163.6z"/>
</g>
<g id="XMLID_5_">
	<path id="XMLID_6_" class="st1" d="M189.6,16.5c0-1.9,1.1-3,2.6-3c0.7,0,1.3,0.4,1.6,0.7l-0.4,0.5c-0.3-0.3-0.7-0.6-1.2-0.6
		c-1.1,0-1.8,0.9-1.8,2.4c0,1.5,0.7,2.4,1.8,2.4c0.6,0,1-0.2,1.4-0.7l0.4,0.5c-0.5,0.5-1,0.8-1.8,0.8
		C190.7,19.6,189.6,18.4,189.6,16.5z"/>
	<path id="XMLID_8_" class="st1" d="M194.9,13.8c0-0.3,0.2-0.5,0.5-0.5c0.3,0,0.5,0.2,0.5,0.5c0,0.3-0.2,0.5-0.5,0.5
		C195.1,14.2,194.9,14,194.9,13.8z M195,15.1h0.7v4.3H195V15.1z"/>
	<path id="XMLID_25_" class="st1" d="M196.6,15.1h0.8l0.8,2.5c0.1,0.4,0.3,0.9,0.4,1.3h0c0.1-0.4,0.3-0.9,0.4-1.3l0.8-2.5h0.7
		l-1.5,4.3h-0.8L196.6,15.1z"/>
	<path id="XMLID_27_" class="st1" d="M201.2,13.8c0-0.3,0.2-0.5,0.5-0.5s0.5,0.2,0.5,0.5c0,0.3-0.2,0.5-0.5,0.5S201.2,14,201.2,13.8
		z M201.4,15.1h0.7v4.3h-0.7V15.1z"/>
	<path id="XMLID_30_" class="st1" d="M203.2,17.3c0-1.4,1-2.3,2.1-2.3c0.6,0,1,0.2,1.3,0.5l-0.4,0.5c-0.3-0.2-0.5-0.4-0.9-0.4
		c-0.8,0-1.4,0.7-1.4,1.7c0,1,0.5,1.7,1.3,1.7c0.4,0,0.8-0.2,1-0.4l0.3,0.5c-0.4,0.4-0.9,0.6-1.4,0.6
		C204.1,19.6,203.2,18.7,203.2,17.3z"/>
	<path id="XMLID_32_" class="st1" d="M210.7,14.2h-1.8v-0.6h4.3v0.6h-1.8v5.2h-0.7V14.2z"/>
	<path id="XMLID_34_" class="st1" d="M213.3,17.3c0-1.4,1-2.3,2-2.3c1.1,0,1.7,0.8,1.7,2c0,0.2,0,0.3,0,0.4H214
		c0,0.9,0.6,1.5,1.4,1.5c0.4,0,0.8-0.1,1.1-0.3l0.3,0.5c-0.4,0.2-0.8,0.4-1.4,0.4C214.2,19.6,213.3,18.7,213.3,17.3z M216.3,16.9
		c0-0.9-0.4-1.4-1.1-1.4c-0.6,0-1.2,0.5-1.2,1.4H216.3z"/>
	<path id="XMLID_37_" class="st1" d="M217.7,17.3c0-1.4,1-2.3,2.1-2.3c0.6,0,1,0.2,1.3,0.5l-0.4,0.5c-0.3-0.2-0.5-0.4-0.9-0.4
		c-0.8,0-1.4,0.7-1.4,1.7c0,1,0.5,1.7,1.3,1.7c0.4,0,0.8-0.2,1-0.4l0.3,0.5c-0.4,0.4-0.9,0.6-1.4,0.6
		C218.6,19.6,217.7,18.7,217.7,17.3z"/>
	<path id="XMLID_39_" class="st1" d="M222.1,13.1h0.7v1.7l0,0.9c0.4-0.4,0.8-0.7,1.4-0.7c0.9,0,1.3,0.6,1.3,1.7v2.8h-0.7v-2.7
		c0-0.8-0.2-1.2-0.8-1.2c-0.4,0-0.8,0.2-1.2,0.7v3.2h-0.7V13.1z"/>
	<path id="XMLID_41_" class="st1" d="M228.8,13.6h1.7c1.3,0,2.2,0.4,2.2,1.7c0,1.2-0.9,1.8-2.2,1.8h-1v2.3h-0.7V13.6z M230.5,16.5
		c1,0,1.5-0.4,1.5-1.2c0-0.8-0.5-1.1-1.6-1.1h-0.8v2.3H230.5z"/>
	<path id="XMLID_44_" class="st1" d="M233.8,15.1h0.6l0.1,0.8h0c0.3-0.6,0.7-0.9,1.2-0.9c0.2,0,0.3,0,0.5,0.1l-0.1,0.6
		c-0.1-0.1-0.2-0.1-0.4-0.1c-0.4,0-0.8,0.3-1.1,1v2.8h-0.7V15.1z"/>
	<path id="XMLID_46_" class="st1" d="M236.5,17.3c0-1.4,1-2.3,2-2.3c1.1,0,2,0.8,2,2.3c0,1.4-1,2.3-2,2.3
		C237.5,19.6,236.5,18.7,236.5,17.3z M239.8,17.3c0-1-0.5-1.7-1.3-1.7c-0.8,0-1.3,0.7-1.3,1.7c0,1,0.5,1.7,1.3,1.7
		C239.3,19,239.8,18.3,239.8,17.3z"/>
	<path id="XMLID_49_" class="st1" d="M241.7,18.1v-2.4H241v-0.6l0.7,0l0.1-1.2h0.6v1.2h1.2v0.6h-1.2v2.4c0,0.5,0.2,0.8,0.7,0.8
		c0.2,0,0.4-0.1,0.5-0.1l0.1,0.5c-0.2,0.1-0.5,0.2-0.8,0.2C242,19.6,241.7,19,241.7,18.1z"/>
	<path id="XMLID_51_" class="st1" d="M244.1,17.3c0-1.4,1-2.3,2-2.3c1.1,0,2,0.8,2,2.3c0,1.4-1,2.3-2,2.3
		C245.1,19.6,244.1,18.7,244.1,17.3z M247.4,17.3c0-1-0.5-1.7-1.3-1.7c-0.8,0-1.3,0.7-1.3,1.7c0,1,0.5,1.7,1.3,1.7
		C246.9,19,247.4,18.3,247.4,17.3z"/>
	<path id="XMLID_54_" class="st1" d="M249.3,18.1v-2.4h-0.6v-0.6l0.7,0l0.1-1.2h0.6v1.2h1.2v0.6H250v2.4c0,0.5,0.2,0.8,0.7,0.8
		c0.2,0,0.4-0.1,0.5-0.1l0.1,0.5c-0.2,0.1-0.5,0.2-0.8,0.2C249.6,19.6,249.3,19,249.3,18.1z"/>
	<path id="XMLID_56_" class="st1" d="M251.7,21.2l0.1-0.6c0.1,0,0.2,0.1,0.3,0.1c0.5,0,0.8-0.4,1-0.9l0.1-0.3l-1.7-4.3h0.8l0.9,2.4
		c0.1,0.4,0.3,0.8,0.4,1.2h0c0.1-0.4,0.2-0.8,0.4-1.2l0.8-2.4h0.7l-1.6,4.7c-0.3,0.9-0.8,1.5-1.6,1.5
		C252,21.3,251.8,21.3,251.7,21.2z"/>
	<path id="XMLID_58_" class="st1" d="M256.3,15.1h0.6l0.1,0.5h0c0.4-0.3,0.9-0.6,1.4-0.6c1.1,0,1.7,0.9,1.7,2.2
		c0,1.5-0.9,2.3-1.9,2.3c-0.4,0-0.8-0.2-1.2-0.5l0,0.8v1.5h-0.7V15.1z M259.4,17.2c0-1-0.3-1.6-1.1-1.6c-0.4,0-0.7,0.2-1.2,0.6v2.3
		c0.4,0.3,0.8,0.5,1.1,0.5C258.8,19,259.4,18.3,259.4,17.2z"/>
	<path id="XMLID_61_" class="st1" d="M261,17.3c0-1.4,1-2.3,2-2.3c1.1,0,1.7,0.8,1.7,2c0,0.2,0,0.3,0,0.4h-2.9
		c0,0.9,0.6,1.5,1.4,1.5c0.4,0,0.8-0.1,1.1-0.3l0.3,0.5c-0.4,0.2-0.8,0.4-1.4,0.4C261.9,19.6,261,18.7,261,17.3z M264,16.9
		c0-0.9-0.4-1.4-1.1-1.4c-0.6,0-1.2,0.5-1.2,1.4H264z"/>
	<path id="XMLID_64_" class="st1" d="M267.2,16.5c0-1.9,1.1-3,2.7-3c0.8,0,1.4,0.4,1.7,0.7l-0.4,0.5c-0.3-0.3-0.7-0.6-1.3-0.6
		c-1.2,0-1.9,0.9-1.9,2.4c0,1.5,0.7,2.4,2,2.4c0.4,0,0.8-0.1,1.1-0.3V17h-1.2v-0.6h1.9v2.5c-0.4,0.4-1,0.7-1.8,0.7
		C268.3,19.6,267.2,18.4,267.2,16.5z"/>
	<path id="XMLID_66_" class="st1" d="M273,15.1h0.6l0.1,0.8h0c0.3-0.6,0.7-0.9,1.2-0.9c0.2,0,0.3,0,0.5,0.1l-0.1,0.6
		c-0.1-0.1-0.2-0.1-0.4-0.1c-0.4,0-0.8,0.3-1.1,1v2.8H273V15.1z"/>
	<path id="XMLID_68_" class="st1" d="M275.6,18.3c0-0.9,0.8-1.4,2.7-1.6c0-0.6-0.2-1.1-0.9-1.1c-0.5,0-1,0.2-1.3,0.5l-0.3-0.5
		c0.4-0.3,1-0.6,1.7-0.6c1.1,0,1.5,0.7,1.5,1.8v2.7h-0.6l-0.1-0.5h0c-0.4,0.3-0.9,0.6-1.4,0.6C276.2,19.6,275.6,19.1,275.6,18.3z
		 M278.3,18.4v-1.2c-1.5,0.2-2,0.5-2,1.1c0,0.5,0.3,0.7,0.8,0.7C277.5,19,277.9,18.8,278.3,18.4z"/>
	<path id="XMLID_71_" class="st1" d="M280.4,15.1h0.6l0.1,0.6h0c0.4-0.4,0.9-0.7,1.5-0.7c0.9,0,1.3,0.6,1.3,1.7v2.8h-0.7v-2.7
		c0-0.8-0.2-1.2-0.8-1.2c-0.4,0-0.8,0.2-1.2,0.7v3.2h-0.7V15.1z"/>
	<path id="XMLID_73_" class="st1" d="M285.4,18.1v-2.4h-0.6v-0.6l0.7,0l0.1-1.2h0.6v1.2h1.2v0.6h-1.2v2.4c0,0.5,0.2,0.8,0.7,0.8
		c0.2,0,0.4-0.1,0.5-0.1l0.1,0.5c-0.2,0.1-0.5,0.2-0.8,0.2C285.7,19.6,285.4,19,285.4,18.1z"/>
</g>
</svg>
